<svg xmlns="http://www.w3.org/2000/svg" xmlns:xlink="http://www.w3.org/1999/xlink" width="200" zoomAndPan="magnify" viewBox="0 0 150 149.999998" height="200" preserveAspectRatio="xMidYMid meet" version="1.0"><defs><clipPath id="a5fe134e65"><path d="M 25.101562 23 L 124.851562 23 L 124.851562 129.816406 L 25.101562 129.816406 Z M 25.101562 23 " clip-rule="nonzero"/></clipPath></defs><g clip-path="url(#a5fe134e65)"><path fill="#ffffff" d="M 74.996094 74.664062 C 75.980469 74.664062 76.964844 74.609375 77.941406 74.496094 C 78.921875 74.382812 79.890625 74.210938 80.851562 73.988281 C 81.8125 73.761719 82.757812 73.484375 83.683594 73.152344 C 84.613281 72.820312 85.519531 72.433594 86.402344 72 C 87.289062 71.5625 88.144531 71.078125 88.972656 70.542969 C 89.800781 70.007812 90.597656 69.425781 91.359375 68.800781 C 92.121094 68.175781 92.84375 67.507812 93.53125 66.796875 C 94.214844 66.089844 94.859375 65.34375 95.457031 64.5625 C 96.058594 63.777344 96.609375 62.964844 97.117188 62.117188 C 97.625 61.273438 98.082031 60.398438 98.488281 59.5 C 98.894531 58.601562 99.246094 57.683594 99.546875 56.746094 C 99.851562 55.804688 100.097656 54.851562 100.289062 53.886719 C 100.480469 52.917969 100.617188 51.945312 100.695312 50.960938 C 100.777344 49.976562 100.800781 48.992188 100.765625 48.007812 C 100.734375 47.023438 100.644531 46.042969 100.5 45.066406 C 100.355469 44.09375 100.15625 43.128906 99.898438 42.175781 C 99.644531 41.222656 99.335938 40.289062 98.972656 39.371094 C 98.609375 38.453125 98.195312 37.5625 97.730469 36.691406 C 97.265625 35.824219 96.75 34.984375 96.1875 34.171875 C 95.628906 33.363281 95.019531 32.585938 94.371094 31.84375 C 93.71875 31.105469 93.027344 30.402344 92.296875 29.742188 C 91.566406 29.078125 90.800781 28.460938 90 27.886719 C 89.199219 27.3125 88.367188 26.785156 87.503906 26.308594 C 86.640625 25.828125 85.753906 25.402344 84.84375 25.023438 C 83.933594 24.648438 83.003906 24.324219 82.054688 24.054688 C 81.105469 23.785156 80.144531 23.570312 79.171875 23.410156 C 78.199219 23.25 77.21875 23.144531 76.234375 23.097656 C 75.25 23.046875 74.265625 23.058594 73.28125 23.121094 C 72.296875 23.1875 71.320312 23.308594 70.351562 23.484375 C 69.378906 23.660156 68.425781 23.894531 67.480469 24.179688 C 66.535156 24.46875 65.613281 24.808594 64.707031 25.199219 C 63.804688 25.59375 62.925781 26.035156 62.070312 26.527344 C 61.21875 27.023438 60.394531 27.5625 59.601562 28.152344 C 58.8125 28.738281 58.054688 29.371094 57.335938 30.042969 C 56.617188 30.71875 55.9375 31.433594 55.300781 32.183594 C 54.664062 32.9375 54.070312 33.722656 53.523438 34.542969 C 52.976562 35.363281 52.476562 36.210938 52.027344 37.089844 C 51.578125 37.964844 51.179688 38.867188 50.832031 39.789062 C 50.484375 40.710938 50.191406 41.652344 49.953125 42.609375 C 49.714844 43.566406 49.53125 44.53125 49.402344 45.511719 C 49.273438 46.488281 49.199219 47.46875 49.183594 48.457031 C 49.167969 49.441406 49.210938 50.425781 49.308594 51.40625 C 49.40625 52.386719 49.558594 53.359375 49.765625 54.324219 C 49.976562 55.289062 50.238281 56.238281 50.554688 57.171875 C 50.871094 58.105469 51.242188 59.015625 51.664062 59.90625 C 52.085938 60.800781 52.558594 61.664062 53.078125 62.5 C 53.601562 63.335938 54.167969 64.140625 54.78125 64.914062 C 55.394531 65.6875 56.050781 66.421875 56.746094 67.117188 C 57.945312 68.316406 59.25 69.386719 60.65625 70.328125 C 62.066406 71.269531 63.550781 72.0625 65.117188 72.710938 C 66.683594 73.359375 68.296875 73.847656 69.960938 74.175781 C 71.621094 74.503906 73.300781 74.667969 74.996094 74.664062 Z M 59.027344 32.898438 C 59.550781 32.375 60.097656 31.878906 60.667969 31.410156 C 61.238281 30.945312 61.832031 30.503906 62.445312 30.09375 C 63.0625 29.683594 63.695312 29.304688 64.347656 28.957031 C 65 28.609375 65.667969 28.292969 66.347656 28.011719 C 67.03125 27.726562 67.726562 27.480469 68.433594 27.265625 C 69.140625 27.050781 69.859375 26.871094 70.582031 26.726562 C 71.308594 26.582031 72.039062 26.476562 72.773438 26.402344 C 73.507812 26.332031 74.246094 26.292969 74.984375 26.296875 C 75.726562 26.296875 76.460938 26.332031 77.199219 26.402344 C 77.933594 26.476562 78.664062 26.585938 79.386719 26.730469 C 80.113281 26.875 80.828125 27.054688 81.535156 27.269531 C 82.242188 27.484375 82.9375 27.730469 83.621094 28.015625 C 84.304688 28.296875 84.972656 28.613281 85.625 28.960938 C 86.273438 29.3125 86.90625 29.691406 87.523438 30.101562 C 88.136719 30.511719 88.730469 30.953125 89.300781 31.421875 C 89.871094 31.890625 90.417969 32.386719 90.941406 32.910156 C 91.464844 33.429688 91.960938 33.976562 92.429688 34.550781 C 92.898438 35.121094 93.335938 35.714844 93.746094 36.328125 C 94.15625 36.941406 94.539062 37.574219 94.886719 38.226562 C 95.234375 38.878906 95.550781 39.546875 95.832031 40.230469 C 96.117188 40.914062 96.363281 41.609375 96.578125 42.316406 C 96.792969 43.023438 96.972656 43.738281 97.117188 44.464844 C 97.261719 45.1875 97.367188 45.917969 97.441406 46.652344 C 97.515625 47.390625 97.550781 48.125 97.550781 48.867188 C 97.550781 49.605469 97.515625 50.34375 97.441406 51.078125 C 97.367188 51.8125 97.261719 52.542969 97.117188 53.269531 C 96.972656 53.992188 96.792969 54.710938 96.578125 55.417969 C 96.363281 56.125 96.117188 56.820312 95.832031 57.5 C 95.550781 58.183594 95.234375 58.851562 94.886719 59.503906 C 94.539062 60.15625 94.15625 60.789062 93.746094 61.402344 C 93.335938 62.019531 92.898438 62.609375 92.429688 63.183594 C 91.960938 63.753906 91.464844 64.300781 90.941406 64.824219 C 90.417969 65.347656 89.871094 65.84375 89.300781 66.3125 C 88.730469 66.78125 88.136719 67.21875 87.523438 67.628906 C 86.90625 68.042969 86.273438 68.421875 85.625 68.769531 C 84.972656 69.117188 84.304688 69.433594 83.621094 69.714844 C 82.9375 70 82.242188 70.25 81.535156 70.464844 C 80.828125 70.679688 80.113281 70.859375 79.386719 71 C 78.664062 71.144531 77.933594 71.253906 77.199219 71.328125 C 76.460938 71.398438 75.726562 71.4375 74.984375 71.4375 C 74.246094 71.4375 73.507812 71.402344 72.773438 71.328125 C 72.039062 71.257812 71.308594 71.148438 70.582031 71.003906 C 69.859375 70.859375 69.140625 70.679688 68.433594 70.46875 C 67.726562 70.253906 67.03125 70.003906 66.347656 69.722656 C 65.667969 69.4375 65 69.125 64.347656 68.777344 C 63.695312 68.425781 63.0625 68.046875 62.445312 67.636719 C 61.832031 67.226562 61.238281 66.789062 60.667969 66.320312 C 60.097656 65.851562 59.550781 65.355469 59.027344 64.832031 C 58.503906 64.308594 58.007812 63.761719 57.539062 63.191406 C 57.070312 62.617188 56.632812 62.023438 56.222656 61.410156 C 55.8125 60.792969 55.433594 60.160156 55.085938 59.507812 C 54.738281 58.855469 54.421875 58.1875 54.140625 57.503906 C 53.855469 56.820312 53.609375 56.125 53.394531 55.417969 C 53.179688 54.710938 53 53.996094 52.855469 53.269531 C 52.710938 52.542969 52.605469 51.8125 52.53125 51.078125 C 52.460938 50.34375 52.421875 49.605469 52.421875 48.867188 C 52.421875 48.125 52.460938 47.390625 52.53125 46.652344 C 52.605469 45.917969 52.710938 45.1875 52.855469 44.460938 C 53 43.738281 53.179688 43.019531 53.394531 42.3125 C 53.609375 41.605469 53.855469 40.910156 54.140625 40.226562 C 54.421875 39.542969 54.738281 38.875 55.085938 38.222656 C 55.433594 37.570312 55.8125 36.9375 56.222656 36.320312 C 56.632812 35.707031 57.070312 35.113281 57.539062 34.542969 C 58.007812 33.96875 58.503906 33.421875 59.027344 32.898438 Z M 79.71875 55.203125 C 79.714844 54.894531 79.6875 54.585938 79.625 54.28125 C 79.566406 53.980469 79.476562 53.683594 79.355469 53.398438 C 79.238281 53.109375 79.09375 52.839844 78.917969 52.582031 C 78.746094 52.324219 78.550781 52.085938 78.332031 51.867188 C 78.113281 51.644531 77.875 51.449219 77.617188 51.277344 C 77.359375 51.105469 77.085938 50.960938 76.800781 50.839844 C 76.515625 50.722656 76.21875 50.632812 75.914062 50.570312 C 75.609375 50.511719 75.304688 50.480469 74.996094 50.480469 C 74.507812 50.480469 74.023438 50.4375 73.542969 50.347656 C 73.0625 50.257812 72.59375 50.125 72.136719 49.953125 C 71.683594 49.777344 71.246094 49.5625 70.832031 49.304688 C 70.414062 49.050781 70.023438 48.757812 69.664062 48.433594 C 69.300781 48.105469 68.96875 47.75 68.671875 47.359375 C 68.378906 46.972656 68.117188 46.5625 67.898438 46.125 C 67.675781 45.691406 67.496094 45.238281 67.359375 44.769531 C 67.222656 44.300781 67.128906 43.824219 67.078125 43.339844 C 67.027344 42.855469 67.023438 42.367188 67.0625 41.882812 C 67.101562 41.394531 67.1875 40.914062 67.316406 40.445312 C 67.441406 39.972656 67.613281 39.519531 67.824219 39.078125 C 68.035156 38.636719 68.285156 38.222656 68.574219 37.828125 C 68.863281 37.433594 69.183594 37.070312 69.539062 36.734375 C 69.894531 36.402344 70.28125 36.101562 70.691406 35.835938 C 71.101562 35.574219 71.53125 35.347656 71.984375 35.164062 C 72.4375 34.980469 72.902344 34.839844 73.378906 34.738281 L 73.378906 31.136719 C 73.378906 30.921875 73.417969 30.71875 73.5 30.519531 C 73.582031 30.320312 73.699219 30.144531 73.851562 29.992188 C 74.003906 29.84375 74.175781 29.726562 74.375 29.644531 C 74.574219 29.5625 74.78125 29.519531 74.996094 29.519531 C 75.207031 29.519531 75.414062 29.5625 75.613281 29.644531 C 75.8125 29.726562 75.984375 29.84375 76.136719 29.992188 C 76.289062 30.144531 76.40625 30.320312 76.488281 30.519531 C 76.570312 30.71875 76.609375 30.921875 76.609375 31.136719 L 76.609375 34.738281 C 77.054688 34.832031 77.488281 34.960938 77.910156 35.128906 C 78.332031 35.296875 78.734375 35.496094 79.125 35.734375 C 79.511719 35.96875 79.875 36.234375 80.21875 36.535156 C 80.558594 36.832031 80.875 37.15625 81.160156 37.507812 C 81.445312 37.859375 81.703125 38.234375 81.921875 38.628906 C 82.144531 39.027344 82.332031 39.4375 82.484375 39.863281 C 82.636719 40.292969 82.753906 40.730469 82.832031 41.175781 C 82.910156 41.625 82.949219 42.074219 82.949219 42.527344 C 82.941406 42.738281 82.898438 42.941406 82.8125 43.132812 C 82.726562 43.324219 82.609375 43.496094 82.460938 43.640625 C 82.308594 43.789062 82.136719 43.902344 81.941406 43.980469 C 81.746094 44.058594 81.542969 44.101562 81.332031 44.101562 C 81.121094 44.101562 80.917969 44.058594 80.722656 43.980469 C 80.527344 43.902344 80.355469 43.789062 80.207031 43.640625 C 80.054688 43.496094 79.9375 43.324219 79.851562 43.132812 C 79.769531 42.941406 79.722656 42.738281 79.71875 42.527344 C 79.71875 42.21875 79.6875 41.910156 79.625 41.605469 C 79.566406 41.300781 79.476562 41.007812 79.359375 40.71875 C 79.238281 40.433594 79.09375 40.160156 78.921875 39.902344 C 78.75 39.644531 78.554688 39.40625 78.332031 39.1875 C 78.113281 38.96875 77.875 38.773438 77.617188 38.601562 C 77.359375 38.429688 77.089844 38.28125 76.800781 38.164062 C 76.515625 38.046875 76.21875 37.957031 75.914062 37.894531 C 75.613281 37.835938 75.304688 37.804688 74.996094 37.804688 C 74.683594 37.804688 74.378906 37.835938 74.074219 37.894531 C 73.769531 37.957031 73.472656 38.046875 73.1875 38.164062 C 72.902344 38.28125 72.628906 38.429688 72.371094 38.601562 C 72.113281 38.773438 71.875 38.96875 71.65625 39.1875 C 71.433594 39.40625 71.238281 39.644531 71.066406 39.902344 C 70.894531 40.160156 70.75 40.433594 70.632812 40.71875 C 70.511719 41.007812 70.421875 41.300781 70.363281 41.605469 C 70.300781 41.910156 70.273438 42.21875 70.273438 42.527344 C 70.273438 42.835938 70.300781 43.144531 70.363281 43.449219 C 70.421875 43.753906 70.511719 44.046875 70.632812 44.335938 C 70.75 44.621094 70.894531 44.894531 71.066406 45.152344 C 71.238281 45.410156 71.433594 45.648438 71.65625 45.867188 C 71.875 46.085938 72.113281 46.28125 72.371094 46.453125 C 72.628906 46.625 72.902344 46.773438 73.1875 46.890625 C 73.472656 47.007812 73.769531 47.097656 74.074219 47.160156 C 74.378906 47.21875 74.683594 47.25 74.996094 47.25 C 75.480469 47.25 75.964844 47.296875 76.445312 47.382812 C 76.925781 47.472656 77.394531 47.605469 77.847656 47.78125 C 78.304688 47.957031 78.738281 48.171875 79.15625 48.425781 C 79.570312 48.683594 79.960938 48.972656 80.324219 49.300781 C 80.683594 49.628906 81.015625 49.984375 81.3125 50.371094 C 81.609375 50.761719 81.867188 51.171875 82.085938 51.605469 C 82.308594 52.042969 82.488281 52.492188 82.625 52.960938 C 82.761719 53.429688 82.855469 53.90625 82.90625 54.390625 C 82.957031 54.878906 82.960938 55.363281 82.921875 55.851562 C 82.882812 56.335938 82.796875 56.816406 82.667969 57.285156 C 82.542969 57.757812 82.371094 58.210938 82.160156 58.652344 C 81.949219 59.09375 81.699219 59.507812 81.410156 59.902344 C 81.121094 60.296875 80.800781 60.660156 80.445312 60.996094 C 80.089844 61.328125 79.707031 61.628906 79.296875 61.894531 C 78.886719 62.15625 78.457031 62.382812 78.003906 62.566406 C 77.550781 62.75 77.085938 62.894531 76.609375 62.992188 L 76.609375 66.59375 C 76.609375 66.808594 76.570312 67.015625 76.488281 67.210938 C 76.40625 67.410156 76.289062 67.585938 76.136719 67.738281 C 75.984375 67.890625 75.8125 68.007812 75.613281 68.089844 C 75.414062 68.171875 75.207031 68.210938 74.996094 68.210938 C 74.78125 68.210938 74.574219 68.171875 74.375 68.089844 C 74.175781 68.007812 74.003906 67.890625 73.851562 67.738281 C 73.699219 67.585938 73.582031 67.410156 73.5 67.210938 C 73.417969 67.015625 73.378906 66.808594 73.378906 66.59375 L 73.378906 62.992188 C 72.933594 62.898438 72.503906 62.769531 72.082031 62.601562 C 71.65625 62.4375 71.253906 62.234375 70.867188 62 C 70.476562 61.761719 70.113281 61.496094 69.769531 61.199219 C 69.429688 60.898438 69.113281 60.574219 68.828125 60.222656 C 68.542969 59.871094 68.289062 59.496094 68.066406 59.101562 C 67.84375 58.707031 67.65625 58.292969 67.503906 57.867188 C 67.351562 57.441406 67.234375 57.003906 67.15625 56.554688 C 67.082031 56.109375 67.042969 55.65625 67.039062 55.203125 C 67.046875 54.992188 67.089844 54.792969 67.175781 54.597656 C 67.261719 54.40625 67.378906 54.238281 67.527344 54.089844 C 67.679688 53.941406 67.851562 53.828125 68.046875 53.75 C 68.242188 53.671875 68.445312 53.632812 68.65625 53.632812 C 68.867188 53.632812 69.070312 53.671875 69.265625 53.75 C 69.460938 53.828125 69.632812 53.941406 69.785156 54.089844 C 69.933594 54.238281 70.050781 54.40625 70.136719 54.597656 C 70.222656 54.792969 70.265625 54.992188 70.273438 55.203125 C 70.273438 55.515625 70.300781 55.820312 70.363281 56.125 C 70.421875 56.429688 70.511719 56.726562 70.632812 57.011719 C 70.75 57.296875 70.894531 57.570312 71.066406 57.828125 C 71.238281 58.085938 71.433594 58.324219 71.65625 58.542969 C 71.875 58.761719 72.113281 58.957031 72.371094 59.132812 C 72.628906 59.304688 72.902344 59.449219 73.1875 59.566406 C 73.472656 59.6875 73.769531 59.777344 74.074219 59.835938 C 74.378906 59.898438 74.683594 59.925781 74.996094 59.925781 C 75.304688 59.925781 75.613281 59.898438 75.914062 59.835938 C 76.21875 59.777344 76.515625 59.6875 76.800781 59.566406 C 77.089844 59.449219 77.359375 59.304688 77.617188 59.132812 C 77.875 58.957031 78.113281 58.761719 78.332031 58.542969 C 78.554688 58.324219 78.75 58.085938 78.921875 57.828125 C 79.09375 57.570312 79.238281 57.296875 79.359375 57.011719 C 79.476562 56.726562 79.566406 56.429688 79.625 56.125 C 79.6875 55.820312 79.71875 55.515625 79.71875 55.203125 Z M 124.214844 80.796875 C 124.507812 80.421875 124.617188 79.996094 124.535156 79.523438 L 118.636719 45.257812 C 118.566406 44.785156 118.453125 44.320312 118.292969 43.871094 C 118.136719 43.417969 117.941406 42.984375 117.703125 42.570312 C 117.464844 42.152344 117.191406 41.761719 116.882812 41.398438 C 116.574219 41.035156 116.234375 40.699219 115.863281 40.398438 C 115.492188 40.097656 115.09375 39.832031 114.675781 39.605469 C 114.253906 39.378906 113.816406 39.191406 113.363281 39.042969 C 112.90625 38.894531 112.441406 38.792969 111.96875 38.730469 C 111.492188 38.671875 111.015625 38.652344 110.539062 38.683594 C 109.566406 38.738281 108.648438 38.988281 107.78125 39.425781 C 106.914062 39.863281 106.167969 40.457031 105.546875 41.207031 C 104.878906 41.992188 104.394531 42.878906 104.089844 43.863281 C 103.785156 44.847656 103.6875 45.851562 103.792969 46.878906 L 105.988281 67.28125 C 104.636719 67.582031 103.480469 68.230469 102.515625 69.226562 L 90.34375 81.808594 C 84.746094 83.960938 80.914062 87.46875 78.949219 92.234375 C 77.171875 96.546875 76.933594 101.953125 78.222656 108.300781 L 74.996094 108.335938 L 71.765625 108.296875 C 73.058594 101.941406 72.820312 96.542969 71.039062 92.230469 C 69.074219 87.46875 65.242188 83.960938 59.644531 81.804688 L 47.46875 69.230469 C 46.507812 68.234375 45.347656 67.589844 43.996094 67.285156 L 46.191406 46.882812 C 46.296875 45.855469 46.199219 44.851562 45.894531 43.867188 C 45.589844 42.882812 45.105469 41.996094 44.4375 41.210938 C 43.816406 40.460938 43.074219 39.867188 42.207031 39.429688 C 41.339844 38.988281 40.421875 38.742188 39.449219 38.683594 C 38.972656 38.652344 38.496094 38.671875 38.023438 38.730469 C 37.546875 38.792969 37.082031 38.894531 36.628906 39.042969 C 36.171875 39.1875 35.734375 39.375 35.316406 39.605469 C 34.894531 39.832031 34.5 40.097656 34.128906 40.398438 C 33.757812 40.699219 33.417969 41.03125 33.109375 41.398438 C 32.800781 41.761719 32.527344 42.152344 32.289062 42.566406 C 32.050781 42.980469 31.855469 43.414062 31.699219 43.867188 C 31.539062 44.316406 31.425781 44.78125 31.355469 45.253906 L 25.453125 79.519531 C 25.371094 79.992188 25.480469 80.417969 25.777344 80.792969 L 43.894531 103.859375 L 43.84375 107.953125 L 41 107.917969 L 40.980469 107.917969 C 40.765625 107.917969 40.5625 107.957031 40.367188 108.039062 C 40.167969 108.121094 39.996094 108.234375 39.84375 108.382812 C 39.691406 108.535156 39.574219 108.707031 39.492188 108.902344 C 39.410156 109.097656 39.367188 109.300781 39.363281 109.515625 L 39.144531 127.601562 C 39.140625 127.816406 39.179688 128.019531 39.257812 128.21875 C 39.335938 128.417969 39.453125 128.59375 39.601562 128.746094 C 39.75 128.902344 39.925781 129.019531 40.121094 129.105469 C 40.316406 129.1875 40.523438 129.230469 40.738281 129.234375 L 74.757812 129.652344 L 74.777344 129.652344 C 74.925781 129.628906 75.074219 129.628906 75.21875 129.652344 L 75.230469 129.652344 L 109.25 129.234375 C 109.464844 129.230469 109.671875 129.1875 109.867188 129.105469 C 110.0625 129.019531 110.238281 128.902344 110.386719 128.746094 C 110.535156 128.59375 110.652344 128.417969 110.730469 128.21875 C 110.808594 128.019531 110.847656 127.816406 110.847656 127.601562 L 110.625 109.515625 C 110.617188 109.066406 110.457031 108.691406 110.136719 108.378906 C 109.816406 108.070312 109.433594 107.914062 108.988281 107.917969 L 106.144531 107.953125 L 106.09375 103.859375 Z M 46.785156 102.308594 L 28.757812 79.363281 L 34.535156 45.804688 C 34.609375 45.242188 34.785156 44.710938 35.0625 44.214844 C 35.335938 43.71875 35.695312 43.289062 36.132812 42.929688 C 36.570312 42.566406 37.0625 42.296875 37.601562 42.125 C 38.140625 41.949219 38.695312 41.878906 39.261719 41.910156 C 40.367188 41.984375 41.273438 42.445312 41.976562 43.300781 C 42.355469 43.75 42.632812 44.253906 42.808594 44.816406 C 42.984375 45.378906 43.039062 45.953125 42.980469 46.535156 L 40.753906 67.304688 C 39.464844 67.605469 38.347656 68.214844 37.398438 69.136719 C 37.070312 69.460938 36.773438 69.8125 36.511719 70.199219 C 36.25 70.582031 36.027344 70.984375 35.84375 71.414062 C 35.660156 71.839844 35.523438 72.28125 35.425781 72.734375 C 35.332031 73.1875 35.28125 73.648438 35.277344 74.113281 C 35.269531 74.574219 35.308594 75.035156 35.394531 75.492188 C 35.480469 75.949219 35.609375 76.394531 35.78125 76.824219 C 35.953125 77.253906 36.164062 77.664062 36.417969 78.054688 C 36.667969 78.445312 36.957031 78.804688 37.28125 79.136719 L 43.023438 85.019531 C 43.171875 85.164062 43.347656 85.273438 43.539062 85.347656 C 43.734375 85.425781 43.933594 85.460938 44.140625 85.460938 C 44.351562 85.457031 44.550781 85.417969 44.742188 85.335938 C 44.933594 85.257812 45.105469 85.144531 45.253906 85 C 45.402344 84.855469 45.519531 84.6875 45.605469 84.5 C 45.6875 84.308594 45.734375 84.109375 45.742188 83.902344 C 45.75 83.695312 45.71875 83.492188 45.648438 83.296875 C 45.574219 83.101562 45.472656 82.925781 45.332031 82.769531 L 39.59375 76.886719 C 39.238281 76.519531 38.96875 76.101562 38.78125 75.628906 C 38.59375 75.15625 38.5 74.664062 38.507812 74.15625 C 38.515625 73.644531 38.617188 73.15625 38.816406 72.6875 C 39.015625 72.222656 39.296875 71.808594 39.660156 71.453125 C 40.390625 70.75 41.257812 70.382812 42.265625 70.351562 L 42.292969 70.351562 C 42.347656 70.351562 42.402344 70.351562 42.457031 70.351562 C 43.511719 70.355469 44.40625 70.730469 45.144531 71.484375 L 57.578125 84.316406 C 57.746094 84.492188 57.945312 84.621094 58.175781 84.707031 C 67.785156 88.261719 71.160156 95.972656 68.476562 108.253906 L 47.074219 107.992188 L 47.128906 103.328125 C 47.136719 102.945312 47.019531 102.605469 46.785156 102.308594 Z M 73.175781 126.402344 L 42.386719 126.023438 L 42.570312 111.167969 L 45.414062 111.203125 L 69.730469 111.503906 L 69.746094 111.503906 L 73.355469 111.546875 Z M 107.601562 126.023438 L 76.8125 126.402344 L 76.628906 111.546875 L 80.238281 111.503906 L 80.253906 111.503906 L 104.570312 111.207031 L 107.414062 111.171875 Z M 81.511719 108.253906 C 78.828125 95.96875 82.203125 88.261719 91.8125 84.703125 C 92.042969 84.617188 92.242188 84.488281 92.410156 84.3125 L 104.839844 71.476562 C 105.578125 70.726562 106.472656 70.347656 107.527344 70.34375 L 107.738281 70.34375 C 108.746094 70.378906 109.617188 70.746094 110.34375 71.445312 C 110.707031 71.800781 110.988281 72.214844 111.1875 72.683594 C 111.386719 73.152344 111.492188 73.640625 111.496094 74.148438 C 111.503906 74.65625 111.414062 75.148438 111.226562 75.621094 C 111.039062 76.09375 110.765625 76.511719 110.414062 76.878906 L 104.671875 82.761719 C 104.535156 82.917969 104.429688 83.09375 104.359375 83.289062 C 104.289062 83.484375 104.257812 83.6875 104.265625 83.894531 C 104.269531 84.101562 104.316406 84.300781 104.402344 84.492188 C 104.484375 84.679688 104.601562 84.847656 104.75 84.996094 C 104.898438 85.140625 105.070312 85.25 105.261719 85.332031 C 105.453125 85.410156 105.65625 85.449219 105.863281 85.453125 C 106.070312 85.453125 106.273438 85.417969 106.464844 85.339844 C 106.660156 85.265625 106.832031 85.15625 106.984375 85.015625 L 112.722656 79.132812 C 113.046875 78.796875 113.335938 78.4375 113.589844 78.046875 C 113.839844 77.660156 114.054688 77.25 114.226562 76.816406 C 114.398438 76.386719 114.527344 75.941406 114.609375 75.484375 C 114.695312 75.03125 114.734375 74.570312 114.730469 74.105469 C 114.722656 73.640625 114.671875 73.183594 114.578125 72.726562 C 114.480469 72.273438 114.34375 71.832031 114.160156 71.40625 C 113.980469 70.980469 113.757812 70.574219 113.496094 70.191406 C 113.234375 69.808594 112.9375 69.453125 112.605469 69.128906 C 111.65625 68.207031 110.539062 67.597656 109.253906 67.296875 L 107.007812 46.535156 C 106.949219 45.953125 107.003906 45.378906 107.179688 44.816406 C 107.355469 44.253906 107.632812 43.75 108.011719 43.300781 C 108.714844 42.445312 109.621094 41.984375 110.726562 41.910156 C 111.292969 41.875 111.847656 41.945312 112.386719 42.121094 C 112.929688 42.296875 113.417969 42.566406 113.855469 42.925781 C 114.296875 43.289062 114.652344 43.71875 114.925781 44.214844 C 115.203125 44.710938 115.378906 45.242188 115.453125 45.804688 L 121.230469 79.363281 L 103.203125 102.308594 C 102.96875 102.605469 102.855469 102.945312 102.859375 103.324219 L 102.914062 107.988281 Z M 81.511719 108.253906 " fill-opacity="1" fill-rule="nonzero"/></g></svg>