<svg xmlns="http://www.w3.org/2000/svg" xmlns:xlink="http://www.w3.org/1999/xlink" width="200" zoomAndPan="magnify" viewBox="0 0 150 149.999998" height="200" preserveAspectRatio="xMidYMid meet" version="1.0"><defs><clipPath id="dd185a91ec"><path d="M 13.460938 49 L 51 49 L 51 99 L 13.460938 99 Z M 13.460938 49 " clip-rule="nonzero"/></clipPath><clipPath id="ae40d11e17"><path d="M 99 49 L 136.460938 49 L 136.460938 99 L 99 99 Z M 99 49 " clip-rule="nonzero"/></clipPath><clipPath id="c4534fae1c"><path d="M 45 15 L 107 15 L 107 47 L 45 47 Z M 45 15 " clip-rule="nonzero"/></clipPath></defs><path fill="#ffffff" d="M 80.765625 107.378906 L 69.226562 107.378906 C 68.363281 107.378906 67.640625 106.730469 67.570312 105.867188 L 66.917969 96.203125 C 64.613281 95.335938 62.59375 94.109375 60.644531 92.597656 L 51.917969 96.851562 C 51.199219 97.210938 50.261719 96.921875 49.828125 96.203125 L 44.058594 86.179688 C 43.625 85.457031 43.84375 84.519531 44.5625 84.015625 L 52.570312 78.605469 C 52.425781 77.378906 52.28125 76.226562 52.28125 75 C 52.28125 73.773438 52.425781 72.621094 52.570312 71.394531 L 44.5625 65.984375 C 43.84375 65.480469 43.625 64.542969 44.058594 63.820312 L 49.828125 53.796875 C 50.261719 53.078125 51.199219 52.789062 51.917969 53.148438 L 60.644531 57.402344 C 62.519531 55.890625 64.613281 54.664062 66.917969 53.796875 L 67.570312 44.132812 C 67.640625 43.269531 68.363281 42.621094 69.226562 42.621094 L 80.765625 42.621094 C 81.632812 42.621094 82.28125 43.269531 82.351562 44.132812 L 83.074219 53.796875 C 85.308594 54.664062 87.402344 55.890625 89.277344 57.402344 L 98 53.148438 C 98.792969 52.789062 99.730469 53.078125 100.164062 53.796875 L 105.933594 63.820312 C 106.367188 64.542969 106.152344 65.480469 105.429688 65.984375 L 97.351562 71.394531 C 97.570312 72.621094 97.640625 73.773438 97.640625 75 C 97.640625 76.226562 97.570312 77.378906 97.351562 78.605469 L 105.429688 84.015625 C 106.152344 84.519531 106.367188 85.457031 105.933594 86.179688 L 100.164062 96.203125 C 99.730469 96.921875 98.792969 97.210938 98 96.851562 L 89.277344 92.597656 C 87.402344 94.109375 85.308594 95.335938 83.074219 96.203125 L 82.351562 105.867188 C 82.28125 106.730469 81.632812 107.378906 80.765625 107.378906 Z M 70.742188 104.132812 L 79.25 104.132812 L 79.902344 94.902344 C 79.902344 94.253906 80.332031 93.679688 80.980469 93.460938 C 83.578125 92.597656 85.957031 91.226562 87.976562 89.421875 C 88.480469 88.992188 89.132812 88.917969 89.78125 89.207031 L 98.074219 93.246094 L 102.328125 85.890625 L 94.683594 80.695312 C 94.105469 80.335938 93.820312 79.6875 93.964844 79.039062 C 94.25 77.667969 94.394531 76.371094 94.394531 75 C 94.394531 73.628906 94.25 72.332031 93.964844 70.960938 C 93.820312 70.3125 94.105469 69.664062 94.683594 69.304688 L 102.328125 64.109375 L 98.074219 56.753906 L 89.78125 60.792969 C 89.203125 61.082031 88.480469 61.007812 87.976562 60.578125 C 85.957031 58.773438 83.578125 57.402344 80.980469 56.539062 C 80.332031 56.320312 79.902344 55.746094 79.902344 55.097656 L 79.25 45.867188 L 70.742188 45.867188 L 70.09375 55.097656 C 70.019531 55.746094 69.589844 56.320312 68.9375 56.539062 C 66.414062 57.402344 64.035156 58.773438 62.015625 60.578125 C 61.511719 61.007812 60.789062 61.082031 60.214844 60.792969 L 51.917969 56.753906 L 47.664062 64.109375 L 55.308594 69.304688 C 55.886719 69.664062 56.101562 70.3125 56.03125 70.960938 C 55.742188 72.332031 55.597656 73.628906 55.597656 75 C 55.597656 76.371094 55.742188 77.667969 56.03125 79.039062 C 56.101562 79.6875 55.886719 80.335938 55.308594 80.695312 L 47.664062 85.890625 L 51.917969 93.246094 L 60.214844 89.207031 C 60.789062 88.917969 61.511719 88.992188 62.015625 89.421875 C 64.035156 91.226562 66.414062 92.597656 68.9375 93.460938 C 69.589844 93.679688 70.019531 94.253906 70.09375 94.902344 Z M 70.742188 104.132812 " fill-opacity="1" fill-rule="evenodd"/><path fill="#ffffff" d="M 74.996094 89.710938 C 66.847656 89.710938 60.285156 83.078125 60.285156 75 C 60.285156 66.921875 66.847656 60.289062 74.996094 60.289062 C 83.074219 60.289062 89.707031 66.921875 89.707031 75 C 89.707031 83.078125 83.074219 89.710938 74.996094 89.710938 Z M 74.996094 63.535156 C 68.652344 63.535156 63.53125 68.726562 63.53125 75 C 63.53125 81.273438 68.652344 86.464844 74.996094 86.464844 C 81.269531 86.464844 86.390625 81.273438 86.390625 75 C 86.390625 68.726562 81.269531 63.535156 74.996094 63.535156 Z M 74.996094 63.535156 " fill-opacity="1" fill-rule="evenodd"/><g clip-path="url(#dd185a91ec)"><path fill="#ffffff" d="M 41.75 98.871094 L 33.097656 98.871094 C 32.230469 98.871094 31.511719 98.222656 31.4375 97.355469 L 30.933594 90.289062 C 29.347656 89.640625 27.90625 88.773438 26.535156 87.691406 L 20.1875 90.792969 C 19.394531 91.152344 18.457031 90.9375 18.027344 90.144531 L 13.699219 82.644531 C 13.265625 81.851562 13.480469 80.914062 14.203125 80.410156 L 20.042969 76.441406 C 19.902344 75.648438 19.902344 74.785156 19.902344 73.917969 C 19.902344 73.054688 19.972656 72.257812 20.042969 71.394531 L 14.203125 67.429688 C 13.480469 66.921875 13.265625 65.984375 13.699219 65.265625 L 18.027344 57.691406 C 18.457031 56.972656 19.394531 56.683594 20.1875 57.042969 L 26.535156 60.144531 C 27.90625 59.0625 29.347656 58.269531 30.933594 57.621094 L 31.4375 50.554688 C 31.511719 49.6875 32.230469 49.039062 33.097656 49.039062 L 41.824219 49.039062 C 42.6875 49.039062 43.410156 49.6875 43.480469 50.554688 L 43.914062 57.621094 C 44.203125 57.691406 44.417969 57.835938 44.636719 57.910156 L 41.96875 62.597656 C 41.464844 63.460938 41.320312 64.398438 41.535156 65.265625 C 40.238281 64.6875 38.867188 64.398438 37.425781 64.398438 C 32.160156 64.398438 27.90625 68.652344 27.90625 73.917969 C 27.90625 76.515625 28.84375 78.894531 30.644531 80.695312 C 32.449219 82.5 34.902344 83.507812 37.425781 83.507812 C 42.6875 83.507812 47.015625 79.183594 47.015625 73.917969 C 47.015625 72.546875 46.65625 71.179688 46.078125 69.878906 L 50.042969 72.546875 C 49.972656 73.339844 49.902344 74.207031 49.902344 75 C 49.902344 75.792969 49.972656 76.660156 50.042969 77.453125 L 43.195312 82.066406 C 41.464844 83.222656 40.957031 85.601562 41.96875 87.402344 L 43.914062 90.722656 L 43.410156 97.355469 C 43.339844 98.222656 42.617188 98.871094 41.75 98.871094 Z M 37.425781 67.644531 C 33.964844 67.644531 31.152344 70.457031 31.152344 73.917969 C 31.152344 75.648438 31.800781 77.164062 33.027344 78.390625 C 34.179688 79.542969 35.765625 80.191406 37.425781 80.191406 C 40.886719 80.191406 43.699219 77.378906 43.699219 73.917969 C 43.699219 72.257812 43.050781 70.671875 41.894531 69.519531 C 40.667969 68.292969 39.15625 67.644531 37.425781 67.644531 Z M 37.425781 67.644531 " fill-opacity="1" fill-rule="evenodd"/></g><g clip-path="url(#ae40d11e17)"><path fill="#ffffff" d="M 108.242188 98.871094 C 107.375 98.871094 106.65625 98.222656 106.582031 97.355469 L 106.078125 90.648438 L 108.027344 87.402344 C 109.035156 85.601562 108.53125 83.222656 106.726562 82.066406 L 99.949219 77.453125 C 100.019531 76.660156 100.09375 75.792969 100.09375 75 C 100.09375 74.207031 100.019531 73.339844 99.949219 72.546875 L 103.914062 69.878906 C 103.339844 71.105469 102.976562 72.476562 102.976562 73.917969 C 102.976562 79.183594 107.304688 83.507812 112.570312 83.507812 C 115.09375 83.507812 117.542969 82.5 119.347656 80.695312 C 121.078125 78.894531 122.089844 76.515625 122.089844 73.917969 C 122.089844 68.652344 117.832031 64.398438 112.570312 64.398438 C 111.054688 64.398438 109.683594 64.757812 108.457031 65.335938 C 108.601562 64.398438 108.457031 63.460938 108.027344 62.597656 L 105.285156 57.910156 C 105.574219 57.835938 105.789062 57.691406 106.078125 57.621094 L 106.511719 50.554688 C 106.582031 49.6875 107.304688 49.039062 108.167969 49.039062 L 116.894531 49.039062 C 117.761719 49.039062 118.480469 49.6875 118.554688 50.554688 L 119.058594 57.621094 C 120.644531 58.269531 122.089844 59.0625 123.457031 60.144531 L 129.804688 57.042969 C 130.597656 56.683594 131.535156 56.972656 131.96875 57.691406 L 136.292969 65.265625 C 136.726562 65.984375 136.511719 66.921875 135.789062 67.429688 L 129.949219 71.394531 C 130.019531 72.257812 130.09375 73.054688 130.09375 73.917969 C 130.09375 74.785156 130.09375 75.648438 129.949219 76.441406 L 135.789062 80.410156 C 136.511719 80.914062 136.726562 81.851562 136.292969 82.570312 L 131.96875 90.144531 C 131.535156 90.867188 130.597656 91.152344 129.804688 90.792969 L 123.457031 87.691406 C 122.089844 88.773438 120.644531 89.640625 119.058594 90.289062 L 118.554688 97.355469 C 118.480469 98.222656 117.761719 98.871094 116.894531 98.871094 Z M 112.570312 67.644531 C 109.105469 67.644531 106.292969 70.457031 106.292969 73.917969 C 106.292969 77.378906 109.105469 80.191406 112.570312 80.191406 C 114.226562 80.191406 115.8125 79.542969 116.96875 78.390625 C 118.195312 77.164062 118.84375 75.648438 118.84375 73.917969 C 118.84375 70.457031 116.03125 67.644531 112.570312 67.644531 Z M 112.570312 67.644531 " fill-opacity="1" fill-rule="evenodd"/></g><path fill="#ffffff" d="M 91.726562 135 C 91.511719 135 91.292969 135 91.152344 134.855469 C 90.5 134.640625 90.140625 134.0625 90.140625 133.339844 L 90.140625 129.664062 C 88.195312 129.734375 86.175781 129.808594 84.15625 129.808594 C 71.679688 129.808594 55.164062 127.933594 47.59375 119.207031 C 44.277344 115.457031 43.050781 110.769531 43.84375 105.214844 C 43.914062 104.566406 44.417969 103.992188 45.140625 103.847656 C 45.789062 103.703125 46.511719 104.0625 46.871094 104.640625 C 52.640625 114.304688 71.175781 115.816406 81.777344 115.816406 C 85.453125 115.816406 88.410156 115.601562 90.140625 115.457031 L 90.140625 111.5625 C 90.140625 110.839844 90.5 110.265625 91.152344 110.046875 C 91.726562 109.757812 92.449219 109.902344 92.882812 110.335938 L 103.84375 121.296875 C 104.492188 121.945312 104.492188 122.957031 103.84375 123.605469 L 92.882812 134.496094 C 92.59375 134.855469 92.160156 135 91.726562 135 Z M 91.726562 126.273438 C 92.664062 126.273438 93.386719 126.996094 93.386719 127.933594 L 93.386719 129.445312 L 100.382812 122.453125 L 93.386719 115.457031 L 93.386719 116.972656 C 93.386719 117.835938 92.738281 118.558594 91.945312 118.628906 C 91.726562 118.628906 87.617188 119.0625 81.777344 119.0625 C 69.730469 119.0625 54.730469 117.402344 46.945312 109.902344 C 47.230469 112.644531 48.242188 115.023438 50.042969 117.117188 C 57.183594 125.335938 74.492188 126.5625 84.15625 126.5625 C 86.679688 126.5625 89.132812 126.417969 91.4375 126.273438 C 91.582031 126.273438 91.726562 126.273438 91.726562 126.273438 Z M 91.726562 126.273438 " fill-opacity="1" fill-rule="evenodd"/><g clip-path="url(#c4534fae1c)"><path fill="#ffffff" d="M 104.5625 46.152344 C 103.988281 46.152344 103.410156 45.867188 103.121094 45.359375 C 97.351562 35.695312 78.820312 34.183594 68.21875 34.183594 C 64.539062 34.183594 61.582031 34.398438 59.851562 34.542969 L 59.851562 38.4375 C 59.851562 39.160156 59.492188 39.734375 58.84375 39.953125 C 58.265625 40.242188 57.542969 40.097656 57.113281 39.664062 L 46.152344 28.703125 C 45.863281 28.414062 45.71875 27.980469 45.71875 27.546875 C 45.71875 27.117188 45.863281 26.683594 46.152344 26.394531 L 57.113281 15.503906 C 57.542969 15 58.265625 14.855469 58.84375 15.144531 C 59.492188 15.359375 59.851562 15.9375 59.851562 16.660156 L 59.851562 20.335938 C 61.800781 20.265625 63.820312 20.191406 65.839844 20.191406 C 78.3125 20.191406 94.828125 22.066406 102.402344 30.792969 C 105.71875 34.542969 106.945312 39.230469 106.152344 44.785156 C 106.078125 45.433594 105.574219 46.007812 104.851562 46.152344 C 104.78125 46.152344 104.636719 46.152344 104.5625 46.152344 Z M 68.21875 30.9375 C 80.261719 30.9375 95.261719 32.597656 103.050781 40.097656 C 102.761719 37.355469 101.75 34.976562 99.949219 32.957031 C 92.808594 24.734375 75.5 23.4375 65.839844 23.4375 C 63.3125 23.4375 60.863281 23.582031 58.554688 23.726562 C 58.339844 23.726562 58.265625 23.726562 58.265625 23.726562 C 57.832031 23.726562 57.402344 23.582031 57.113281 23.222656 C 56.75 22.933594 56.605469 22.5 56.605469 22.066406 L 56.605469 20.554688 L 49.613281 27.546875 L 56.605469 34.542969 L 56.605469 33.027344 C 56.605469 32.164062 57.257812 31.441406 58.050781 31.371094 C 58.265625 31.371094 62.375 30.9375 68.21875 30.9375 Z M 68.21875 30.9375 " fill-opacity="1" fill-rule="evenodd"/></g></svg>