<svg xmlns="http://www.w3.org/2000/svg" xmlns:xlink="http://www.w3.org/1999/xlink" width="200" zoomAndPan="magnify" viewBox="0 0 150 149.999998" height="200" preserveAspectRatio="xMidYMid meet" version="1.0"><defs><clipPath id="7cf60c36fd"><path d="M 18.320312 18.320312 L 131.570312 18.320312 L 131.570312 131.570312 L 18.320312 131.570312 Z M 18.320312 18.320312 " clip-rule="nonzero"/></clipPath></defs><g clip-path="url(#7cf60c36fd)"><path fill="#ffffff" d="M 80.15625 99.839844 C 80.664062 96.894531 80.664062 93.878906 80.15625 90.933594 C 78.503906 90.488281 76.707031 90.140625 75.019531 89.761719 C 74.5625 88.089844 73.898438 86.464844 73.023438 84.929688 C 73.9375 83.472656 74.96875 81.953125 75.824219 80.476562 C 74.101562 78.027344 71.972656 75.898438 69.523438 74.175781 C 68.039062 75.035156 66.523438 76.054688 65.066406 76.976562 C 63.527344 76.101562 61.90625 75.433594 60.234375 74.976562 C 59.855469 73.300781 59.511719 71.496094 59.066406 69.84375 C 56.121094 69.335938 53.105469 69.328125 50.15625 69.84375 C 49.714844 71.496094 49.367188 73.292969 48.988281 74.976562 C 47.316406 75.433594 45.691406 76.101562 44.15625 76.976562 C 42.691406 76.054688 41.179688 75.03125 39.703125 74.175781 C 37.253906 75.898438 35.125 78.027344 33.398438 80.476562 C 34.253906 81.960938 35.28125 83.472656 36.203125 84.929688 C 35.328125 86.464844 34.660156 88.089844 34.203125 89.761719 C 32.523438 90.140625 30.714844 90.488281 29.0625 90.933594 C 28.554688 93.878906 28.554688 96.894531 29.0625 99.839844 C 30.722656 100.285156 32.519531 100.632812 34.203125 101.011719 C 34.660156 102.683594 35.328125 104.308594 36.203125 105.84375 C 35.28125 107.300781 34.253906 108.820312 33.398438 110.296875 C 35.125 112.746094 37.253906 114.875 39.703125 116.597656 C 41.175781 115.742188 42.691406 114.71875 44.15625 113.796875 C 45.691406 114.671875 47.316406 115.339844 48.988281 115.796875 C 49.367188 117.480469 49.714844 119.285156 50.15625 120.9375 C 53.105469 121.445312 56.121094 121.445312 59.066406 120.9375 C 59.511719 119.277344 59.855469 117.480469 60.234375 115.796875 C 61.90625 115.339844 63.527344 114.671875 65.066406 113.796875 C 66.523438 114.71875 68.039062 115.742188 69.523438 116.597656 C 71.964844 114.875 74.101562 112.746094 75.824219 110.296875 C 74.960938 108.820312 73.945312 107.304688 73.023438 105.84375 C 73.898438 104.308594 74.5625 102.683594 75.019531 101.011719 C 76.699219 100.632812 78.503906 100.285156 80.15625 99.839844 Z M 54.617188 106.445312 C 48.511719 106.445312 43.554688 101.488281 43.554688 95.378906 C 43.554688 89.273438 48.511719 84.308594 54.617188 84.308594 C 60.726562 84.308594 65.6875 89.265625 65.6875 95.378906 C 65.6875 101.492188 60.730469 106.445312 54.617188 106.445312 Z M 25.261719 111.609375 C 25.632812 112.277344 25.394531 113.117188 24.726562 113.484375 C 24.058594 113.855469 23.222656 113.613281 22.851562 112.949219 C 18.984375 105.96875 17.59375 97.980469 18.683594 90.28125 C 21.167969 72.664062 36.058594 59.480469 53.820312 59.09375 C 61.945312 58.910156 70.125 61.445312 76.871094 66.695312 L 76.484375 65.175781 C 76.296875 64.4375 76.746094 63.683594 77.484375 63.496094 C 78.222656 63.3125 78.972656 63.757812 79.164062 64.496094 L 80.652344 70.347656 C 80.878906 71.261719 80.15625 72.203125 79.078125 72.050781 L 73.167969 71.40625 C 72.410156 71.328125 71.859375 70.648438 71.9375 69.890625 C 72.015625 69.132812 72.695312 68.582031 73.453125 68.660156 L 75.144531 68.84375 C 61.902344 58.570312 42.914062 59.65625 30.910156 71.667969 C 25.5625 77.015625 22.394531 83.714844 21.414062 90.660156 C 20.410156 97.785156 21.691406 105.164062 25.261719 111.609375 Z M 84.191406 116.429688 C 72.179688 133.285156 48.570312 136.65625 32.375 124.058594 L 32.757812 125.578125 C 32.949219 126.316406 32.5 127.070312 31.761719 127.257812 C 31.023438 127.449219 30.269531 126.996094 30.082031 126.257812 L 28.59375 120.40625 C 28.359375 119.5 29.089844 118.550781 30.167969 118.703125 L 36.078125 119.347656 C 36.835938 119.425781 37.382812 120.105469 37.304688 120.863281 C 37.226562 121.621094 36.539062 122.171875 35.789062 122.09375 L 34.097656 121.910156 C 49.09375 133.535156 70.855469 130.375 81.945312 114.828125 C 82.386719 114.210938 83.25 114.066406 83.871094 114.507812 C 84.492188 114.945312 84.636719 115.808594 84.191406 116.429688 Z M 123.140625 49.742188 C 123.527344 47.496094 123.527344 45.195312 123.140625 42.949219 C 121.875 42.609375 120.503906 42.347656 119.222656 42.054688 C 118.871094 40.78125 118.359375 39.539062 117.695312 38.371094 C 118.398438 37.253906 119.175781 36.097656 119.828125 34.96875 C 118.515625 33.109375 116.890625 31.480469 115.03125 30.167969 C 113.898438 30.820312 112.746094 31.597656 111.628906 32.304688 C 110.457031 31.636719 109.21875 31.128906 107.945312 30.777344 C 107.648438 29.496094 107.386719 28.117188 107.050781 26.855469 C 104.800781 26.472656 102.503906 26.472656 100.257812 26.855469 C 99.917969 28.117188 99.65625 29.496094 99.363281 30.777344 C 98.089844 31.128906 96.847656 31.632812 95.679688 32.304688 C 94.5625 31.597656 93.40625 30.820312 92.277344 30.167969 C 90.414062 31.480469 88.78125 33.109375 87.46875 34.96875 C 88.128906 36.097656 88.90625 37.253906 89.613281 38.371094 C 88.9375 39.539062 88.4375 40.78125 88.082031 42.054688 C 86.804688 42.347656 85.425781 42.609375 84.164062 42.949219 C 83.78125 45.195312 83.78125 47.496094 84.164062 49.742188 C 85.425781 50.082031 86.804688 50.34375 88.082031 50.636719 C 88.4375 51.910156 88.9375 53.152344 89.613281 54.320312 C 88.90625 55.4375 88.121094 56.59375 87.46875 57.722656 C 88.78125 59.585938 90.414062 61.210938 92.277344 62.53125 C 93.40625 61.871094 94.5625 61.09375 95.679688 60.386719 C 96.847656 61.058594 98.089844 61.5625 99.363281 61.914062 C 99.65625 63.195312 99.917969 64.574219 100.257812 65.835938 C 102.503906 66.21875 104.800781 66.21875 107.050781 65.835938 C 107.390625 64.566406 107.648438 63.195312 107.945312 61.914062 C 109.21875 61.5625 110.457031 61.058594 111.628906 60.386719 C 112.742188 61.09375 113.898438 61.871094 115.03125 62.53125 C 116.890625 61.210938 118.515625 59.585938 119.828125 57.722656 C 119.175781 56.59375 118.398438 55.4375 117.695312 54.320312 C 118.359375 53.152344 118.871094 51.910156 119.222656 50.636719 C 120.503906 50.34375 121.878906 50.082031 123.140625 49.742188 Z M 103.660156 54.777344 C 98.996094 54.777344 95.222656 51.003906 95.222656 46.339844 C 95.222656 41.675781 98.996094 37.894531 103.660156 37.894531 C 108.324219 37.894531 112.097656 41.675781 112.097656 46.339844 C 112.097656 51.003906 108.324219 54.777344 103.660156 54.777344 Z M 103.046875 18.335938 C 110.039062 18.179688 117.074219 20.628906 122.585938 25.683594 C 123.148438 26.199219 123.179688 27.074219 122.664062 27.628906 C 122.148438 28.191406 121.28125 28.230469 120.71875 27.714844 C 110.796875 18.601562 95.382812 18.894531 85.804688 28.484375 C 81.773438 32.511719 79.390625 37.554688 78.652344 42.785156 C 77.894531 48.148438 78.859375 53.707031 81.550781 58.566406 C 81.917969 59.230469 81.683594 60.066406 81.015625 60.441406 C 80.351562 60.804688 79.515625 60.570312 79.140625 59.902344 C 76.15625 54.507812 75.078125 48.34375 75.921875 42.40625 C 77.84375 28.808594 89.332031 18.636719 103.046875 18.335938 Z M 128.175781 32.773438 C 131.160156 38.167969 132.238281 44.328125 131.394531 50.269531 C 129.457031 64.003906 117.757812 74.234375 103.902344 74.351562 C 98.050781 74.402344 92.183594 72.625 87.234375 69.035156 L 87.300781 69.296875 C 87.488281 70.035156 87.046875 70.785156 86.300781 70.972656 C 85.5625 71.164062 84.8125 70.710938 84.621094 69.976562 L 83.484375 65.515625 C 83.257812 64.601562 83.988281 63.660156 85.058594 63.808594 L 89.554688 64.300781 C 91.324219 64.488281 91.140625 67.246094 89.175781 67.03125 C 99.109375 74.003906 112.777344 72.933594 121.515625 64.195312 C 125.546875 60.164062 127.929688 55.125 128.667969 49.890625 C 129.425781 44.53125 128.457031 38.964844 125.765625 34.113281 C 125.402344 33.449219 125.636719 32.613281 126.300781 32.238281 C 126.96875 31.867188 127.804688 32.109375 128.175781 32.773438 Z M 107.761719 78.777344 C 95.644531 78.777344 85.824219 88.59375 85.824219 100.710938 C 85.824219 112.824219 95.644531 122.640625 107.761719 122.640625 C 119.875 122.640625 129.691406 112.824219 129.691406 100.710938 C 129.691406 88.59375 119.871094 78.777344 107.761719 78.777344 Z M 107.761719 116.332031 C 99.128906 116.332031 92.140625 109.335938 92.140625 100.710938 C 92.140625 92.082031 99.128906 85.085938 107.761719 85.085938 C 116.394531 85.085938 123.375 92.082031 123.375 100.710938 C 123.375 109.335938 116.386719 116.332031 107.761719 116.332031 Z M 113.917969 106.867188 C 113.378906 107.410156 112.503906 107.410156 111.960938 106.867188 L 108.335938 103.238281 C 105.675781 103.757812 104.253906 100.238281 106.472656 98.75 L 106.472656 93.617188 C 106.472656 92.851562 107.09375 92.230469 107.859375 92.230469 C 108.617188 92.230469 109.238281 92.851562 109.238281 93.617188 L 109.238281 98.75 C 110.054688 99.296875 110.484375 100.285156 110.289062 101.285156 L 113.917969 104.914062 C 114.457031 105.449219 114.457031 106.324219 113.917969 106.867188 Z M 98.75 100.808594 C 98.75 101.570312 98.132812 102.191406 97.371094 102.191406 L 97.121094 102.191406 C 96.359375 102.191406 95.742188 101.570312 95.742188 100.808594 C 95.742188 98.960938 98.75 98.960938 98.75 100.808594 Z M 101.414062 94.367188 C 100.871094 94.902344 100.003906 94.902344 99.460938 94.363281 L 99.289062 94.191406 C 98.753906 93.648438 98.753906 92.78125 99.296875 92.238281 C 100.601562 90.9375 102.71875 93.066406 101.414062 94.367188 Z M 106.472656 90.320312 L 106.472656 90.078125 C 106.472656 89.3125 107.09375 88.691406 107.859375 88.691406 C 109.707031 88.691406 109.707031 91.703125 107.859375 91.703125 C 107.09375 91.703125 106.472656 91.082031 106.472656 90.320312 Z M 118.589844 99.421875 C 119.351562 99.421875 119.972656 100.042969 119.972656 100.808594 C 119.972656 102.65625 116.964844 102.65625 116.964844 100.808594 C 116.964844 100.042969 117.578125 99.421875 118.339844 99.421875 Z M 101.414062 107.246094 C 101.953125 107.78125 101.953125 108.65625 101.417969 109.191406 L 101.242188 109.371094 C 100.707031 109.90625 99.832031 109.910156 99.296875 109.375 C 97.984375 108.070312 100.105469 105.945312 101.414062 107.246094 Z M 109.238281 111.296875 L 109.238281 111.539062 C 109.238281 112.300781 108.617188 112.921875 107.859375 112.921875 C 106.003906 112.921875 106.003906 109.910156 107.859375 109.910156 C 108.617188 109.910156 109.238281 110.53125 109.238281 111.296875 Z M 116.414062 92.238281 C 117.726562 93.546875 115.605469 95.667969 114.296875 94.367188 C 113.761719 93.832031 113.757812 92.957031 114.292969 92.421875 L 114.46875 92.246094 C 115.003906 91.710938 115.878906 91.703125 116.414062 92.238281 Z M 116.421875 107.421875 C 116.957031 107.964844 116.957031 108.835938 116.414062 109.375 C 115.109375 110.675781 112.992188 108.546875 114.296875 107.246094 C 114.839844 106.710938 115.710938 106.710938 116.25 107.253906 Z M 116.421875 107.421875 " fill-opacity="1" fill-rule="evenodd"/></g></svg>