<svg xmlns="http://www.w3.org/2000/svg" xmlns:xlink="http://www.w3.org/1999/xlink" width="200" zoomAndPan="magnify" viewBox="0 0 150 149.999998" height="200" preserveAspectRatio="xMidYMid meet" version="1.0"><defs><clipPath id="7ad5faded2"><path d="M 22.023438 22.023438 L 127.773438 22.023438 L 127.773438 127.773438 L 22.023438 127.773438 Z M 22.023438 22.023438 " clip-rule="nonzero"/></clipPath></defs><g clip-path="url(#7ad5faded2)"><path fill="#ffffff" d="M 68.832031 49.191406 L 75.109375 49.191406 C 77.832031 49.191406 80.050781 46.972656 80.050781 44.25 L 80.050781 37.972656 C 80.050781 35.25 77.832031 33.03125 75.109375 33.03125 L 68.832031 33.03125 C 66.105469 33.03125 63.890625 35.25 63.890625 37.972656 L 63.890625 44.25 C 63.890625 46.972656 66.105469 49.191406 68.832031 49.191406 Z M 67.203125 37.972656 C 67.203125 37.074219 67.933594 36.34375 68.832031 36.34375 L 75.109375 36.34375 C 76.007812 36.34375 76.734375 37.074219 76.734375 37.972656 L 76.734375 44.25 C 76.734375 45.148438 76.007812 45.878906 75.109375 45.878906 L 68.832031 45.878906 C 67.933594 45.878906 67.203125 45.148438 67.203125 44.25 Z M 68.832031 74.828125 L 75.109375 74.828125 C 77.832031 74.828125 80.050781 72.609375 80.050781 69.882812 L 80.050781 63.613281 C 80.050781 60.882812 77.832031 58.664062 75.109375 58.664062 L 68.832031 58.664062 C 66.105469 58.664062 63.890625 60.882812 63.890625 63.613281 L 63.890625 69.882812 C 63.890625 72.609375 66.105469 74.828125 68.832031 74.828125 Z M 67.203125 63.613281 C 67.203125 62.726562 67.949219 61.976562 68.832031 61.976562 L 75.109375 61.976562 C 75.992188 61.976562 76.734375 62.726562 76.734375 63.613281 L 76.734375 69.882812 C 76.734375 70.78125 76.007812 71.515625 75.109375 71.515625 L 68.832031 71.515625 C 67.933594 71.515625 67.203125 70.78125 67.203125 69.882812 Z M 84.617188 62.902344 C 84.617188 61.988281 85.359375 61.246094 86.277344 61.246094 L 119.050781 61.246094 C 119.96875 61.246094 120.710938 61.988281 120.710938 62.902344 C 120.710938 63.816406 119.96875 64.558594 119.050781 64.558594 L 86.277344 64.558594 C 85.359375 64.558594 84.617188 63.816406 84.617188 62.902344 Z M 84.617188 70.597656 C 84.617188 69.683594 85.359375 68.941406 86.277344 68.941406 L 104.546875 68.941406 C 105.460938 68.941406 106.203125 69.683594 106.203125 70.597656 C 106.203125 71.511719 105.460938 72.253906 104.546875 72.253906 L 86.277344 72.253906 C 85.359375 72.253906 84.617188 71.511719 84.617188 70.597656 Z M 84.617188 88.535156 C 84.617188 87.617188 85.359375 86.878906 86.277344 86.878906 L 119.050781 86.878906 C 119.96875 86.878906 120.710938 87.617188 120.710938 88.535156 C 120.710938 89.449219 119.96875 90.191406 119.050781 90.191406 L 86.277344 90.191406 C 85.359375 90.191406 84.617188 89.449219 84.617188 88.535156 Z M 84.617188 96.234375 C 84.617188 95.320312 85.359375 94.578125 86.277344 94.578125 L 104.546875 94.578125 C 105.460938 94.578125 106.203125 95.320312 106.203125 96.234375 C 106.203125 97.152344 105.460938 97.890625 104.546875 97.890625 L 86.277344 97.890625 C 85.359375 97.890625 84.617188 97.152344 84.617188 96.234375 Z M 84.617188 37.261719 C 84.617188 36.347656 85.359375 35.605469 86.277344 35.605469 L 97.15625 35.605469 C 98.070312 35.605469 98.8125 36.347656 98.8125 37.261719 C 98.8125 38.179688 98.070312 38.921875 97.15625 38.921875 L 86.277344 38.921875 C 85.359375 38.921875 84.617188 38.179688 84.617188 37.261719 Z M 84.617188 44.960938 C 84.617188 44.042969 85.359375 43.300781 86.277344 43.300781 L 97.15625 43.300781 C 98.070312 43.300781 98.8125 44.042969 98.8125 44.960938 C 98.8125 45.875 98.070312 46.617188 97.15625 46.617188 L 86.277344 46.617188 C 85.359375 46.617188 84.617188 45.875 84.617188 44.960938 Z M 53.71875 72.542969 L 52.671875 73.53125 C 51.648438 74.488281 51.0625 75.789062 51.015625 77.195312 C 50.992188 77.996094 51.144531 78.773438 51.457031 79.484375 L 37.09375 92.949219 C 36.402344 92.589844 35.632812 92.382812 34.828125 92.355469 C 33.425781 92.308594 32.089844 92.8125 31.070312 93.769531 L 30.023438 94.75 C 28.484375 96.179688 28.402344 98.597656 29.84375 100.144531 L 43.46875 114.683594 C 44.21875 115.484375 45.234375 115.886719 46.253906 115.886719 C 47.1875 115.886719 48.125 115.546875 48.859375 114.863281 L 49.910156 113.878906 C 51.578125 112.316406 51.992188 109.910156 51.117188 107.925781 L 54.613281 104.648438 C 60.332031 111.3125 66.050781 117.976562 71.761719 124.640625 C 73.167969 126.289062 74.847656 127.347656 76.753906 127.789062 C 77.285156 127.910156 77.804688 127.972656 78.3125 127.972656 C 79.761719 127.972656 81.082031 127.480469 82.074219 126.550781 C 83.414062 125.292969 83.988281 123.390625 83.648438 121.328125 C 83.335938 119.410156 82.390625 117.664062 80.835938 116.144531 L 76.359375 111.773438 L 126.316406 111.773438 C 127.230469 111.773438 127.972656 111.03125 127.972656 110.113281 L 127.972656 46.484375 C 127.972656 46.042969 127.796875 45.625 127.484375 45.3125 L 104.6875 22.507812 C 104.375 22.195312 103.953125 22.023438 103.515625 22.023438 L 58.285156 22.023438 C 57.371094 22.023438 56.628906 22.761719 56.628906 23.679688 L 56.628906 71.53125 C 56.570312 71.527344 56.511719 71.519531 56.453125 71.519531 C 55.433594 71.484375 54.460938 71.847656 53.71875 72.542969 Z M 54.9375 75.949219 L 54.9375 75.945312 L 55.988281 74.960938 C 56.109375 74.847656 56.246094 74.828125 56.328125 74.828125 C 56.332031 74.828125 56.339844 74.828125 56.34375 74.828125 C 56.421875 74.832031 56.566406 74.855469 56.6875 74.984375 L 70.320312 89.53125 C 70.441406 89.660156 70.453125 89.808594 70.449219 89.886719 C 70.449219 89.964844 70.425781 90.113281 70.296875 90.234375 L 69.25 91.21875 C 68.46875 91.949219 67.242188 91.90625 66.507812 91.125 L 54.84375 78.675781 C 54.496094 78.304688 54.3125 77.816406 54.328125 77.296875 C 54.34375 76.777344 54.5625 76.296875 54.933594 75.949219 Z M 58.761719 96.222656 C 58.621094 96.300781 58.496094 96.398438 58.378906 96.515625 C 58.296875 96.597656 58.230469 96.683594 58.167969 96.777344 L 53.683594 100.980469 C 53.675781 100.988281 53.667969 100.992188 53.664062 100.996094 C 53.617188 101.035156 53.574219 101.078125 53.535156 101.121094 L 49.070312 105.304688 L 39.570312 95.167969 L 53.511719 82.101562 L 63.011719 92.242188 L 58.757812 96.226562 Z M 67.203125 95 C 67.445312 95.035156 67.683594 95.050781 67.925781 95.050781 C 69.210938 95.050781 70.503906 94.582031 71.515625 93.636719 L 72.566406 92.652344 C 73.304688 91.957031 73.730469 91.015625 73.761719 89.996094 C 73.792969 89.128906 73.53125 88.300781 73.027344 87.617188 L 75.109375 87.617188 C 76.007812 87.617188 76.734375 88.347656 76.734375 89.25 L 76.734375 95.519531 C 76.734375 96.40625 75.992188 97.152344 75.109375 97.152344 L 68.832031 97.152344 C 67.949219 97.152344 67.203125 96.40625 67.203125 95.519531 Z M 47.648438 111.460938 L 46.597656 112.4375 C 46.394531 112.628906 46.074219 112.617188 45.886719 112.417969 L 32.265625 97.878906 C 32.078125 97.679688 32.085938 97.355469 32.28125 97.171875 L 33.332031 96.191406 C 33.332031 96.191406 33.335938 96.191406 33.335938 96.1875 C 33.695312 95.851562 34.160156 95.667969 34.65625 95.667969 C 34.675781 95.667969 34.699219 95.667969 34.71875 95.667969 C 35.238281 95.6875 35.71875 95.902344 36.070312 96.277344 L 47.730469 108.722656 C 48.460938 109.503906 48.421875 110.734375 47.648438 111.460938 Z M 80.375 121.863281 C 80.535156 122.832031 80.332031 123.640625 79.808594 124.132812 C 79.277344 124.628906 78.457031 124.78125 77.5 124.558594 C 76.300781 124.28125 75.21875 123.582031 74.277344 122.484375 C 68.535156 115.785156 62.785156 109.082031 57.035156 102.382812 L 59.574219 100 L 71.105469 111.269531 C 71.121094 111.28125 71.132812 111.296875 71.148438 111.308594 L 78.519531 118.511719 C 79.554688 119.527344 80.179688 120.652344 80.375 121.859375 Z M 105.171875 27.679688 L 122.316406 44.828125 L 105.171875 44.828125 Z M 101.859375 25.335938 L 101.859375 46.484375 C 101.859375 47.398438 102.597656 48.140625 103.515625 48.140625 L 124.65625 48.140625 L 124.65625 108.457031 L 72.96875 108.457031 L 61.996094 97.734375 L 63.910156 95.941406 C 64.125 98.472656 66.25 100.46875 68.832031 100.46875 L 75.109375 100.46875 C 77.832031 100.46875 80.050781 98.25 80.050781 95.519531 L 80.050781 89.25 C 80.050781 86.523438 77.832031 84.300781 75.109375 84.300781 L 69.960938 84.300781 L 59.941406 73.609375 L 59.941406 25.335938 Z M 23.679688 127.972656 L 49.210938 127.972656 C 50.125 127.972656 50.867188 127.230469 50.867188 126.3125 L 50.867188 122.953125 C 50.867188 120.191406 48.617188 117.941406 45.851562 117.941406 L 27.039062 117.941406 C 24.273438 117.941406 22.023438 120.1875 22.023438 122.953125 L 22.023438 126.3125 C 22.023438 127.230469 22.765625 127.972656 23.679688 127.972656 Z M 25.335938 122.953125 C 25.335938 122.015625 26.101562 121.253906 27.039062 121.253906 L 45.851562 121.253906 C 46.789062 121.253906 47.554688 122.015625 47.554688 122.953125 L 47.554688 124.65625 L 25.335938 124.65625 Z M 38.0625 79.417969 C 38.179688 79.445312 38.300781 79.457031 38.417969 79.457031 C 38.539062 79.457031 38.660156 79.445312 38.777344 79.417969 C 43.914062 78.28125 47.90625 76.101562 50.632812 72.945312 C 53.40625 69.742188 54.808594 65.617188 54.808594 60.691406 L 54.808594 48.832031 C 54.808594 47.921875 54.078125 47.183594 53.167969 47.171875 C 47.492188 47.121094 42.980469 45.863281 39.371094 43.332031 C 38.800781 42.933594 38.039062 42.933594 37.46875 43.332031 C 33.851562 45.863281 29.335938 47.121094 23.664062 47.171875 C 22.753906 47.183594 22.023438 47.921875 22.023438 48.832031 L 22.023438 60.691406 C 22.023438 65.617188 23.425781 69.742188 26.199219 72.945312 C 28.929688 76.101562 32.921875 78.28125 38.0625 79.417969 Z M 25.335938 50.4375 C 30.492188 50.183594 34.792969 48.945312 38.417969 46.675781 C 42.039062 48.945312 46.339844 50.183594 51.496094 50.4375 L 51.496094 60.691406 C 51.496094 68.882812 47.097656 74.066406 38.417969 76.101562 C 29.738281 74.066406 25.335938 68.882812 25.335938 60.691406 Z M 37.988281 73.851562 C 38.128906 73.890625 38.273438 73.910156 38.417969 73.910156 C 38.5625 73.910156 38.710938 73.890625 38.851562 73.851562 C 46.179688 71.875 49.742188 67.445312 49.742188 60.316406 L 49.742188 53.199219 C 49.742188 52.375 49.132812 51.675781 48.316406 51.558594 C 44.941406 51.085938 41.867188 50.144531 39.175781 48.765625 C 38.699219 48.519531 38.140625 48.519531 37.664062 48.761719 C 34.964844 50.144531 31.886719 51.085938 28.515625 51.558594 C 27.699219 51.675781 27.089844 52.375 27.089844 53.199219 L 27.089844 60.316406 C 27.089844 67.449219 30.65625 71.875 37.988281 73.851562 Z M 30.402344 54.613281 C 33.289062 54.089844 35.976562 53.242188 38.417969 52.085938 C 40.855469 53.242188 43.542969 54.089844 46.429688 54.613281 L 46.429688 60.316406 C 46.429688 65.75 43.953125 68.917969 38.417969 70.53125 C 32.878906 68.917969 30.402344 65.75 30.402344 60.316406 Z M 33.3125 60.871094 C 33.898438 60.167969 34.945312 60.074219 35.644531 60.664062 L 37.097656 61.878906 L 40.976562 57.21875 C 41.5625 56.515625 42.605469 56.421875 43.308594 57.007812 C 44.011719 57.589844 44.109375 58.636719 43.523438 59.339844 L 38.585938 65.277344 C 38.300781 65.613281 37.898438 65.828125 37.460938 65.867188 C 37.410156 65.871094 37.359375 65.871094 37.308594 65.871094 C 36.921875 65.871094 36.546875 65.738281 36.246094 65.488281 L 33.519531 63.207031 C 32.816406 62.617188 32.726562 61.574219 33.3125 60.871094 Z M 33.3125 60.871094 " fill-opacity="1" fill-rule="nonzero"/></g></svg>