<svg xmlns="http://www.w3.org/2000/svg" xmlns:xlink="http://www.w3.org/1999/xlink" width="200" zoomAndPan="magnify" viewBox="0 0 150 149.999998" height="200" preserveAspectRatio="xMidYMid meet" version="1.0"><defs><clipPath id="c57329138d"><path d="M 16.949219 15 L 133.199219 15 L 133.199219 135 L 16.949219 135 Z M 16.949219 15 " clip-rule="nonzero"/></clipPath></defs><g clip-path="url(#c57329138d)"><path fill="#ffffff" d="M 106.667969 68.042969 C 106.363281 67.019531 106.941406 65.941406 107.964844 65.632812 C 108.988281 65.324219 110.066406 65.90625 110.375 66.929688 C 110.480469 67.285156 110.582031 67.644531 110.679688 68.003906 L 116.398438 70.207031 C 117.148438 70.492188 117.640625 71.210938 117.640625 72.011719 L 117.640625 82.882812 C 117.640625 83.683594 117.148438 84.402344 116.398438 84.6875 C 116.398438 84.6875 110.679688 86.890625 110.679688 86.890625 C 109.859375 89.941406 108.640625 92.871094 107.0625 95.613281 L 109.546875 101.226562 C 109.871094 101.957031 109.710938 102.8125 109.148438 103.375 L 101.460938 111.0625 C 100.894531 111.628906 100.042969 111.785156 99.308594 111.464844 C 99.308594 111.464844 93.703125 108.976562 93.703125 108.976562 C 90.964844 110.5625 88.03125 111.777344 84.976562 112.59375 L 82.773438 118.316406 C 82.484375 119.0625 81.769531 119.554688 80.96875 119.554688 L 70.097656 119.554688 C 69.296875 119.554688 68.578125 119.0625 68.292969 118.316406 C 68.292969 118.316406 66.089844 112.59375 66.089844 112.59375 C 63.027344 111.773438 60.097656 110.554688 57.355469 108.976562 L 51.742188 111.464844 C 51.011719 111.785156 50.15625 111.628906 49.589844 111.0625 L 41.90625 103.375 C 41.339844 102.8125 41.179688 101.953125 41.507812 101.222656 C 41.507812 101.222656 44 95.617188 44 95.617188 C 42.417969 92.882812 41.203125 89.945312 40.378906 86.890625 L 34.652344 84.6875 C 33.90625 84.402344 33.414062 83.683594 33.414062 82.882812 L 33.414062 72.011719 C 33.414062 71.210938 33.90625 70.492188 34.652344 70.207031 C 34.652344 70.207031 40.375 68.003906 40.375 68.003906 C 41.203125 64.941406 42.417969 62.011719 44 59.269531 L 41.507812 53.660156 C 41.179688 52.929688 41.339844 52.074219 41.90625 51.507812 L 49.589844 43.820312 C 50.15625 43.253906 51.011719 43.097656 51.746094 43.421875 C 51.746094 43.421875 57.355469 45.914062 57.355469 45.914062 C 60.09375 44.332031 63.027344 43.117188 66.078125 42.300781 L 68.292969 36.566406 C 68.578125 35.820312 69.296875 35.328125 70.097656 35.328125 L 80.96875 35.328125 C 81.769531 35.328125 82.484375 35.820312 82.773438 36.570312 C 82.773438 36.570312 84.976562 42.300781 84.976562 42.300781 C 85.550781 42.453125 86.121094 42.621094 86.6875 42.804688 C 87.703125 43.132812 88.261719 44.222656 87.9375 45.238281 C 87.609375 46.253906 86.519531 46.8125 85.503906 46.488281 C 84.707031 46.230469 83.898438 46.003906 83.082031 45.8125 C 82.460938 45.664062 81.953125 45.21875 81.722656 44.625 L 79.640625 39.195312 C 79.640625 39.195312 71.421875 39.195312 71.421875 39.195312 L 69.328125 44.625 C 69.097656 45.222656 68.589844 45.664062 67.972656 45.8125 C 64.625 46.605469 61.433594 47.929688 58.5 49.738281 C 57.957031 50.070312 57.28125 50.117188 56.699219 49.859375 L 51.386719 47.496094 L 45.582031 53.300781 L 47.941406 58.613281 C 48.203125 59.195312 48.15625 59.871094 47.820312 60.414062 C 46.011719 63.347656 44.691406 66.542969 43.882812 69.902344 C 43.734375 70.519531 43.292969 71.027344 42.699219 71.253906 C 42.699219 71.253906 37.28125 73.339844 37.28125 73.339844 L 37.28125 81.554688 L 42.699219 83.640625 C 43.292969 83.867188 43.734375 84.375 43.882812 84.992188 C 44.691406 88.339844 46.011719 91.542969 47.820312 94.464844 C 48.15625 95.011719 48.203125 95.683594 47.941406 96.269531 L 45.582031 101.582031 L 51.390625 107.390625 L 56.699219 105.035156 C 57.28125 104.777344 57.953125 104.824219 58.496094 105.15625 C 61.429688 106.953125 64.621094 108.285156 67.980469 109.082031 C 68.601562 109.230469 69.109375 109.675781 69.339844 110.269531 C 69.339844 110.269531 71.425781 115.6875 71.425781 115.6875 L 79.640625 115.6875 L 81.722656 110.269531 C 81.953125 109.675781 82.460938 109.230469 83.082031 109.082031 C 86.429688 108.289062 89.628906 106.964844 92.550781 105.160156 C 93.09375 104.824219 93.769531 104.777344 94.351562 105.035156 L 99.664062 107.390625 L 105.472656 101.578125 L 103.121094 96.265625 C 102.863281 95.6875 102.90625 95.015625 103.238281 94.472656 C 105.039062 91.539062 106.371094 88.347656 107.167969 84.996094 C 107.316406 84.375 107.757812 83.867188 108.355469 83.640625 C 108.355469 83.640625 113.773438 81.554688 113.773438 81.554688 L 113.773438 73.339844 L 108.355469 71.253906 C 107.757812 71.027344 107.3125 70.515625 107.167969 69.894531 C 107.019531 69.273438 106.851562 68.652344 106.667969 68.042969 Z M 75.527344 102.554688 C 61.699219 102.554688 50.414062 91.269531 50.414062 77.441406 C 50.414062 63.613281 61.699219 52.328125 75.527344 52.328125 C 89.355469 52.328125 100.640625 63.613281 100.640625 77.441406 C 100.640625 91.269531 89.355469 102.554688 75.527344 102.554688 Z M 75.527344 98.6875 C 87.226562 98.6875 96.769531 89.140625 96.769531 77.441406 C 96.769531 65.742188 87.226562 56.195312 75.527344 56.195312 C 63.828125 56.195312 54.28125 65.742188 54.28125 77.441406 C 54.28125 89.140625 63.828125 98.6875 75.527344 98.6875 Z M 73.59375 64.3125 L 73.59375 62.773438 C 73.59375 61.703125 74.457031 60.835938 75.527344 60.835938 C 76.59375 60.835938 77.460938 61.703125 77.460938 62.773438 L 77.460938 64.292969 C 80.230469 64.8125 82.820312 66.523438 84.132812 69.648438 C 84.546875 70.632812 84.082031 71.765625 83.097656 72.179688 C 82.117188 72.59375 80.980469 72.132812 80.566406 71.148438 C 79.269531 68.066406 75.824219 67.425781 73.34375 68.402344 C 71.878906 68.976562 70.714844 70.171875 70.796875 71.894531 C 70.863281 73.257812 71.734375 74.042969 72.785156 74.554688 C 73.730469 75.019531 74.828125 75.28125 75.859375 75.453125 C 79.851562 76.105469 84.265625 77.886719 84.84375 82.632812 L 84.84375 82.636719 C 85.414062 87.347656 81.476562 89.992188 77.460938 90.621094 L 77.460938 92.113281 C 77.460938 93.179688 76.59375 94.046875 75.527344 94.046875 C 74.457031 94.046875 73.59375 93.179688 73.59375 92.113281 L 73.59375 90.589844 C 70.140625 89.984375 67.121094 87.789062 66.214844 84.144531 C 65.957031 83.109375 66.589844 82.058594 67.625 81.800781 C 68.660156 81.542969 69.710938 82.171875 69.96875 83.210938 C 70.617188 85.816406 73.238281 86.957031 75.78125 86.894531 C 77.136719 86.863281 78.640625 86.523438 79.75 85.757812 C 80.585938 85.179688 81.148438 84.3125 81.003906 83.101562 C 80.816406 81.582031 79.792969 80.738281 78.59375 80.191406 C 77.542969 79.714844 76.351562 79.453125 75.238281 79.269531 L 75.234375 79.269531 C 71.34375 78.628906 67.160156 76.710938 66.933594 72.082031 C 66.761719 68.5625 68.929688 65.980469 71.925781 64.800781 C 72.460938 64.589844 73.019531 64.429688 73.59375 64.3125 Z M 79.464844 23.929688 L 80.859375 25.816406 C 81.492188 26.675781 81.308594 27.886719 80.453125 28.519531 C 79.59375 29.15625 78.378906 28.972656 77.746094 28.113281 L 73.972656 23.003906 C 73.441406 22.285156 73.46875 21.300781 74.042969 20.613281 L 78.113281 15.734375 C 78.796875 14.917969 80.019531 14.804688 80.835938 15.492188 C 81.65625 16.175781 81.765625 17.394531 81.082031 18.214844 L 79.542969 20.058594 C 84.730469 20.417969 89.726562 21.464844 94.445312 23.109375 C 95.453125 23.460938 95.984375 24.5625 95.632812 25.570312 C 95.28125 26.578125 94.179688 27.113281 93.171875 26.761719 C 88.828125 25.246094 84.234375 24.277344 79.464844 23.929688 Z M 25.265625 96.234375 L 26.472656 94.128906 C 27.003906 93.203125 28.1875 92.882812 29.113281 93.414062 C 30.039062 93.945312 30.359375 95.125 29.828125 96.050781 L 26.667969 101.566406 C 26.226562 102.339844 25.308594 102.710938 24.453125 102.460938 L 18.347656 100.695312 C 17.324219 100.402344 16.730469 99.328125 17.027344 98.300781 C 17.324219 97.277344 18.398438 96.683594 19.421875 96.980469 L 21.65625 97.625 C 19.296875 91.34375 18.007812 84.539062 18.007812 77.4375 C 18.007812 52.882812 33.429688 31.898438 55.109375 23.65625 C 56.109375 23.273438 57.226562 23.777344 57.605469 24.773438 C 57.984375 25.773438 57.484375 26.890625 56.484375 27.269531 C 36.261719 34.960938 21.875 54.53125 21.875 77.4375 C 21.875 84.050781 23.074219 90.386719 25.265625 96.234375 Z M 121.234375 112.34375 C 110.722656 126.085938 94.152344 134.957031 75.527344 134.957031 C 57.566406 134.957031 41.515625 126.707031 30.964844 113.792969 C 30.289062 112.96875 30.410156 111.746094 31.238281 111.070312 C 32.066406 110.398438 33.285156 110.519531 33.960938 111.347656 C 43.800781 123.394531 58.773438 131.089844 75.527344 131.089844 C 92.972656 131.089844 108.484375 122.746094 118.285156 109.832031 L 115.738281 109.875 C 114.667969 109.890625 113.789062 109.039062 113.773438 107.972656 C 113.753906 106.90625 114.605469 106.023438 115.675781 106.007812 L 122.027344 105.90625 C 122.917969 105.890625 123.707031 106.488281 123.929688 107.351562 L 125.535156 113.5 C 125.804688 114.53125 125.183594 115.589844 124.152344 115.859375 C 123.121094 116.128906 122.0625 115.507812 121.792969 114.476562 Z M 126.527344 60.746094 C 126.195312 59.730469 126.746094 58.636719 127.761719 58.304688 C 128.777344 57.972656 129.871094 58.527344 130.203125 59.542969 C 132.046875 65.175781 133.046875 71.191406 133.046875 77.4375 C 133.046875 82.960938 132.265625 88.296875 130.8125 93.351562 C 130.515625 94.378906 129.445312 94.972656 128.417969 94.675781 C 127.394531 94.382812 126.800781 93.308594 127.09375 92.28125 C 128.449219 87.570312 129.175781 82.589844 129.175781 77.4375 C 129.175781 71.613281 128.246094 66 126.527344 60.746094 Z M 110.726562 63.472656 C 99.390625 63.472656 90.144531 54.230469 90.144531 42.894531 C 90.144531 31.558594 99.390625 22.308594 110.726562 22.308594 C 122.0625 22.308594 131.304688 31.558594 131.304688 42.894531 C 131.304688 54.230469 122.0625 63.472656 110.726562 63.472656 Z M 110.726562 59.605469 C 119.933594 59.605469 127.4375 52.097656 127.4375 42.894531 C 127.4375 33.6875 119.933594 26.179688 110.726562 26.179688 C 101.519531 26.179688 94.011719 33.6875 94.011719 42.894531 C 94.011719 52.097656 101.519531 59.605469 110.726562 59.605469 Z M 100.640625 44.28125 C 99.886719 43.527344 99.890625 42.300781 100.644531 41.546875 C 101.398438 40.792969 102.625 40.792969 103.378906 41.550781 C 103.378906 41.550781 107.65625 45.835938 107.65625 45.835938 L 116.742188 37.585938 C 117.53125 36.871094 118.757812 36.929688 119.476562 37.71875 C 120.191406 38.511719 120.132812 39.734375 119.34375 40.453125 L 108.890625 49.9375 C 108.128906 50.632812 106.953125 50.601562 106.222656 49.871094 Z M 100.640625 44.28125 " fill-opacity="1" fill-rule="evenodd"/></g></svg>