<svg xmlns="http://www.w3.org/2000/svg" xmlns:xlink="http://www.w3.org/1999/xlink" width="200" zoomAndPan="magnify" viewBox="0 0 150 149.999998" height="200" preserveAspectRatio="xMidYMid meet" version="1.0"><defs><clipPath id="012eb0c16a"><path d="M 15 28.5 L 135 28.5 L 135 121.5 L 15 121.5 Z M 15 28.5 " clip-rule="nonzero"/></clipPath></defs><g clip-path="url(#012eb0c16a)"><path fill="#ffffff" d="M 128.921875 67.453125 C 125.824219 59.953125 117.042969 55.367188 107.785156 56.351562 C 99.246094 41.214844 79.902344 34.015625 63.578125 39.972656 L 66.390625 35.824219 C 66.816406 35.230469 66.457031 34.324219 65.742188 34.191406 L 39.925781 28.53125 C 39.128906 28.320312 38.378906 29.203125 38.707031 29.957031 L 40.796875 35.210938 C 28.636719 40.480469 14.660156 52.558594 15.027344 66.671875 C 15.628906 81.960938 28.921875 94.363281 44.171875 94.140625 C 52.945312 108.972656 72.328125 115.832031 88.445312 109.679688 L 85.398438 114.175781 C 84.976562 114.765625 85.335938 115.671875 86.050781 115.804688 L 111.863281 121.46875 C 112.660156 121.667969 113.410156 120.796875 113.082031 120.035156 L 111.292969 115.558594 C 134.714844 108.558594 141.121094 83.738281 128.921875 67.453125 Z M 126.972656 68.28125 C 127.6875 72.253906 127.570312 76.433594 126.46875 80.332031 C 125.097656 77.039062 122.734375 74.113281 119.613281 72.320312 C 117.445312 71.082031 114.976562 70.453125 112.492188 70.273438 C 111.96875 66.101562 110.769531 62.136719 108.898438 58.375 C 116.910156 57.871094 124.335938 61.867188 126.972656 68.28125 Z M 112.703125 72.453125 C 118.914062 72.65625 124.011719 77.714844 125.320312 83.597656 C 123.875 86.960938 121.664062 89.960938 119.03125 92.476562 C 115.105469 96.136719 110.46875 98.941406 105.324219 100.582031 L 104.429688 98.324219 C 110.289062 91.125 113.34375 81.71875 112.703125 72.453125 Z M 21.726562 53.332031 C 21.773438 53.125 21.820312 52.917969 21.871094 52.738281 C 24.507812 49.167969 27.585938 46.023438 31.101562 43.3125 C 34.621094 40.601562 38.441406 38.421875 42.566406 36.777344 C 42.839844 36.667969 43.03125 36.480469 43.148438 36.214844 C 43.261719 35.941406 43.265625 35.671875 43.160156 35.398438 L 41.421875 31.027344 L 63.757812 35.925781 L 50.910156 54.851562 L 48.328125 48.339844 C 48.210938 48.035156 47.996094 47.832031 47.6875 47.726562 C 46.9375 47.480469 46.390625 48.121094 45.730469 48.441406 C 43.714844 49.636719 41.714844 50.914062 39.769531 52.265625 C 33.941406 56.492188 27.578125 61.246094 24.992188 68.21875 C 21.871094 64.023438 20.628906 58.429688 21.726562 53.332031 Z M 38.894531 78.011719 C 34.390625 76.257812 30.023438 73.84375 26.707031 70.285156 C 28.449219 61.761719 39.84375 54.664062 46.8125 50.273438 L 47.238281 51.359375 C 46.644531 52.132812 46.050781 52.90625 45.472656 53.695312 C 40.554688 60.714844 38.160156 69.460938 38.894531 78.011719 Z M 17.144531 66.484375 C 16.941406 63.699219 17.65625 60.507812 19.222656 57.222656 C 19.054688 68.742188 29.042969 76.976562 39.175781 80.394531 C 39.777344 84.46875 41.03125 88.335938 42.933594 91.992188 C 28.648438 91.523438 17.597656 79.65625 17.144531 66.484375 Z M 45.664062 92.535156 L 45.648438 92.550781 C 38.546875 80.644531 39.511719 64.5625 48.15625 53.664062 L 49.679688 57.5 C 49.960938 58.273438 51.101562 58.410156 51.542969 57.703125 L 61.457031 43.097656 C 94.605469 28.714844 125.070312 66.949219 103.511719 96.011719 L 102.113281 92.496094 C 101.832031 91.71875 100.691406 91.59375 100.246094 92.289062 L 90.601562 106.488281 C 74.800781 114.253906 54.328125 107.851562 45.664062 92.535156 Z M 109.605469 113.828125 C 109.457031 113.863281 109.324219 113.929688 109.203125 114.027344 C 109.085938 114.121094 108.992188 114.234375 108.921875 114.371094 C 108.851562 114.507812 108.816406 114.652344 108.808594 114.804688 C 108.800781 114.957031 108.828125 115.105469 108.886719 115.246094 L 110.367188 118.96875 L 88.03125 114.070312 L 100.878906 95.140625 C 100.878906 95.148438 102.214844 98.527344 102.214844 98.535156 L 103.71875 102.265625 C 103.886719 102.667969 104.289062 102.910156 104.707031 102.933594 C 117.175781 99.734375 130.207031 88.09375 129.539062 72.535156 C 131.671875 76.652344 133.796875 82.902344 132.570312 90.207031 C 130.707031 101.421875 121.6875 110.6875 109.605469 113.828125 Z M 96.328125 90.605469 C 109.558594 73.492188 96.710938 48.488281 75.15625 49.042969 C 55.117188 49.503906 43.09375 71.964844 53.972656 88.871094 C 63.558594 103.886719 85.59375 104.882812 96.328125 90.605469 Z M 88.726562 90.207031 L 91.339844 92.824219 C 87.167969 96.503906 81.65625 98.628906 76.09375 98.675781 L 76.09375 94.890625 C 76.09375 94.75 76.066406 94.613281 76.011719 94.484375 C 75.957031 94.351562 75.882812 94.238281 75.78125 94.140625 C 75.683594 94.039062 75.566406 93.960938 75.4375 93.910156 C 75.304688 93.855469 75.171875 93.828125 75.03125 93.828125 C 74.890625 93.828125 74.753906 93.855469 74.625 93.910156 C 74.492188 93.960938 74.378906 94.039062 74.277344 94.140625 C 74.179688 94.238281 74.101562 94.351562 74.046875 94.484375 C 73.996094 94.613281 73.96875 94.75 73.96875 94.890625 L 73.96875 98.5625 C 68.554688 98.203125 63.300781 95.867188 59.40625 92.085938 L 62.050781 89.441406 C 62.242188 89.230469 62.332031 88.984375 62.328125 88.699219 C 62.320312 88.417969 62.214844 88.175781 62.015625 87.976562 C 61.816406 87.777344 61.574219 87.671875 61.289062 87.664062 C 61.007812 87.65625 60.761719 87.75 60.550781 87.9375 L 57.933594 90.554688 C 54.367188 86.570312 52.238281 81.324219 52.046875 75.976562 L 55.796875 75.976562 C 55.9375 75.976562 56.074219 75.949219 56.203125 75.894531 C 56.335938 75.839844 56.449219 75.765625 56.546875 75.664062 C 56.648438 75.566406 56.726562 75.449219 56.777344 75.320312 C 56.832031 75.1875 56.859375 75.054688 56.859375 74.914062 C 56.859375 74.773438 56.832031 74.636719 56.777344 74.507812 C 56.726562 74.375 56.648438 74.261719 56.546875 74.160156 C 56.449219 74.0625 56.335938 73.984375 56.203125 73.929688 C 56.074219 73.878906 55.9375 73.851562 55.796875 73.851562 L 52.046875 73.851562 C 52.238281 68.53125 54.34375 63.328125 57.863281 59.347656 L 60.472656 61.953125 C 60.683594 62.144531 60.929688 62.234375 61.210938 62.226562 C 61.496094 62.21875 61.738281 62.117188 61.9375 61.917969 C 62.136719 61.714844 62.242188 61.476562 62.25 61.191406 C 62.253906 60.910156 62.164062 60.664062 61.972656 60.453125 L 59.328125 57.804688 C 63.230469 53.980469 68.515625 51.617188 73.96875 51.261719 L 73.96875 54.929688 C 73.96875 55.070312 73.996094 55.207031 74.046875 55.335938 C 74.101562 55.464844 74.179688 55.582031 74.277344 55.679688 C 74.378906 55.78125 74.492188 55.859375 74.625 55.910156 C 74.753906 55.964844 74.890625 55.992188 75.03125 55.992188 C 75.171875 55.992188 75.304688 55.964844 75.4375 55.910156 C 75.566406 55.859375 75.683594 55.78125 75.78125 55.679688 C 75.882812 55.582031 75.957031 55.464844 76.011719 55.335938 C 76.066406 55.207031 76.09375 55.070312 76.09375 54.929688 L 76.09375 51.148438 C 81.691406 51.191406 87.238281 53.34375 91.417969 57.074219 L 88.804688 59.683594 C 88.390625 60.09375 88.421875 60.765625 88.800781 61.179688 L 88.8125 61.179688 C 89.171875 61.515625 89.671875 61.546875 90.097656 61.335938 L 90.101562 61.335938 C 90.175781 61.289062 90.246094 61.234375 90.308594 61.171875 L 92.949219 58.53125 C 96.921875 62.601562 99.3125 68.152344 99.496094 73.839844 L 95.757812 73.839844 C 95.617188 73.839844 95.480469 73.867188 95.351562 73.917969 C 95.21875 73.972656 95.105469 74.050781 95.007812 74.148438 C 94.90625 74.25 94.828125 74.363281 94.777344 74.496094 C 94.722656 74.625 94.695312 74.761719 94.695312 74.902344 C 94.695312 75.042969 94.722656 75.175781 94.777344 75.308594 C 94.828125 75.4375 94.90625 75.550781 95.007812 75.652344 C 95.105469 75.75 95.21875 75.828125 95.351562 75.882812 C 95.480469 75.9375 95.617188 75.964844 95.757812 75.964844 L 99.496094 75.964844 C 99.480469 76.539062 99.441406 77.117188 99.378906 77.691406 C 99.082031 80.265625 98.378906 82.722656 97.265625 85.0625 C 96.152344 87.402344 94.6875 89.496094 92.875 91.347656 L 90.230469 88.695312 C 90.019531 88.503906 89.773438 88.414062 89.488281 88.421875 C 89.207031 88.429688 88.964844 88.53125 88.765625 88.730469 C 88.566406 88.933594 88.460938 89.171875 88.453125 89.457031 C 88.445312 89.738281 88.539062 89.984375 88.726562 90.195312 Z M 80.121094 79.398438 C 82.765625 75.757812 80.492188 70.398438 76.085938 69.667969 L 76.085938 59.925781 C 76.085938 59.785156 76.058594 59.648438 76.003906 59.519531 C 75.953125 59.386719 75.875 59.273438 75.773438 59.171875 C 75.675781 59.074219 75.5625 58.996094 75.429688 58.941406 C 75.300781 58.886719 75.164062 58.863281 75.023438 58.863281 C 74.882812 58.863281 74.746094 58.886719 74.617188 58.941406 C 74.488281 58.996094 74.371094 59.074219 74.273438 59.171875 C 74.171875 59.273438 74.097656 59.386719 74.042969 59.519531 C 73.988281 59.648438 73.960938 59.785156 73.960938 59.925781 L 73.960938 69.667969 C 71.0625 70.183594 68.773438 72.84375 68.800781 75.800781 C 68.722656 80.777344 74.597656 83.789062 78.609375 80.890625 L 81.820312 84.097656 C 82.027344 84.285156 82.277344 84.378906 82.558594 84.371094 C 82.839844 84.363281 83.082031 84.261719 83.28125 84.058594 C 83.484375 83.859375 83.585938 83.617188 83.59375 83.335938 C 83.601562 83.054688 83.507812 82.804688 83.320312 82.597656 Z M 70.917969 75.800781 C 71.0625 70.386719 79.003906 70.398438 79.140625 75.800781 C 78.992188 81.210938 71.054688 81.222656 70.917969 75.800781 Z M 70.917969 75.800781 " fill-opacity="1" fill-rule="nonzero"/></g></svg>