<svg xmlns="http://www.w3.org/2000/svg" xmlns:xlink="http://www.w3.org/1999/xlink" width="200" zoomAndPan="magnify" viewBox="0 0 150 149.999998" height="200" preserveAspectRatio="xMidYMid meet" version="1.0"><defs><clipPath id="897a133011"><path d="M 18.867188 27.636719 L 131.367188 27.636719 L 131.367188 122.136719 L 18.867188 122.136719 Z M 18.867188 27.636719 " clip-rule="nonzero"/></clipPath></defs><g clip-path="url(#897a133011)"><path fill="#ffffff" d="M 122.574219 27.636719 L 27.355469 27.636719 C 22.6875 27.636719 18.914062 31.410156 18.914062 36.078125 L 18.914062 103.769531 C 18.914062 108.417969 22.6875 112.210938 27.355469 112.210938 L 32.902344 112.210938 C 32.902344 112.277344 32.902344 112.324219 32.902344 112.390625 L 32.902344 116.523438 C 32.902344 119.734375 35.507812 122.359375 38.738281 122.359375 L 50.570312 122.359375 C 53.78125 122.359375 56.410156 119.753906 56.410156 116.523438 L 56.410156 112.390625 C 56.410156 112.324219 56.410156 112.277344 56.410156 112.210938 L 93.589844 112.210938 C 93.589844 112.277344 93.589844 112.324219 93.589844 112.390625 L 93.589844 116.523438 C 93.589844 119.734375 96.191406 122.359375 99.425781 122.359375 L 111.257812 122.359375 C 114.46875 122.359375 117.09375 119.753906 117.09375 116.523438 L 117.09375 112.390625 C 117.09375 112.324219 117.09375 112.277344 117.09375 112.210938 L 122.640625 112.210938 C 127.289062 112.210938 131.082031 108.441406 131.082031 103.769531 L 131.082031 36.078125 C 131.082031 31.429688 127.3125 27.636719 122.640625 27.636719 Z M 27.355469 32.128906 L 122.597656 32.128906 C 124.773438 32.128906 126.523438 33.902344 126.523438 36.054688 L 126.523438 91.128906 L 23.40625 91.128906 L 23.40625 36.078125 C 23.40625 33.902344 25.179688 32.148438 27.335938 32.148438 Z M 51.875 112.367188 L 51.875 116.5 C 51.875 117.242188 51.289062 117.824219 50.550781 117.824219 L 38.71875 117.824219 C 37.976562 117.824219 37.394531 117.242188 37.394531 116.5 L 37.394531 112.367188 C 37.394531 112.300781 37.394531 112.257812 37.394531 112.1875 L 51.894531 112.1875 C 51.894531 112.257812 51.894531 112.300781 51.894531 112.367188 Z M 112.539062 112.367188 L 112.539062 116.5 C 112.539062 117.242188 111.953125 117.824219 111.214844 117.824219 L 99.382812 117.824219 C 98.640625 117.824219 98.054688 117.242188 98.054688 116.5 L 98.054688 112.367188 C 98.054688 112.300781 98.054688 112.257812 98.054688 112.1875 L 112.558594 112.1875 C 112.558594 112.257812 112.558594 112.300781 112.558594 112.367188 Z M 122.574219 107.675781 L 27.355469 107.675781 C 25.179688 107.675781 23.429688 105.902344 23.429688 103.746094 L 23.429688 95.640625 L 126.523438 95.640625 L 126.523438 103.746094 C 126.523438 105.925781 124.75 107.675781 122.597656 107.675781 Z M 122.574219 107.675781 " fill-opacity="1" fill-rule="nonzero"/></g><path fill="#ffffff" d="M 35.238281 64.367188 C 35.238281 65.601562 36.246094 66.613281 37.484375 66.613281 L 45.878906 66.613281 L 47.898438 74.15625 C 48.167969 75.144531 49.046875 75.816406 50.078125 75.816406 C 51.109375 75.816406 51.984375 75.144531 52.253906 74.15625 L 54.230469 66.792969 L 58.96875 66.792969 C 59.980469 66.792969 60.875 66.117188 61.144531 65.132812 L 62.246094 61 L 67.792969 81.65625 C 68.0625 82.644531 68.9375 83.316406 69.96875 83.316406 C 71.003906 83.316406 71.878906 82.644531 72.148438 81.65625 L 76.054688 67.0625 L 79.464844 67.0625 C 80.476562 67.0625 81.375 66.386719 81.644531 65.398438 L 85.148438 52.3125 L 91.90625 77.523438 C 92.175781 78.511719 93.050781 79.183594 94.082031 79.183594 C 95.117188 79.183594 95.992188 78.511719 96.261719 77.523438 L 100.683594 61.042969 L 101.964844 65.804688 C 102.234375 66.792969 103.109375 67.464844 104.140625 67.464844 L 114.851562 67.464844 C 116.085938 67.464844 117.09375 66.457031 117.09375 65.222656 C 117.09375 63.984375 116.085938 62.976562 114.851562 62.976562 L 105.871094 62.976562 L 102.859375 51.773438 C 102.589844 50.785156 101.714844 50.109375 100.683594 50.109375 C 99.652344 50.109375 98.773438 50.785156 98.503906 51.773438 L 94.082031 68.25 L 87.324219 43.039062 C 87.054688 42.050781 86.179688 41.378906 85.148438 41.378906 C 84.113281 41.378906 83.238281 42.050781 82.96875 43.039062 L 77.738281 62.570312 L 74.324219 62.570312 C 73.316406 62.570312 72.417969 63.246094 72.148438 64.234375 L 69.96875 72.382812 L 64.425781 51.726562 C 64.15625 50.738281 63.277344 50.066406 62.246094 50.066406 C 61.214844 50.066406 60.339844 50.738281 60.070312 51.726562 L 57.238281 62.300781 L 52.503906 62.300781 C 51.492188 62.300781 50.59375 62.976562 50.324219 63.964844 L 50.078125 64.882812 L 49.785156 63.785156 C 49.515625 62.796875 48.640625 62.121094 47.609375 62.121094 L 37.484375 62.121094 C 36.246094 62.121094 35.238281 63.132812 35.238281 64.367188 Z M 35.238281 64.367188 " fill-opacity="1" fill-rule="nonzero"/><path fill="#ffffff" d="M 32.65625 43.332031 L 37.191406 43.332031 C 38.425781 43.332031 39.4375 42.320312 39.4375 41.085938 C 39.4375 39.851562 38.425781 38.839844 37.191406 38.839844 L 32.65625 38.839844 C 31.421875 38.839844 30.410156 39.851562 30.410156 41.085938 C 30.410156 42.320312 31.421875 43.332031 32.65625 43.332031 Z M 32.65625 43.332031 " fill-opacity="1" fill-rule="nonzero"/><path fill="#ffffff" d="M 32.65625 51.1875 L 37.191406 51.1875 C 38.425781 51.1875 39.4375 50.179688 39.4375 48.945312 C 39.4375 47.707031 38.425781 46.699219 37.191406 46.699219 L 32.65625 46.699219 C 31.421875 46.699219 30.410156 47.707031 30.410156 48.945312 C 30.410156 50.179688 31.421875 51.1875 32.65625 51.1875 Z M 32.65625 51.1875 " fill-opacity="1" fill-rule="nonzero"/></svg>