<svg xmlns="http://www.w3.org/2000/svg" xmlns:xlink="http://www.w3.org/1999/xlink" width="200" zoomAndPan="magnify" viewBox="0 0 150 149.999998" height="200" preserveAspectRatio="xMidYMid meet" version="1.0"><defs><clipPath id="10ffe7a126"><path d="M 25.621094 23.429688 L 124.621094 23.429688 L 124.621094 126.929688 L 25.621094 126.929688 Z M 25.621094 23.429688 " clip-rule="nonzero"/></clipPath></defs><g clip-path="url(#10ffe7a126)"><path fill="#ffffff" d="M 96.1875 39.308594 C 96.726562 44.15625 93.898438 48.707031 89.421875 50.410156 C 89.207031 50.492188 89.238281 50.808594 89.464844 50.847656 C 90.863281 51.082031 91.9375 52.308594 91.9375 53.773438 L 91.9375 96.957031 C 91.9375 97.042969 91.890625 97.117188 91.816406 97.15625 C 88.851562 98.671875 84.605469 100.773438 81.460938 101.546875 C 81.347656 101.574219 81.234375 101.515625 81.195312 101.40625 C 80.957031 100.765625 80.640625 100.152344 80.253906 99.589844 C 80.226562 99.550781 80.214844 99.511719 80.214844 99.460938 L 80.214844 53.773438 C 80.214844 52.148438 81.535156 50.820312 83.15625 50.804688 C 83.398438 50.800781 83.464844 50.46875 83.246094 50.371094 C 78.9375 48.457031 76.378906 43.875 77.058594 39.152344 C 77.074219 39.03125 77.1875 38.945312 77.308594 38.960938 C 81.527344 39.449219 85.058594 42.40625 86.269531 46.46875 C 86.332031 46.683594 86.632812 46.6875 86.699219 46.472656 C 88 42.382812 91.65625 39.46875 95.945312 39.109375 C 96.066406 39.097656 96.175781 39.1875 96.1875 39.308594 Z M 61.691406 91.730469 L 61.691406 82.707031 C 61.691406 82.582031 61.589844 82.480469 61.464844 82.480469 L 52.933594 82.480469 C 51.300781 82.480469 49.964844 83.816406 49.964844 85.449219 L 49.964844 92.515625 C 49.964844 92.675781 50.121094 92.785156 50.269531 92.730469 L 52.085938 92.066406 C 55.304688 90.894531 58.160156 90.949219 61.394531 91.945312 C 61.542969 91.992188 61.691406 91.882812 61.691406 91.730469 Z M 76.8125 96.410156 L 76.8125 66.867188 C 76.8125 66.742188 76.710938 66.640625 76.585938 66.640625 L 68.058594 66.640625 C 66.425781 66.640625 65.089844 67.976562 65.089844 69.609375 L 65.089844 92.917969 C 65.089844 93.015625 65.152344 93.101562 65.25 93.132812 L 75.972656 96.4375 C 76.222656 96.515625 76.8125 96.835938 76.8125 96.410156 Z M 28.726562 96.5 L 31.484375 96.5 C 33.183594 96.5 34.574219 97.890625 34.574219 99.589844 L 34.574219 123.476562 C 34.574219 125.175781 33.183594 126.566406 31.484375 126.566406 L 28.726562 126.566406 C 27.027344 126.566406 25.636719 125.175781 25.636719 123.476562 L 25.636719 99.589844 C 25.636719 97.890625 27.027344 96.5 28.726562 96.5 Z M 81.722656 104.890625 C 81.347656 104.976562 81.742188 105.371094 81.566406 106.054688 C 80.621094 109.667969 76.894531 111.75 73.359375 110.660156 L 58.566406 106.105469 C 57.671875 105.828125 57.171875 104.882812 57.445312 103.988281 C 57.722656 103.09375 58.667969 102.589844 59.5625 102.863281 L 74.355469 107.421875 C 76.003906 107.929688 77.792969 106.9375 78.234375 105.375 C 78.886719 103.046875 77.476562 100.371094 74.996094 99.605469 L 60.082031 95.011719 C 57.742188 94.292969 55.523438 94.347656 53.222656 95.183594 L 38.203125 100.65625 C 38.113281 100.6875 38.054688 100.773438 38.054688 100.867188 L 38.054688 121.445312 C 38.054688 121.574219 38.15625 121.675781 38.28125 121.671875 C 45.164062 121.59375 52.191406 121.5625 58.832031 122.519531 C 63.621094 123.210938 68.351562 124.960938 73.132812 124.570312 C 79.160156 124.082031 85.542969 120.230469 90.527344 117 C 97.796875 112.285156 106.664062 104.738281 113.054688 98.679688 C 114.597656 97.21875 114.746094 94.828125 113.394531 93.191406 L 113.207031 92.960938 C 111.953125 91.441406 109.835938 91.046875 108.117188 92.011719 C 99.875 96.65625 88.03125 103.519531 81.722656 104.890625 Z M 109.683594 76.246094 L 112.144531 84.242188 C 112.46875 85.257812 113.4375 85.71875 114.347656 85.398438 L 123.222656 82.257812 C 124.105469 81.945312 124.570312 80.976562 124.257812 80.09375 C 123.945312 79.210938 122.976562 78.746094 122.09375 79.058594 L 118.40625 80.363281 C 118.214844 80.433594 118.035156 80.226562 118.132812 80.042969 C 121.902344 72.929688 123.375 64.804688 122.230469 56.648438 C 119.265625 35.542969 99.761719 20.839844 78.664062 23.804688 C 54.296875 27.226562 39.429688 52.207031 47.761719 75.195312 C 48.082031 76.074219 49.054688 76.527344 49.933594 76.210938 C 50.8125 75.890625 51.269531 74.917969 50.949219 74.039062 C 46.835938 62.695312 48.828125 50.246094 55.925781 40.832031 C 67.625 25.308594 89.683594 22.210938 105.203125 33.910156 C 119.390625 44.601562 123.332031 64.113281 114.605469 79.417969 C 114.507812 79.585938 114.25 79.558594 114.191406 79.371094 L 112.925781 75.25 C 112.648438 74.355469 111.703125 73.851562 110.808594 74.128906 C 109.914062 74.402344 109.410156 75.351562 109.683594 76.246094 Z M 109.683594 76.246094 " fill-opacity="1" fill-rule="evenodd"/></g></svg>