<svg xmlns="http://www.w3.org/2000/svg" xmlns:xlink="http://www.w3.org/1999/xlink" width="200" zoomAndPan="magnify" viewBox="0 0 150 149.999998" height="200" preserveAspectRatio="xMidYMid meet" version="1.0"><defs><clipPath id="69120bb1f0"><path d="M 111 45 L 126.269531 45 L 126.269531 52 L 111 52 Z M 111 45 " clip-rule="nonzero"/></clipPath><clipPath id="1ba6071f36"><path d="M 111 56 L 126.269531 56 L 126.269531 63 L 111 63 Z M 111 56 " clip-rule="nonzero"/></clipPath><clipPath id="db68952dbe"><path d="M 111 68 L 126.269531 68 L 126.269531 75 L 111 75 Z M 111 68 " clip-rule="nonzero"/></clipPath><clipPath id="4b41a39dac"><path d="M 111 79 L 126.269531 79 L 126.269531 86 L 111 86 Z M 111 79 " clip-rule="nonzero"/></clipPath><clipPath id="25e6911cb0"><path d="M 111 91 L 126.269531 91 L 126.269531 98 L 111 98 Z M 111 91 " clip-rule="nonzero"/></clipPath><clipPath id="895be8e21d"><path d="M 111 102 L 126.269531 102 L 126.269531 109 L 111 109 Z M 111 102 " clip-rule="nonzero"/></clipPath><clipPath id="97ccadba37"><path d="M 23.519531 45 L 39 45 L 39 52 L 23.519531 52 Z M 23.519531 45 " clip-rule="nonzero"/></clipPath><clipPath id="3d15dd02e5"><path d="M 23.519531 56 L 39 56 L 39 63 L 23.519531 63 Z M 23.519531 56 " clip-rule="nonzero"/></clipPath><clipPath id="2bcb5c90ec"><path d="M 23.519531 68 L 39 68 L 39 75 L 23.519531 75 Z M 23.519531 68 " clip-rule="nonzero"/></clipPath><clipPath id="5f2eb566e8"><path d="M 23.519531 79 L 39 79 L 39 86 L 23.519531 86 Z M 23.519531 79 " clip-rule="nonzero"/></clipPath><clipPath id="abe42f7075"><path d="M 23.519531 91 L 39 91 L 39 98 L 23.519531 98 Z M 23.519531 91 " clip-rule="nonzero"/></clipPath><clipPath id="d71672d672"><path d="M 23.519531 102 L 39 102 L 39 109 L 23.519531 109 Z M 23.519531 102 " clip-rule="nonzero"/></clipPath><clipPath id="2481685c47"><path d="M 100 111 L 107 111 L 107 126.269531 L 100 126.269531 Z M 100 111 " clip-rule="nonzero"/></clipPath><clipPath id="43edb0d74e"><path d="M 89 111 L 96 111 L 96 126.269531 L 89 126.269531 Z M 89 111 " clip-rule="nonzero"/></clipPath><clipPath id="c22574c2a8"><path d="M 77 111 L 84 111 L 84 126.269531 L 77 126.269531 Z M 77 111 " clip-rule="nonzero"/></clipPath><clipPath id="c2968913fe"><path d="M 66 111 L 73 111 L 73 126.269531 L 66 126.269531 Z M 66 111 " clip-rule="nonzero"/></clipPath><clipPath id="eba8fbb78a"><path d="M 54 111 L 61 111 L 61 126.269531 L 54 126.269531 Z M 54 111 " clip-rule="nonzero"/></clipPath><clipPath id="d9bc41584d"><path d="M 43 111 L 50 111 L 50 126.269531 L 43 126.269531 Z M 43 111 " clip-rule="nonzero"/></clipPath><clipPath id="7fd5186334"><path d="M 100 23.519531 L 107 23.519531 L 107 39 L 100 39 Z M 100 23.519531 " clip-rule="nonzero"/></clipPath><clipPath id="5a5e93843b"><path d="M 89 23.519531 L 96 23.519531 L 96 39 L 89 39 Z M 89 23.519531 " clip-rule="nonzero"/></clipPath><clipPath id="7f51120e40"><path d="M 77 23.519531 L 84 23.519531 L 84 39 L 77 39 Z M 77 23.519531 " clip-rule="nonzero"/></clipPath><clipPath id="aad64ca55b"><path d="M 66 23.519531 L 73 23.519531 L 73 39 L 66 39 Z M 66 23.519531 " clip-rule="nonzero"/></clipPath><clipPath id="406fb69fad"><path d="M 54 23.519531 L 61 23.519531 L 61 39 L 54 39 Z M 54 23.519531 " clip-rule="nonzero"/></clipPath><clipPath id="80db97c0c9"><path d="M 43 23.519531 L 50 23.519531 L 50 39 L 43 39 Z M 43 23.519531 " clip-rule="nonzero"/></clipPath></defs><path fill="#ffffff" d="M 110.320312 105.707031 C 110.320312 108.292969 108.214844 110.398438 105.628906 110.398438 L 100.367188 110.398438 L 100.367188 74.996094 C 100.367188 74.359375 99.851562 73.847656 99.21875 73.847656 L 89.785156 73.847656 C 89.152344 73.847656 88.636719 74.359375 88.636719 74.996094 L 88.636719 84.605469 L 75 84.605469 C 74.367188 84.605469 73.851562 85.117188 73.851562 85.753906 L 73.851562 90.039062 C 71.492188 90.566406 69.722656 92.671875 69.722656 95.191406 C 69.722656 98.097656 72.089844 100.464844 75 100.464844 C 77.910156 100.464844 80.277344 98.097656 80.277344 95.191406 C 80.277344 92.671875 78.503906 90.566406 76.148438 90.039062 L 76.148438 86.902344 L 89.785156 86.902344 C 90.417969 86.902344 90.933594 86.386719 90.933594 85.753906 L 90.933594 76.144531 L 98.070312 76.144531 L 98.070312 110.398438 L 44.371094 110.398438 C 41.785156 110.398438 39.679688 108.292969 39.679688 105.707031 L 39.679688 80.269531 L 64.398438 80.269531 L 64.398438 103.75 L 56.058594 103.75 L 56.058594 100.339844 C 58.414062 99.8125 60.183594 97.703125 60.183594 95.191406 C 60.183594 92.28125 57.816406 89.914062 54.910156 89.914062 C 52 89.914062 49.632812 92.28125 49.632812 95.191406 C 49.632812 97.703125 51.402344 99.8125 53.761719 100.339844 L 53.761719 104.898438 C 53.761719 105.53125 54.273438 106.046875 54.910156 106.046875 L 65.546875 106.046875 C 66.179688 106.046875 66.695312 105.53125 66.695312 104.898438 L 66.695312 79.121094 C 66.695312 78.488281 66.179688 77.972656 65.546875 77.972656 L 39.679688 77.972656 L 39.679688 55.949219 L 55.617188 55.949219 L 55.617188 64.503906 C 55.617188 65.136719 56.132812 65.652344 56.765625 65.652344 L 73.785156 65.652344 L 73.839844 69.851562 C 71.484375 70.378906 69.722656 72.484375 69.722656 74.996094 C 69.722656 77.90625 72.089844 80.269531 75 80.269531 C 77.910156 80.269531 80.277344 77.90625 80.277344 74.996094 C 80.277344 72.476562 78.5 70.363281 76.132812 69.84375 L 76.066406 64.488281 C 76.058594 63.863281 75.550781 63.355469 74.921875 63.355469 L 57.914062 63.355469 L 57.914062 54.800781 C 57.914062 54.167969 57.402344 53.652344 56.765625 53.652344 L 39.679688 53.652344 L 39.679688 46.996094 L 73.726562 47 L 73.757812 49.65625 C 71.40625 50.1875 69.644531 52.289062 69.644531 54.800781 C 69.644531 57.710938 72.011719 60.078125 74.921875 60.078125 C 77.832031 60.078125 80.195312 57.710938 80.195312 54.800781 C 80.195312 52.285156 78.421875 50.171875 76.054688 49.648438 L 76.007812 45.835938 C 76 45.207031 75.488281 44.703125 74.859375 44.703125 L 39.679688 44.699219 L 39.679688 44.445312 C 39.679688 41.859375 41.785156 39.757812 44.371094 39.757812 L 83.332031 39.757812 L 83.332031 45.570312 C 83.332031 46.207031 83.84375 46.71875 84.480469 46.71875 L 93.941406 46.71875 L 93.941406 49.652344 C 91.585938 50.179688 89.8125 52.285156 89.8125 54.800781 C 89.8125 57.710938 92.179688 60.078125 95.089844 60.078125 C 98 60.078125 100.367188 57.710938 100.367188 54.800781 C 100.367188 52.285156 98.597656 50.179688 96.238281 49.652344 L 96.238281 45.570312 C 96.238281 44.9375 95.726562 44.421875 95.089844 44.421875 L 85.628906 44.421875 L 85.628906 39.757812 L 105.628906 39.757812 C 108.214844 39.757812 110.320312 41.859375 110.320312 44.445312 Z M 77.980469 95.191406 C 77.980469 96.832031 76.640625 98.167969 75 98.167969 C 73.359375 98.167969 72.019531 96.832031 72.019531 95.191406 C 72.019531 93.546875 73.359375 92.210938 75 92.210938 C 76.640625 92.210938 77.980469 93.546875 77.980469 95.191406 Z M 54.910156 98.167969 C 53.265625 98.167969 51.929688 96.832031 51.929688 95.191406 C 51.929688 93.546875 53.265625 92.210938 54.910156 92.210938 C 56.550781 92.210938 57.890625 93.546875 57.890625 95.191406 C 57.890625 96.832031 56.550781 98.167969 54.910156 98.167969 Z M 75 72.015625 C 76.640625 72.015625 77.980469 73.351562 77.980469 74.996094 C 77.980469 76.636719 76.640625 77.972656 75 77.972656 C 73.359375 77.972656 72.019531 76.636719 72.019531 74.996094 C 72.019531 73.351562 73.359375 72.015625 75 72.015625 Z M 74.921875 51.820312 C 76.5625 51.820312 77.898438 53.160156 77.898438 54.800781 C 77.898438 56.445312 76.5625 57.78125 74.921875 57.78125 C 73.277344 57.78125 71.941406 56.445312 71.941406 54.800781 C 71.941406 53.160156 73.277344 51.820312 74.921875 51.820312 Z M 95.089844 51.820312 C 96.734375 51.820312 98.070312 53.160156 98.070312 54.800781 C 98.070312 56.445312 96.734375 57.78125 95.089844 57.78125 C 93.449219 57.78125 92.109375 56.445312 92.109375 54.800781 C 92.109375 53.160156 93.449219 51.820312 95.089844 51.820312 Z M 95.089844 51.820312 " fill-opacity="1" fill-rule="nonzero"/><path fill="#ffffff" d="M 110.320312 44.445312 L 110.320312 105.707031 C 110.320312 108.292969 108.214844 110.398438 105.628906 110.398438 L 100.367188 110.398438 L 100.367188 74.996094 C 100.367188 74.359375 99.851562 73.847656 99.21875 73.847656 L 89.785156 73.847656 C 89.152344 73.847656 88.636719 74.359375 88.636719 74.996094 L 88.636719 84.605469 L 75 84.605469 C 74.367188 84.605469 73.851562 85.117188 73.851562 85.753906 L 73.851562 90.039062 C 71.492188 90.566406 69.722656 92.671875 69.722656 95.191406 C 69.722656 98.097656 72.089844 100.464844 75 100.464844 C 77.910156 100.464844 80.277344 98.097656 80.277344 95.191406 C 80.277344 92.671875 78.503906 90.566406 76.148438 90.039062 L 76.148438 86.902344 L 89.785156 86.902344 C 90.417969 86.902344 90.933594 86.386719 90.933594 85.753906 L 90.933594 76.144531 L 98.070312 76.144531 L 98.070312 110.398438 L 44.371094 110.398438 C 41.785156 110.398438 39.679688 108.292969 39.679688 105.707031 L 39.679688 80.269531 L 64.398438 80.269531 L 64.398438 103.75 L 56.058594 103.75 L 56.058594 100.339844 C 58.414062 99.8125 60.183594 97.703125 60.183594 95.191406 C 60.183594 92.28125 57.816406 89.914062 54.910156 89.914062 C 52 89.914062 49.632812 92.28125 49.632812 95.191406 C 49.632812 97.703125 51.402344 99.8125 53.761719 100.339844 L 53.761719 104.898438 C 53.761719 105.53125 54.273438 106.046875 54.910156 106.046875 L 65.546875 106.046875 C 66.179688 106.046875 66.695312 105.53125 66.695312 104.898438 L 66.695312 79.121094 C 66.695312 78.488281 66.179688 77.972656 65.546875 77.972656 L 39.679688 77.972656 L 39.679688 55.949219 L 55.617188 55.949219 L 55.617188 64.503906 C 55.617188 65.136719 56.132812 65.652344 56.765625 65.652344 L 73.785156 65.652344 L 73.839844 69.851562 C 71.484375 70.378906 69.722656 72.484375 69.722656 74.996094 C 69.722656 77.90625 72.089844 80.269531 75 80.269531 C 77.910156 80.269531 80.277344 77.90625 80.277344 74.996094 C 80.277344 72.476562 78.5 70.363281 76.132812 69.84375 L 76.066406 64.488281 C 76.058594 63.863281 75.550781 63.355469 74.921875 63.355469 L 57.914062 63.355469 L 57.914062 54.800781 C 57.914062 54.167969 57.402344 53.652344 56.765625 53.652344 L 39.679688 53.652344 L 39.679688 46.996094 L 73.726562 47 L 73.757812 49.65625 C 71.40625 50.1875 69.644531 52.289062 69.644531 54.800781 C 69.644531 57.710938 72.011719 60.078125 74.921875 60.078125 C 77.832031 60.078125 80.195312 57.710938 80.195312 54.800781 C 80.195312 52.285156 78.421875 50.171875 76.054688 49.648438 L 76.007812 45.835938 C 76 45.207031 75.488281 44.703125 74.859375 44.703125 L 39.679688 44.699219 L 39.679688 44.445312 C 39.679688 41.859375 41.785156 39.757812 44.371094 39.757812 L 83.332031 39.757812 L 83.332031 45.570312 C 83.332031 46.207031 83.84375 46.71875 84.480469 46.71875 L 93.941406 46.71875 L 93.941406 49.652344 C 91.585938 50.179688 89.8125 52.285156 89.8125 54.800781 C 89.8125 57.710938 92.179688 60.078125 95.089844 60.078125 C 98 60.078125 100.367188 57.710938 100.367188 54.800781 C 100.367188 52.285156 98.597656 50.179688 96.238281 49.652344 L 96.238281 45.570312 C 96.238281 44.9375 95.726562 44.421875 95.089844 44.421875 L 85.628906 44.421875 L 85.628906 39.757812 L 105.628906 39.757812 C 108.214844 39.757812 110.320312 41.859375 110.320312 44.445312 Z M 110.320312 44.445312 " fill-opacity="1" fill-rule="nonzero"/><g clip-path="url(#69120bb1f0)"><path fill="#ffffff" d="M 117.433594 49.984375 L 124.757812 49.984375 C 125.710938 49.984375 126.480469 49.214844 126.480469 48.261719 C 126.480469 47.3125 125.710938 46.539062 124.757812 46.539062 L 117.433594 46.539062 L 117.433594 45.417969 L 111.746094 45.417969 L 111.746094 51.105469 L 117.433594 51.105469 Z M 117.433594 49.984375 " fill-opacity="1" fill-rule="nonzero"/></g><g clip-path="url(#1ba6071f36)"><path fill="#ffffff" d="M 124.757812 58.027344 L 117.433594 58.027344 L 117.433594 56.910156 L 111.746094 56.910156 L 111.746094 62.59375 L 117.433594 62.59375 L 117.433594 61.472656 L 124.757812 61.472656 C 125.710938 61.472656 126.480469 60.703125 126.480469 59.75 C 126.480469 58.800781 125.710938 58.027344 124.757812 58.027344 Z M 124.757812 58.027344 " fill-opacity="1" fill-rule="nonzero"/></g><g clip-path="url(#db68952dbe)"><path fill="#ffffff" d="M 124.757812 69.519531 L 117.433594 69.519531 L 117.433594 68.398438 L 111.746094 68.398438 L 111.746094 74.082031 L 117.433594 74.082031 L 117.433594 72.960938 L 124.757812 72.960938 C 125.710938 72.960938 126.480469 72.191406 126.480469 71.238281 C 126.480469 70.289062 125.710938 69.519531 124.757812 69.519531 Z M 124.757812 69.519531 " fill-opacity="1" fill-rule="nonzero"/></g><g clip-path="url(#4b41a39dac)"><path fill="#ffffff" d="M 124.757812 81.007812 L 117.433594 81.007812 L 117.433594 79.886719 L 111.746094 79.886719 L 111.746094 85.570312 L 117.433594 85.570312 L 117.433594 84.453125 L 124.757812 84.453125 C 125.710938 84.453125 126.480469 83.679688 126.480469 82.730469 C 126.480469 81.777344 125.710938 81.007812 124.757812 81.007812 Z M 124.757812 81.007812 " fill-opacity="1" fill-rule="nonzero"/></g><g clip-path="url(#25e6911cb0)"><path fill="#ffffff" d="M 124.757812 92.496094 L 117.433594 92.496094 L 117.433594 91.375 L 111.746094 91.375 L 111.746094 97.0625 L 117.433594 97.0625 L 117.433594 95.941406 L 124.757812 95.941406 C 125.710938 95.941406 126.480469 95.167969 126.480469 94.21875 C 126.480469 93.265625 125.710938 92.496094 124.757812 92.496094 Z M 124.757812 92.496094 " fill-opacity="1" fill-rule="nonzero"/></g><g clip-path="url(#895be8e21d)"><path fill="#ffffff" d="M 124.757812 103.984375 L 117.433594 103.984375 L 117.433594 102.863281 L 111.746094 102.863281 L 111.746094 108.550781 L 117.433594 108.550781 L 117.433594 107.429688 L 124.757812 107.429688 C 125.710938 107.429688 126.480469 106.660156 126.480469 105.707031 C 126.480469 104.753906 125.710938 103.984375 124.757812 103.984375 Z M 124.757812 103.984375 " fill-opacity="1" fill-rule="nonzero"/></g><g clip-path="url(#97ccadba37)"><path fill="#ffffff" d="M 32.566406 46.539062 L 25.242188 46.539062 C 24.289062 46.539062 23.519531 47.3125 23.519531 48.261719 C 23.519531 49.214844 24.289062 49.984375 25.242188 49.984375 L 32.566406 49.984375 L 32.566406 51.105469 L 38.25 51.105469 L 38.25 45.417969 L 32.566406 45.417969 Z M 32.566406 46.539062 " fill-opacity="1" fill-rule="nonzero"/></g><g clip-path="url(#3d15dd02e5)"><path fill="#ffffff" d="M 32.566406 58.027344 L 25.242188 58.027344 C 24.289062 58.027344 23.519531 58.800781 23.519531 59.75 C 23.519531 60.703125 24.289062 61.472656 25.242188 61.472656 L 32.566406 61.472656 L 32.566406 62.59375 L 38.25 62.59375 L 38.25 56.910156 L 32.566406 56.910156 Z M 32.566406 58.027344 " fill-opacity="1" fill-rule="nonzero"/></g><g clip-path="url(#2bcb5c90ec)"><path fill="#ffffff" d="M 32.566406 69.519531 L 25.242188 69.519531 C 24.289062 69.519531 23.519531 70.289062 23.519531 71.238281 C 23.519531 72.191406 24.289062 72.960938 25.242188 72.960938 L 32.566406 72.960938 L 32.566406 74.082031 L 38.25 74.082031 L 38.25 68.398438 L 32.566406 68.398438 Z M 32.566406 69.519531 " fill-opacity="1" fill-rule="nonzero"/></g><g clip-path="url(#5f2eb566e8)"><path fill="#ffffff" d="M 32.566406 81.007812 L 25.242188 81.007812 C 24.289062 81.007812 23.519531 81.777344 23.519531 82.730469 C 23.519531 83.679688 24.289062 84.453125 25.242188 84.453125 L 32.566406 84.453125 L 32.566406 85.570312 L 38.25 85.570312 L 38.25 79.886719 L 32.566406 79.886719 Z M 32.566406 81.007812 " fill-opacity="1" fill-rule="nonzero"/></g><g clip-path="url(#abe42f7075)"><path fill="#ffffff" d="M 32.566406 92.496094 L 25.242188 92.496094 C 24.289062 92.496094 23.519531 93.265625 23.519531 94.21875 C 23.519531 95.167969 24.289062 95.941406 25.242188 95.941406 L 32.566406 95.941406 L 32.566406 97.0625 L 38.25 97.0625 L 38.25 91.375 L 32.566406 91.375 Z M 32.566406 92.496094 " fill-opacity="1" fill-rule="nonzero"/></g><g clip-path="url(#d71672d672)"><path fill="#ffffff" d="M 32.566406 103.984375 L 25.242188 103.984375 C 24.289062 103.984375 23.519531 104.753906 23.519531 105.707031 C 23.519531 106.660156 24.289062 107.429688 25.242188 107.429688 L 32.566406 107.429688 L 32.566406 108.550781 L 38.25 108.550781 L 38.25 102.863281 L 32.566406 102.863281 Z M 32.566406 103.984375 " fill-opacity="1" fill-rule="nonzero"/></g><g clip-path="url(#2481685c47)"><path fill="#ffffff" d="M 100.878906 117.429688 L 102 117.429688 L 102 124.753906 C 102 125.703125 102.769531 126.476562 103.722656 126.476562 C 104.671875 126.476562 105.445312 125.703125 105.445312 124.753906 L 105.445312 117.429688 L 106.566406 117.429688 L 106.566406 111.742188 L 100.878906 111.742188 Z M 100.878906 117.429688 " fill-opacity="1" fill-rule="nonzero"/></g><g clip-path="url(#43edb0d74e)"><path fill="#ffffff" d="M 89.390625 117.429688 L 90.511719 117.429688 L 90.511719 124.753906 C 90.511719 125.703125 91.28125 126.476562 92.234375 126.476562 C 93.183594 126.476562 93.957031 125.703125 93.957031 124.753906 L 93.957031 117.429688 L 95.074219 117.429688 L 95.074219 111.742188 L 89.390625 111.742188 Z M 89.390625 117.429688 " fill-opacity="1" fill-rule="nonzero"/></g><g clip-path="url(#c22574c2a8)"><path fill="#ffffff" d="M 77.902344 117.429688 L 79.023438 117.429688 L 79.023438 124.753906 C 79.023438 125.703125 79.792969 126.476562 80.746094 126.476562 C 81.695312 126.476562 82.464844 125.703125 82.464844 124.753906 L 82.464844 117.429688 L 83.585938 117.429688 L 83.585938 111.742188 L 77.902344 111.742188 Z M 77.902344 117.429688 " fill-opacity="1" fill-rule="nonzero"/></g><g clip-path="url(#c2968913fe)"><path fill="#ffffff" d="M 66.414062 117.429688 L 67.53125 117.429688 L 67.53125 124.753906 C 67.53125 125.703125 68.304688 126.476562 69.253906 126.476562 C 70.207031 126.476562 70.976562 125.703125 70.976562 124.753906 L 70.976562 117.429688 L 72.097656 117.429688 L 72.097656 111.742188 L 66.414062 111.742188 Z M 66.414062 117.429688 " fill-opacity="1" fill-rule="nonzero"/></g><g clip-path="url(#eba8fbb78a)"><path fill="#ffffff" d="M 54.921875 117.429688 L 56.042969 117.429688 L 56.042969 124.753906 C 56.042969 125.703125 56.816406 126.476562 57.765625 126.476562 C 58.71875 126.476562 59.488281 125.703125 59.488281 124.753906 L 59.488281 117.429688 L 60.609375 117.429688 L 60.609375 111.742188 L 54.921875 111.742188 Z M 54.921875 117.429688 " fill-opacity="1" fill-rule="nonzero"/></g><g clip-path="url(#d9bc41584d)"><path fill="#ffffff" d="M 43.433594 117.429688 L 44.554688 117.429688 L 44.554688 124.753906 C 44.554688 125.703125 45.324219 126.476562 46.277344 126.476562 C 47.230469 126.476562 48 125.703125 48 124.753906 L 48 117.429688 L 49.121094 117.429688 L 49.121094 111.742188 L 43.433594 111.742188 Z M 43.433594 117.429688 " fill-opacity="1" fill-rule="nonzero"/></g><g clip-path="url(#7fd5186334)"><path fill="#ffffff" d="M 105.445312 25.238281 C 105.445312 24.285156 104.671875 23.515625 103.722656 23.515625 C 102.769531 23.515625 102 24.285156 102 25.238281 L 102 32.5625 L 100.878906 32.5625 L 100.878906 38.246094 L 106.566406 38.246094 L 106.566406 32.5625 L 105.445312 32.5625 Z M 105.445312 25.238281 " fill-opacity="1" fill-rule="nonzero"/></g><g clip-path="url(#5a5e93843b)"><path fill="#ffffff" d="M 93.957031 25.238281 C 93.957031 24.285156 93.183594 23.515625 92.234375 23.515625 C 91.28125 23.515625 90.511719 24.285156 90.511719 25.238281 L 90.511719 32.5625 L 89.390625 32.5625 L 89.390625 38.246094 L 95.074219 38.246094 L 95.074219 32.5625 L 93.957031 32.5625 Z M 93.957031 25.238281 " fill-opacity="1" fill-rule="nonzero"/></g><g clip-path="url(#7f51120e40)"><path fill="#ffffff" d="M 82.464844 25.238281 C 82.464844 24.285156 81.695312 23.515625 80.746094 23.515625 C 79.792969 23.515625 79.023438 24.285156 79.023438 25.238281 L 79.023438 32.5625 L 77.902344 32.5625 L 77.902344 38.246094 L 83.585938 38.246094 L 83.585938 32.5625 L 82.464844 32.5625 Z M 82.464844 25.238281 " fill-opacity="1" fill-rule="nonzero"/></g><g clip-path="url(#aad64ca55b)"><path fill="#ffffff" d="M 70.976562 25.238281 C 70.976562 24.285156 70.207031 23.515625 69.253906 23.515625 C 68.304688 23.515625 67.53125 24.285156 67.53125 25.238281 L 67.53125 32.5625 L 66.414062 32.5625 L 66.414062 38.246094 L 72.097656 38.246094 L 72.097656 32.5625 L 70.976562 32.5625 Z M 70.976562 25.238281 " fill-opacity="1" fill-rule="nonzero"/></g><g clip-path="url(#406fb69fad)"><path fill="#ffffff" d="M 59.488281 25.238281 C 59.488281 24.285156 58.71875 23.515625 57.765625 23.515625 C 56.816406 23.515625 56.042969 24.285156 56.042969 25.238281 L 56.042969 32.5625 L 54.921875 32.5625 L 54.921875 38.246094 L 60.609375 38.246094 L 60.609375 32.5625 L 59.488281 32.5625 Z M 59.488281 25.238281 " fill-opacity="1" fill-rule="nonzero"/></g><g clip-path="url(#80db97c0c9)"><path fill="#ffffff" d="M 48 25.238281 C 48 24.285156 47.230469 23.515625 46.277344 23.515625 C 45.324219 23.515625 44.554688 24.285156 44.554688 25.238281 L 44.554688 32.5625 L 43.433594 32.5625 L 43.433594 38.246094 L 49.121094 38.246094 L 49.121094 32.5625 L 48 32.5625 Z M 48 25.238281 " fill-opacity="1" fill-rule="nonzero"/></g></svg>