<svg xmlns="http://www.w3.org/2000/svg" xmlns:xlink="http://www.w3.org/1999/xlink" width="200" zoomAndPan="magnify" viewBox="0 0 150 149.999998" height="200" preserveAspectRatio="xMidYMid meet" version="1.0"><defs><clipPath id="2b1772f9ca"><path d="M 22.125 84 L 101 84 L 101 130 L 22.125 130 Z M 22.125 84 " clip-rule="nonzero"/></clipPath><clipPath id="649f42567c"><path d="M 78 98 L 127.875 98 L 127.875 135 L 78 135 Z M 78 98 " clip-rule="nonzero"/></clipPath><clipPath id="daf7c64d79"><path d="M 78 114 L 127.875 114 L 127.875 120 L 78 120 Z M 78 114 " clip-rule="nonzero"/></clipPath></defs><path fill="#ffffff" d="M 64.128906 77.363281 C 63.390625 77.363281 62.65625 77.324219 61.925781 77.253906 C 61.191406 77.179688 60.464844 77.070312 59.742188 76.925781 C 59.019531 76.78125 58.304688 76.601562 57.597656 76.390625 C 56.894531 76.175781 56.203125 75.925781 55.519531 75.644531 C 54.839844 75.359375 54.175781 75.046875 53.523438 74.699219 C 52.875 74.351562 52.246094 73.972656 51.632812 73.5625 C 51.019531 73.152344 50.429688 72.714844 49.859375 72.246094 C 49.289062 71.777344 48.742188 71.285156 48.222656 70.765625 C 47.703125 70.242188 47.207031 69.699219 46.738281 69.128906 C 46.273438 68.558594 45.832031 67.96875 45.425781 67.355469 C 45.015625 66.742188 44.636719 66.109375 44.289062 65.460938 C 43.941406 64.8125 43.625 64.148438 43.34375 63.464844 C 43.0625 62.785156 42.8125 62.09375 42.597656 61.386719 C 42.382812 60.683594 42.203125 59.96875 42.058594 59.246094 C 41.914062 58.523438 41.804688 57.796875 41.734375 57.0625 C 41.660156 56.328125 41.625 55.59375 41.621094 54.855469 L 41.621094 42.230469 C 41.621094 41.828125 41.730469 41.460938 41.945312 41.125 C 42.160156 40.785156 47.304688 32.792969 55.519531 31.621094 C 59.785156 31.011719 64.007812 32.332031 68.085938 35.550781 C 69.917969 34.644531 73.34375 33.394531 77.175781 34.183594 C 80.796875 34.925781 83.882812 37.265625 86.308594 41.125 C 86.523438 41.460938 86.628906 41.828125 86.628906 42.230469 L 86.628906 54.855469 C 86.628906 55.59375 86.589844 56.328125 86.515625 57.0625 C 86.445312 57.796875 86.335938 58.523438 86.191406 59.246094 C 86.046875 59.96875 85.867188 60.679688 85.652344 61.386719 C 85.441406 62.089844 85.191406 62.785156 84.910156 63.464844 C 84.625 64.144531 84.3125 64.808594 83.964844 65.460938 C 83.617188 66.109375 83.238281 66.742188 82.828125 67.351562 C 82.417969 67.964844 81.980469 68.554688 81.515625 69.125 C 81.046875 69.695312 80.550781 70.242188 80.03125 70.761719 C 79.511719 71.28125 78.964844 71.777344 78.394531 72.246094 C 77.828125 72.710938 77.234375 73.152344 76.625 73.5625 C 76.011719 73.96875 75.378906 74.347656 74.730469 74.695312 C 74.082031 75.042969 73.417969 75.359375 72.734375 75.640625 C 72.054688 75.925781 71.363281 76.171875 70.660156 76.386719 C 69.953125 76.601562 69.238281 76.78125 68.515625 76.925781 C 67.796875 77.070312 67.066406 77.179688 66.335938 77.253906 C 65.601562 77.324219 64.867188 77.363281 64.128906 77.363281 Z M 45.761719 42.863281 L 45.761719 54.847656 C 45.769531 55.441406 45.804688 56.039062 45.871094 56.632812 C 45.9375 57.226562 46.03125 57.8125 46.152344 58.398438 C 46.277344 58.984375 46.425781 59.558594 46.605469 60.128906 C 46.785156 60.699219 46.992188 61.257812 47.222656 61.808594 C 47.457031 62.355469 47.71875 62.894531 48.003906 63.417969 C 48.289062 63.941406 48.597656 64.449219 48.933594 64.945312 C 49.269531 65.4375 49.628906 65.914062 50.011719 66.375 C 50.394531 66.832031 50.796875 67.273438 51.21875 67.691406 C 51.644531 68.109375 52.089844 68.507812 52.554688 68.886719 C 53.015625 69.261719 53.496094 69.613281 53.996094 69.945312 C 54.492188 70.273438 55.003906 70.578125 55.53125 70.855469 C 56.058594 71.136719 56.601562 71.390625 57.152344 71.617188 C 57.703125 71.84375 58.265625 72.042969 58.839844 72.214844 C 59.410156 72.386719 59.988281 72.53125 60.574219 72.644531 C 61.160156 72.761719 61.75 72.847656 62.34375 72.90625 C 62.9375 72.964844 63.535156 72.992188 64.128906 72.992188 C 64.726562 72.992188 65.324219 72.964844 65.917969 72.90625 C 66.511719 72.847656 67.101562 72.761719 67.6875 72.644531 C 68.273438 72.53125 68.851562 72.386719 69.421875 72.214844 C 69.996094 72.042969 70.558594 71.84375 71.109375 71.617188 C 71.660156 71.390625 72.199219 71.136719 72.730469 70.855469 C 73.257812 70.578125 73.769531 70.273438 74.265625 69.945312 C 74.765625 69.613281 75.246094 69.261719 75.707031 68.886719 C 76.171875 68.507812 76.617188 68.109375 77.039062 67.691406 C 77.464844 67.273438 77.867188 66.832031 78.25 66.375 C 78.632812 65.914062 78.992188 65.4375 79.328125 64.945312 C 79.660156 64.449219 79.972656 63.941406 80.257812 63.417969 C 80.542969 62.894531 80.804688 62.355469 81.039062 61.808594 C 81.269531 61.257812 81.476562 60.699219 81.65625 60.128906 C 81.835938 59.558594 81.984375 58.984375 82.109375 58.398438 C 82.230469 57.8125 82.324219 57.226562 82.390625 56.632812 C 82.457031 56.039062 82.492188 55.441406 82.5 54.847656 L 82.5 42.847656 C 80.742188 40.265625 78.675781 38.71875 76.34375 38.238281 C 72.527344 37.453125 69.066406 39.734375 69.023438 39.761719 C 68.632812 40.027344 68.199219 40.148438 67.726562 40.117188 C 67.253906 40.089844 66.839844 39.917969 66.484375 39.605469 C 63.007812 36.539062 59.515625 35.230469 56.105469 35.71875 C 50.75 36.484375 46.867188 41.335938 45.761719 42.875 Z M 45.761719 42.863281 " fill-opacity="1" fill-rule="nonzero"/><path fill="#ffffff" d="M 43.691406 53.019531 C 43.167969 53.019531 42.710938 52.847656 42.316406 52.5 C 41.976562 52.199219 34.003906 45.027344 34.789062 36.386719 C 35.175781 32.144531 37.570312 28.371094 41.914062 25.179688 L 36.824219 20.394531 C 36.515625 20.101562 36.316406 19.75 36.222656 19.335938 C 36.132812 18.921875 36.164062 18.519531 36.320312 18.125 C 36.476562 17.730469 36.730469 17.414062 37.082031 17.175781 C 37.429688 16.9375 37.820312 16.816406 38.242188 16.816406 L 53.097656 16.816406 C 57.234375 15.601562 61.457031 14.996094 65.765625 15 C 74.980469 15.09375 81.523438 18.726562 84.734375 25.511719 C 86.234375 26.460938 89.753906 29.132812 90.894531 33.890625 C 92.035156 38.652344 90.46875 44.003906 86.238281 49.761719 C 86.078125 49.996094 85.882812 50.1875 85.644531 50.339844 C 85.410156 50.488281 85.152344 50.589844 84.875 50.636719 C 84.597656 50.683594 84.324219 50.675781 84.050781 50.609375 C 83.777344 50.546875 83.527344 50.429688 83.300781 50.265625 C 83.074219 50.097656 82.890625 49.894531 82.746094 49.652344 C 82.605469 49.410156 82.511719 49.152344 82.476562 48.871094 C 82.4375 48.59375 82.457031 48.320312 82.53125 48.050781 C 82.605469 47.777344 82.730469 47.53125 82.902344 47.3125 C 86.363281 42.601562 87.699219 38.417969 86.878906 34.914062 C 85.917969 30.796875 82.207031 28.832031 82.167969 28.8125 C 81.730469 28.585938 81.410156 28.242188 81.214844 27.785156 C 75.324219 14.101562 54.257812 20.777344 54.054688 20.855469 C 53.84375 20.921875 53.632812 20.957031 53.414062 20.957031 L 43.464844 20.957031 L 46.648438 23.945312 C 46.765625 24.054688 46.867188 24.175781 46.957031 24.308594 C 47.046875 24.441406 47.117188 24.585938 47.171875 24.734375 C 47.230469 24.882812 47.265625 25.039062 47.289062 25.195312 C 47.308594 25.355469 47.308594 25.515625 47.292969 25.671875 C 47.273438 25.832031 47.242188 25.988281 47.1875 26.136719 C 47.136719 26.289062 47.066406 26.429688 46.980469 26.566406 C 46.894531 26.699219 46.792969 26.824219 46.679688 26.933594 C 46.566406 27.046875 46.4375 27.144531 46.300781 27.226562 C 41.71875 29.996094 39.242188 33.195312 38.914062 36.746094 C 38.308594 43.292969 45 49.34375 45.066406 49.414062 C 45.386719 49.699219 45.597656 50.050781 45.699219 50.46875 C 45.800781 50.886719 45.777344 51.296875 45.625 51.695312 C 45.46875 52.097656 45.21875 52.421875 44.863281 52.664062 C 44.511719 52.90625 44.121094 53.03125 43.691406 53.03125 Z M 43.691406 53.019531 " fill-opacity="1" fill-rule="nonzero"/><g clip-path="url(#2b1772f9ca)"><path fill="#ffffff" d="M 80.289062 129.875 L 27.25 129.875 C 26.917969 129.875 26.589844 129.84375 26.265625 129.777344 C 25.941406 129.710938 25.625 129.617188 25.320312 129.488281 C 25.011719 129.363281 24.722656 129.207031 24.445312 129.023438 C 24.171875 128.839844 23.914062 128.628906 23.679688 128.394531 C 23.445312 128.160156 23.238281 127.90625 23.054688 127.628906 C 22.867188 127.355469 22.714844 127.0625 22.585938 126.757812 C 22.460938 126.449219 22.363281 126.132812 22.296875 125.808594 C 22.234375 125.484375 22.199219 125.15625 22.199219 124.824219 L 22.199219 107.164062 C 22.199219 106.421875 22.238281 105.679688 22.3125 104.9375 C 22.386719 104.199219 22.496094 103.464844 22.640625 102.734375 C 22.785156 102.007812 22.96875 101.285156 23.183594 100.574219 C 23.398438 99.863281 23.652344 99.164062 23.933594 98.476562 C 24.21875 97.789062 24.539062 97.121094 24.890625 96.464844 C 25.238281 95.808594 25.621094 95.171875 26.035156 94.554688 C 26.449219 93.933594 26.890625 93.339844 27.363281 92.761719 C 27.835938 92.1875 28.332031 91.636719 28.859375 91.113281 C 29.386719 90.585938 29.933594 90.089844 30.511719 89.617188 C 31.085938 89.144531 31.679688 88.703125 32.300781 88.289062 C 32.917969 87.875 33.554688 87.492188 34.210938 87.140625 C 34.867188 86.792969 35.535156 86.472656 36.222656 86.1875 C 36.910156 85.902344 37.609375 85.652344 38.320312 85.4375 C 39.03125 85.21875 39.753906 85.039062 40.480469 84.894531 C 41.210938 84.746094 41.945312 84.636719 42.6875 84.566406 C 43.425781 84.492188 44.167969 84.453125 44.910156 84.453125 L 55.882812 84.453125 C 56.566406 84.449219 57.113281 84.71875 57.53125 85.261719 L 64.128906 93.964844 L 70.730469 85.261719 C 71.144531 84.71875 71.695312 84.449219 72.378906 84.453125 L 83.34375 84.453125 C 84.894531 84.457031 86.429688 84.617188 87.949219 84.9375 C 89.464844 85.253906 90.9375 85.722656 92.359375 86.339844 C 93.78125 86.960938 95.128906 87.714844 96.398438 88.609375 C 97.664062 89.503906 98.832031 90.515625 99.890625 91.648438 C 100.078125 91.847656 100.214844 92.074219 100.308594 92.332031 C 100.402344 92.585938 100.445312 92.851562 100.4375 93.125 C 100.425781 93.394531 100.363281 93.65625 100.25 93.90625 C 100.136719 94.152344 99.980469 94.371094 99.785156 94.554688 C 99.585938 94.742188 99.359375 94.882812 99.101562 94.980469 C 98.847656 95.078125 98.585938 95.125 98.3125 95.117188 C 98.039062 95.109375 97.78125 95.050781 97.53125 94.941406 C 97.28125 94.828125 97.0625 94.675781 96.875 94.480469 C 96.003906 93.554688 95.054688 92.726562 94.015625 91.996094 C 92.980469 91.265625 91.878906 90.644531 90.714844 90.140625 C 89.550781 89.632812 88.347656 89.25 87.109375 88.992188 C 85.867188 88.730469 84.609375 88.597656 83.34375 88.59375 L 73.40625 88.59375 L 65.777344 98.652344 C 65.683594 98.78125 65.574219 98.894531 65.449219 98.996094 C 65.328125 99.097656 65.195312 99.183594 65.050781 99.253906 C 64.90625 99.328125 64.757812 99.378906 64.601562 99.417969 C 64.445312 99.453125 64.289062 99.472656 64.128906 99.472656 C 63.96875 99.472656 63.8125 99.453125 63.65625 99.417969 C 63.5 99.378906 63.351562 99.328125 63.207031 99.253906 C 63.066406 99.183594 62.933594 99.097656 62.808594 98.996094 C 62.6875 98.894531 62.578125 98.78125 62.480469 98.652344 L 54.851562 88.59375 L 44.910156 88.59375 C 44.304688 88.59375 43.695312 88.625 43.089844 88.683594 C 42.488281 88.746094 41.886719 88.835938 41.289062 88.953125 C 40.695312 89.074219 40.105469 89.222656 39.523438 89.398438 C 38.941406 89.574219 38.371094 89.78125 37.808594 90.015625 C 37.246094 90.246094 36.699219 90.507812 36.160156 90.792969 C 35.625 91.082031 35.105469 91.394531 34.601562 91.730469 C 34.09375 92.070312 33.605469 92.429688 33.136719 92.816406 C 32.667969 93.203125 32.21875 93.609375 31.785156 94.039062 C 31.355469 94.46875 30.949219 94.921875 30.5625 95.390625 C 30.175781 95.859375 29.816406 96.347656 29.476562 96.851562 C 29.140625 97.359375 28.828125 97.878906 28.539062 98.414062 C 28.253906 98.953125 27.992188 99.5 27.761719 100.0625 C 27.527344 100.625 27.324219 101.195312 27.144531 101.777344 C 26.96875 102.359375 26.820312 102.945312 26.699219 103.542969 C 26.582031 104.140625 26.492188 104.738281 26.429688 105.34375 C 26.371094 105.949219 26.339844 106.554688 26.339844 107.164062 L 26.339844 124.824219 C 26.34375 125.074219 26.433594 125.289062 26.609375 125.464844 C 26.789062 125.640625 27 125.730469 27.25 125.734375 L 80.289062 125.734375 C 80.5625 125.734375 80.828125 125.789062 81.082031 125.894531 C 81.335938 126 81.558594 126.148438 81.753906 126.34375 C 81.945312 126.535156 82.097656 126.761719 82.199219 127.015625 C 82.304688 127.265625 82.359375 127.53125 82.359375 127.804688 C 82.359375 128.082031 82.304688 128.34375 82.199219 128.597656 C 82.097656 128.851562 81.945312 129.074219 81.753906 129.269531 C 81.558594 129.464844 81.335938 129.613281 81.082031 129.71875 C 80.828125 129.824219 80.5625 129.875 80.289062 129.875 Z M 80.289062 129.875 " fill-opacity="1" fill-rule="nonzero"/></g><path fill="#ffffff" d="M 39.359375 129.875 C 39.082031 129.875 38.820312 129.824219 38.566406 129.71875 C 38.3125 129.613281 38.089844 129.464844 37.894531 129.269531 C 37.699219 129.074219 37.550781 128.851562 37.445312 128.597656 C 37.339844 128.34375 37.289062 128.082031 37.289062 127.804688 L 37.289062 115.847656 C 37.289062 115.570312 37.339844 115.308594 37.445312 115.054688 C 37.550781 114.800781 37.699219 114.578125 37.894531 114.382812 C 38.089844 114.1875 38.3125 114.039062 38.566406 113.933594 C 38.820312 113.828125 39.082031 113.777344 39.359375 113.777344 C 39.632812 113.777344 39.898438 113.828125 40.152344 113.933594 C 40.402344 114.039062 40.628906 114.1875 40.820312 114.382812 C 41.015625 114.578125 41.164062 114.800781 41.269531 115.054688 C 41.375 115.308594 41.429688 115.570312 41.429688 115.847656 L 41.429688 127.804688 C 41.429688 128.082031 41.375 128.34375 41.269531 128.597656 C 41.164062 128.851562 41.015625 129.074219 40.820312 129.269531 C 40.628906 129.464844 40.402344 129.613281 40.152344 129.71875 C 39.898438 129.824219 39.632812 129.875 39.359375 129.875 Z M 39.359375 129.875 " fill-opacity="1" fill-rule="nonzero"/><path fill="#ffffff" d="M 55.882812 88.59375 C 55.605469 88.59375 55.34375 88.539062 55.089844 88.433594 C 54.835938 88.332031 54.613281 88.179688 54.417969 87.988281 C 54.222656 87.792969 54.074219 87.570312 53.96875 87.316406 C 53.863281 87.0625 53.8125 86.796875 53.8125 86.523438 L 53.8125 73.542969 C 53.800781 73.265625 53.847656 72.992188 53.945312 72.730469 C 54.046875 72.46875 54.195312 72.234375 54.390625 72.03125 C 54.585938 71.832031 54.8125 71.675781 55.070312 71.566406 C 55.328125 71.453125 55.597656 71.398438 55.878906 71.398438 C 56.160156 71.398438 56.429688 71.453125 56.691406 71.566406 C 56.949219 71.675781 57.175781 71.832031 57.371094 72.03125 C 57.566406 72.234375 57.710938 72.46875 57.8125 72.730469 C 57.914062 72.992188 57.957031 73.265625 57.949219 73.542969 L 57.949219 86.523438 C 57.949219 86.796875 57.898438 87.0625 57.792969 87.316406 C 57.6875 87.570312 57.539062 87.792969 57.34375 87.988281 C 57.148438 88.179688 56.925781 88.332031 56.671875 88.433594 C 56.417969 88.539062 56.15625 88.59375 55.882812 88.59375 Z M 55.882812 88.59375 " fill-opacity="1" fill-rule="nonzero"/><path fill="#ffffff" d="M 72.378906 88.59375 C 72.105469 88.59375 71.839844 88.539062 71.585938 88.433594 C 71.335938 88.332031 71.109375 88.179688 70.917969 87.988281 C 70.722656 87.792969 70.574219 87.570312 70.46875 87.316406 C 70.363281 87.0625 70.308594 86.796875 70.308594 86.523438 L 70.308594 73.542969 C 70.308594 73.269531 70.363281 73.007812 70.46875 72.753906 C 70.574219 72.5 70.722656 72.273438 70.917969 72.082031 C 71.109375 71.886719 71.335938 71.738281 71.585938 71.632812 C 71.839844 71.527344 72.105469 71.472656 72.378906 71.472656 C 72.65625 71.472656 72.917969 71.527344 73.171875 71.632812 C 73.425781 71.738281 73.648438 71.886719 73.84375 72.082031 C 74.039062 72.273438 74.1875 72.5 74.292969 72.753906 C 74.398438 73.007812 74.449219 73.269531 74.449219 73.542969 L 74.449219 86.523438 C 74.449219 86.796875 74.398438 87.0625 74.292969 87.316406 C 74.1875 87.570312 74.039062 87.792969 73.84375 87.988281 C 73.648438 88.179688 73.425781 88.332031 73.171875 88.433594 C 72.917969 88.539062 72.65625 88.59375 72.378906 88.59375 Z M 72.378906 88.59375 " fill-opacity="1" fill-rule="nonzero"/><g clip-path="url(#649f42567c)"><path fill="#ffffff" d="M 122.007812 135.003906 L 83.984375 135.003906 C 83.605469 135.003906 83.230469 134.964844 82.859375 134.890625 C 82.488281 134.816406 82.128906 134.707031 81.777344 134.5625 C 81.429688 134.414062 81.097656 134.238281 80.78125 134.027344 C 80.46875 133.816406 80.175781 133.578125 79.910156 133.308594 C 79.644531 133.042969 79.402344 132.75 79.195312 132.4375 C 78.984375 132.121094 78.804688 131.789062 78.660156 131.441406 C 78.515625 131.089844 78.40625 130.730469 78.332031 130.359375 C 78.257812 129.988281 78.222656 129.613281 78.222656 129.234375 L 78.222656 104.679688 C 78.222656 104.300781 78.257812 103.925781 78.332031 103.554688 C 78.40625 103.183594 78.515625 102.824219 78.660156 102.472656 C 78.808594 102.125 78.984375 101.792969 79.195312 101.476562 C 79.40625 101.164062 79.644531 100.871094 79.910156 100.605469 C 80.179688 100.335938 80.472656 100.097656 80.785156 99.886719 C 81.101562 99.675781 81.433594 99.5 81.78125 99.355469 C 82.132812 99.210938 82.492188 99.101562 82.863281 99.027344 C 83.234375 98.953125 83.609375 98.914062 83.988281 98.914062 L 122.007812 98.914062 C 122.386719 98.914062 122.761719 98.953125 123.132812 99.027344 C 123.503906 99.101562 123.863281 99.210938 124.214844 99.355469 C 124.5625 99.5 124.894531 99.675781 125.210938 99.886719 C 125.523438 100.097656 125.816406 100.335938 126.082031 100.605469 C 126.351562 100.871094 126.589844 101.164062 126.800781 101.476562 C 127.011719 101.792969 127.1875 102.125 127.332031 102.472656 C 127.476562 102.824219 127.585938 103.183594 127.660156 103.554688 C 127.734375 103.925781 127.773438 104.300781 127.773438 104.679688 L 127.773438 129.234375 C 127.773438 129.613281 127.734375 129.988281 127.660156 130.359375 C 127.585938 130.730469 127.476562 131.089844 127.332031 131.441406 C 127.1875 131.789062 127.011719 132.121094 126.800781 132.4375 C 126.589844 132.75 126.351562 133.042969 126.082031 133.3125 C 125.816406 133.578125 125.523438 133.816406 125.210938 134.027344 C 124.894531 134.238281 124.5625 134.417969 124.214844 134.5625 C 123.863281 134.707031 123.503906 134.816406 123.132812 134.890625 C 122.761719 134.964844 122.386719 135.003906 122.007812 135.003906 Z M 83.984375 103.054688 C 83.769531 103.054688 83.5625 103.09375 83.363281 103.175781 C 83.167969 103.257812 82.992188 103.375 82.839844 103.527344 C 82.6875 103.679688 82.570312 103.855469 82.488281 104.050781 C 82.40625 104.25 82.367188 104.457031 82.367188 104.671875 L 82.367188 129.226562 C 82.367188 129.441406 82.40625 129.648438 82.488281 129.84375 C 82.570312 130.042969 82.6875 130.21875 82.839844 130.371094 C 82.992188 130.523438 83.167969 130.636719 83.363281 130.71875 C 83.5625 130.800781 83.769531 130.84375 83.984375 130.84375 L 122.007812 130.84375 C 122.222656 130.84375 122.429688 130.800781 122.628906 130.71875 C 122.824219 130.636719 123 130.523438 123.152344 130.371094 C 123.304688 130.21875 123.421875 130.042969 123.503906 129.84375 C 123.585938 129.648438 123.625 129.441406 123.625 129.226562 L 123.625 104.671875 C 123.625 104.457031 123.585938 104.25 123.503906 104.050781 C 123.421875 103.855469 123.304688 103.679688 123.152344 103.527344 C 123 103.375 122.824219 103.257812 122.628906 103.175781 C 122.429688 103.09375 122.222656 103.054688 122.007812 103.054688 Z M 83.984375 103.054688 " fill-opacity="1" fill-rule="nonzero"/></g><path fill="#ffffff" d="M 112.371094 103.054688 L 93.621094 103.054688 C 93.347656 103.054688 93.085938 103 92.832031 102.894531 C 92.578125 102.792969 92.351562 102.640625 92.160156 102.449219 C 91.964844 102.253906 91.816406 102.03125 91.710938 101.777344 C 91.605469 101.523438 91.550781 101.257812 91.550781 100.984375 L 91.550781 93.058594 C 91.550781 92.785156 91.605469 92.519531 91.710938 92.265625 C 91.816406 92.011719 91.964844 91.789062 92.160156 91.59375 C 92.351562 91.402344 92.578125 91.25 92.832031 91.148438 C 93.085938 91.042969 93.347656 90.988281 93.621094 90.988281 L 112.371094 90.988281 C 112.644531 90.988281 112.90625 91.042969 113.160156 91.148438 C 113.414062 91.25 113.640625 91.402344 113.832031 91.59375 C 114.027344 91.789062 114.175781 92.011719 114.28125 92.265625 C 114.386719 92.519531 114.4375 92.785156 114.4375 93.058594 L 114.4375 100.984375 C 114.4375 101.257812 114.386719 101.523438 114.28125 101.777344 C 114.175781 102.03125 114.027344 102.253906 113.832031 102.449219 C 113.640625 102.640625 113.414062 102.792969 113.160156 102.894531 C 112.90625 103 112.644531 103.054688 112.371094 103.054688 Z M 95.691406 98.914062 L 110.296875 98.914062 L 110.296875 95.140625 L 95.691406 95.140625 Z M 95.691406 98.914062 " fill-opacity="1" fill-rule="nonzero"/><g clip-path="url(#daf7c64d79)"><path fill="#ffffff" d="M 125.703125 119.027344 L 80.289062 119.027344 C 80.015625 119.027344 79.75 118.972656 79.496094 118.871094 C 79.242188 118.765625 79.019531 118.613281 78.824219 118.421875 C 78.628906 118.226562 78.480469 118.003906 78.375 117.75 C 78.269531 117.496094 78.21875 117.230469 78.21875 116.957031 C 78.21875 116.683594 78.269531 116.417969 78.375 116.164062 C 78.480469 115.910156 78.628906 115.6875 78.824219 115.492188 C 79.019531 115.300781 79.242188 115.148438 79.496094 115.042969 C 79.75 114.9375 80.015625 114.886719 80.289062 114.886719 L 125.703125 114.886719 C 125.976562 114.886719 126.242188 114.9375 126.496094 115.042969 C 126.75 115.148438 126.972656 115.300781 127.167969 115.492188 C 127.363281 115.6875 127.511719 115.910156 127.617188 116.164062 C 127.722656 116.417969 127.773438 116.683594 127.773438 116.957031 C 127.773438 117.230469 127.722656 117.496094 127.617188 117.75 C 127.511719 118.003906 127.363281 118.226562 127.167969 118.421875 C 126.972656 118.613281 126.75 118.765625 126.496094 118.871094 C 126.242188 118.972656 125.976562 119.027344 125.703125 119.027344 Z M 125.703125 119.027344 " fill-opacity="1" fill-rule="nonzero"/></g><path fill="#ffffff" d="M 64.128906 129.875 C 63.855469 129.875 63.589844 129.824219 63.335938 129.71875 C 63.082031 129.613281 62.859375 129.464844 62.664062 129.269531 C 62.472656 129.074219 62.320312 128.851562 62.21875 128.597656 C 62.113281 128.34375 62.058594 128.082031 62.058594 127.804688 L 62.058594 97.402344 C 62.058594 97.128906 62.113281 96.863281 62.21875 96.609375 C 62.320312 96.355469 62.472656 96.132812 62.664062 95.9375 C 62.859375 95.742188 63.082031 95.59375 63.335938 95.488281 C 63.589844 95.382812 63.855469 95.332031 64.128906 95.332031 C 64.402344 95.332031 64.667969 95.382812 64.921875 95.488281 C 65.175781 95.59375 65.398438 95.742188 65.59375 95.9375 C 65.789062 96.132812 65.9375 96.355469 66.042969 96.609375 C 66.148438 96.863281 66.199219 97.128906 66.199219 97.402344 L 66.199219 127.804688 C 66.199219 128.082031 66.148438 128.34375 66.042969 128.597656 C 65.9375 128.851562 65.789062 129.074219 65.59375 129.269531 C 65.398438 129.464844 65.175781 129.613281 64.921875 129.71875 C 64.667969 129.824219 64.402344 129.875 64.128906 129.875 Z M 64.128906 129.875 " fill-opacity="1" fill-rule="nonzero"/></svg>