<svg xmlns="http://www.w3.org/2000/svg" xmlns:xlink="http://www.w3.org/1999/xlink" width="200" zoomAndPan="magnify" viewBox="0 0 150 149.999998" height="200" preserveAspectRatio="xMidYMid meet" version="1.0"><defs><clipPath id="859d310f70"><path d="M 15 37.648438 L 135 37.648438 L 135 112.648438 L 15 112.648438 Z M 15 37.648438 " clip-rule="nonzero"/></clipPath></defs><g clip-path="url(#859d310f70)"><path fill="#ffffff" d="M 135 87.429688 C 135 84.003906 132.214844 81.214844 128.789062 81.214844 L 126.894531 81.214844 C 126.898438 81.097656 126.90625 80.976562 126.90625 80.855469 C 126.90625 75.929688 122.902344 71.929688 117.976562 71.929688 C 117.691406 71.929688 117.410156 71.941406 117.128906 71.96875 C 116.753906 70.777344 116.136719 69.699219 115.335938 68.785156 L 132.429688 51.691406 C 133.464844 50.65625 134.035156 49.277344 134.035156 47.804688 C 134.035156 46.335938 133.464844 44.957031 132.429688 43.917969 C 131.394531 42.882812 130.015625 42.3125 128.542969 42.3125 C 127.074219 42.3125 125.695312 42.882812 124.65625 43.917969 L 106.003906 62.574219 C 104.359375 60.621094 101.894531 59.394531 99.167969 59.394531 C 98.835938 59.394531 98.503906 59.414062 98.175781 59.449219 C 97.042969 55.769531 93.617188 53.15625 89.640625 53.15625 C 85.664062 53.15625 82.238281 55.769531 81.105469 59.449219 C 80.777344 59.414062 80.449219 59.394531 80.117188 59.394531 C 76.101562 59.394531 72.667969 62.039062 71.558594 65.757812 C 71.265625 65.730469 70.972656 65.714844 70.675781 65.714844 C 67.550781 65.714844 64.753906 67.34375 63.15625 69.835938 L 63.539062 65.386719 L 66.484375 65.386719 C 67.308594 65.386719 67.980469 64.71875 67.980469 63.894531 L 67.980469 58.144531 C 67.980469 57.320312 67.308594 56.648438 66.484375 56.648438 L 63.730469 56.648438 L 63.730469 56.640625 C 63.730469 53.492188 61.167969 50.929688 58.019531 50.929688 L 42.980469 50.929688 L 42.980469 43.835938 C 42.980469 43.320312 42.714844 42.84375 42.277344 42.570312 L 35.144531 38.113281 C 34.445312 37.671875 33.523438 37.886719 33.085938 38.585938 C 32.648438 39.285156 32.863281 40.207031 33.5625 40.644531 L 39.992188 44.667969 L 39.992188 50.929688 L 24.957031 50.929688 C 21.808594 50.929688 19.246094 53.492188 19.246094 56.640625 L 19.246094 56.648438 L 16.492188 56.648438 C 15.667969 56.648438 15 57.320312 15 58.144531 L 15 63.894531 C 15 64.71875 15.667969 65.386719 16.492188 65.386719 L 19.441406 65.386719 L 23.019531 106.804688 C 23.289062 109.945312 25.871094 112.3125 29.023438 112.3125 L 53.957031 112.3125 C 57.066406 112.3125 59.617188 110.003906 59.941406 106.925781 L 62.667969 110.574219 C 63.503906 111.695312 64.734375 112.3125 66.132812 112.3125 L 113.140625 112.3125 C 114.539062 112.3125 115.769531 111.695312 116.605469 110.574219 L 129.265625 93.621094 C 132.46875 93.375 135 90.691406 135 87.429688 Z M 126.769531 46.03125 C 127.238281 45.558594 127.871094 45.300781 128.542969 45.300781 C 129.214844 45.300781 129.84375 45.558594 130.316406 46.03125 C 130.785156 46.5 131.042969 47.132812 131.042969 47.804688 C 131.042969 48.476562 130.785156 49.105469 130.316406 49.574219 L 113.007812 66.882812 C 111.703125 66.136719 110.195312 65.714844 108.601562 65.714844 C 108.304688 65.714844 108.011719 65.730469 107.71875 65.757812 C 107.667969 65.585938 107.609375 65.414062 107.550781 65.25 Z M 64.128906 74.933594 C 64.488281 74.695312 64.726562 74.308594 64.78125 73.878906 C 65.160156 70.925781 67.691406 68.703125 70.675781 68.703125 C 71.234375 68.703125 71.785156 68.777344 72.3125 68.929688 C 72.738281 69.050781 73.191406 68.980469 73.554688 68.734375 C 73.921875 68.488281 74.160156 68.09375 74.207031 67.660156 C 74.542969 64.648438 77.078125 62.378906 80.113281 62.378906 C 80.695312 62.378906 81.269531 62.464844 81.828125 62.632812 C 82.25 62.757812 82.707031 62.691406 83.078125 62.449219 C 83.445312 62.207031 83.6875 61.816406 83.742188 61.375 C 84.09375 58.390625 86.628906 56.144531 89.640625 56.144531 C 92.652344 56.144531 95.1875 58.394531 95.539062 61.375 C 95.589844 61.816406 95.832031 62.207031 96.203125 62.449219 C 96.574219 62.691406 97.03125 62.757812 97.453125 62.632812 C 98.007812 62.464844 98.585938 62.378906 99.167969 62.378906 C 102.199219 62.378906 104.738281 64.648438 105.070312 67.660156 C 105.121094 68.097656 105.359375 68.488281 105.722656 68.734375 C 106.089844 68.976562 106.542969 69.050781 106.96875 68.929688 C 107.496094 68.777344 108.046875 68.703125 108.605469 68.703125 C 111.585938 68.703125 114.121094 70.925781 114.496094 73.878906 C 114.550781 74.308594 114.792969 74.695312 115.152344 74.933594 C 115.515625 75.175781 115.960938 75.246094 116.378906 75.128906 C 116.898438 74.984375 117.4375 74.914062 117.976562 74.914062 C 121.253906 74.914062 123.917969 77.578125 123.917969 80.851562 C 123.917969 80.972656 123.914062 81.09375 123.90625 81.214844 L 77.542969 81.214844 L 79.109375 79.652344 C 80.28125 78.476562 80.28125 76.570312 79.109375 75.394531 L 76.53125 72.820312 C 75.964844 72.25 75.210938 71.941406 74.402344 71.941406 C 73.597656 71.941406 72.839844 72.25 72.273438 72.820312 L 68.019531 77.074219 C 66.882812 78.210938 66.851562 80.035156 67.914062 81.214844 L 55.371094 81.214844 C 55.363281 81.09375 55.359375 80.976562 55.359375 80.851562 C 55.359375 77.578125 58.027344 74.914062 61.300781 74.914062 C 61.84375 74.914062 62.378906 74.984375 62.898438 75.128906 C 63.320312 75.246094 63.765625 75.175781 64.128906 74.933594 Z M 72.132812 81.214844 L 70.136719 79.21875 C 70.128906 79.210938 70.128906 79.191406 70.136719 79.1875 L 74.390625 74.933594 C 74.394531 74.929688 74.414062 74.929688 74.417969 74.933594 L 76.996094 77.507812 C 77 77.515625 77 77.535156 76.996094 77.539062 L 73.320312 81.214844 Z M 22.238281 56.640625 C 22.238281 55.140625 23.460938 53.917969 24.960938 53.917969 L 58.023438 53.917969 C 59.523438 53.917969 60.746094 55.140625 60.746094 56.640625 L 60.746094 56.648438 L 22.238281 56.648438 Z M 17.988281 59.636719 L 64.996094 59.636719 L 64.996094 62.398438 L 17.988281 62.398438 Z M 22.441406 65.386719 L 60.539062 65.386719 L 59.96875 72.027344 C 55.675781 72.675781 52.375 76.386719 52.375 80.855469 C 52.375 80.976562 52.382812 81.097656 52.390625 81.214844 L 51.417969 81.214844 C 50.527344 76.519531 46.417969 73.019531 41.492188 73.019531 C 35.921875 73.019531 31.386719 77.550781 31.386719 83.125 C 31.386719 88.695312 35.921875 93.230469 41.492188 93.230469 C 43.195312 93.230469 44.832031 92.8125 46.304688 92.011719 C 47.296875 92.921875 48.589844 93.511719 50.015625 93.621094 L 55.417969 100.863281 L 25.507812 100.863281 Z M 44.28125 87.429688 C 44.28125 88.15625 44.40625 88.855469 44.640625 89.507812 C 43.667969 89.988281 42.597656 90.242188 41.492188 90.242188 C 37.570312 90.242188 34.375 87.046875 34.375 83.125 C 34.375 79.199219 37.566406 76.007812 41.492188 76.007812 C 44.886719 76.007812 47.730469 78.367188 48.4375 81.566406 C 46.019531 82.417969 44.28125 84.722656 44.28125 87.429688 Z M 53.957031 109.320312 L 29.023438 109.320312 C 27.433594 109.320312 26.132812 108.128906 25.996094 106.546875 L 25.761719 103.84375 L 57.214844 103.84375 L 56.984375 106.546875 C 56.847656 108.128906 55.546875 109.320312 53.957031 109.320312 Z M 114.214844 108.785156 C 113.949219 109.144531 113.597656 109.320312 113.144531 109.320312 L 66.132812 109.320312 C 65.683594 109.320312 65.332031 109.144531 65.0625 108.785156 L 53.753906 93.640625 L 125.523438 93.640625 Z M 128.789062 90.652344 L 50.492188 90.652344 C 48.714844 90.652344 47.269531 89.207031 47.269531 87.429688 C 47.269531 85.652344 48.714844 84.203125 50.492188 84.203125 L 128.785156 84.203125 C 130.5625 84.203125 132.011719 85.652344 132.011719 87.429688 C 132.011719 89.207031 130.566406 90.652344 128.789062 90.652344 Z M 91.808594 74.695312 L 97.019531 77.707031 C 97.484375 77.972656 97.996094 78.109375 98.515625 78.109375 C 98.777344 78.109375 99.042969 78.074219 99.304688 78.003906 C 100.082031 77.796875 100.730469 77.300781 101.132812 76.605469 L 102.953125 73.449219 C 103.355469 72.753906 103.460938 71.941406 103.253906 71.167969 C 103.042969 70.390625 102.546875 69.738281 101.851562 69.339844 L 96.640625 66.328125 C 95.207031 65.5 93.359375 65.992188 92.53125 67.429688 L 90.710938 70.585938 C 89.878906 72.023438 90.375 73.867188 91.808594 74.695312 Z M 93.296875 72.078125 L 95.117188 68.921875 C 95.121094 68.917969 95.132812 68.914062 95.140625 68.914062 C 95.144531 68.914062 95.144531 68.914062 95.148438 68.914062 L 100.359375 71.925781 C 100.371094 71.929688 100.371094 71.945312 100.367188 71.957031 L 98.542969 75.113281 C 98.539062 75.121094 98.523438 75.125 98.515625 75.121094 L 93.304688 72.109375 C 93.296875 72.105469 93.292969 72.085938 93.296875 72.078125 Z M 107.65625 75.71875 C 107.65625 74.894531 108.324219 74.222656 109.148438 74.222656 C 109.972656 74.222656 110.644531 74.894531 110.644531 75.71875 C 110.644531 76.542969 109.972656 77.210938 109.148438 77.210938 C 108.324219 77.210938 107.65625 76.542969 107.65625 75.71875 Z M 81.058594 67.898438 C 81.058594 67.074219 81.730469 66.40625 82.554688 66.40625 C 83.378906 66.40625 84.046875 67.074219 84.046875 67.898438 C 84.046875 68.722656 83.378906 69.394531 82.554688 69.394531 C 81.730469 69.394531 81.058594 68.722656 81.058594 67.898438 Z M 85 76.242188 C 85 75.417969 85.667969 74.75 86.492188 74.75 C 87.316406 74.75 87.984375 75.417969 87.984375 76.242188 C 87.984375 77.066406 87.316406 77.734375 86.492188 77.734375 C 85.667969 77.734375 85 77.066406 85 76.242188 Z M 85 76.242188 " fill-opacity="1" fill-rule="evenodd"/></g></svg>