<svg xmlns="http://www.w3.org/2000/svg" xmlns:xlink="http://www.w3.org/1999/xlink" width="200" zoomAndPan="magnify" viewBox="0 0 150 149.999998" height="200" preserveAspectRatio="xMidYMid meet" version="1.0"><defs><clipPath id="06d5bd0458"><path d="M 24.699219 86 L 125 86 L 125 128.449219 L 24.699219 128.449219 Z M 24.699219 86 " clip-rule="nonzero"/></clipPath><clipPath id="d3a007c928"><path d="M 87 21.199219 L 91 21.199219 L 91 30 L 87 30 Z M 87 21.199219 " clip-rule="nonzero"/></clipPath><clipPath id="cd7293214b"><path d="M 117 55 L 125.199219 55 L 125.199219 60 L 117 60 Z M 117 55 " clip-rule="nonzero"/></clipPath></defs><g clip-path="url(#06d5bd0458)"><path fill="#ffffff" d="M 40.496094 91.402344 C 43.550781 89.867188 46.398438 88.300781 49.355469 86.988281 C 52.917969 85.410156 56.347656 85.964844 60.042969 87.273438 C 66.289062 89.488281 72.808594 90.910156 79.144531 92.890625 C 81.203125 93.535156 83.292969 94.589844 84.902344 95.996094 C 86.023438 96.976562 86.351562 98.871094 87.109375 100.519531 C 89.316406 99.40625 91.683594 98.222656 94.046875 97.023438 C 100.363281 93.820312 106.628906 90.515625 113.003906 87.4375 C 118.976562 84.550781 125.164062 88.777344 124.550781 95.199219 C 124.308594 97.742188 123.042969 99.738281 120.847656 101.007812 C 107.84375 108.550781 94.84375 116.109375 81.773438 123.535156 C 78.402344 125.449219 74.703125 124.558594 71.164062 123.792969 C 66.152344 122.714844 61.199219 121.332031 56.160156 120.425781 C 53.75 119.992188 51.199219 120.351562 48.554688 120.351562 C 48.785156 124.957031 46.476562 126.960938 42.613281 127.636719 C 41.410156 127.847656 40.246094 128.296875 39.054688 128.582031 C 35.863281 129.34375 33.234375 127.925781 32.351562 124.71875 C 29.800781 115.457031 27.308594 106.179688 24.882812 96.882812 C 24.167969 94.15625 25.574219 91.53125 28.214844 90.625 C 30.335938 89.898438 32.496094 89.316406 34.695312 88.875 C 37.039062 88.402344 38.347656 89.074219 40.496094 91.402344 Z M 47.398438 116.953125 C 50.738281 116.953125 53.960938 116.527344 57.023438 117.046875 C 62.710938 118.003906 68.292969 119.574219 73.949219 120.757812 C 76.359375 121.261719 78.777344 121.347656 81.101562 119.996094 C 93.472656 112.792969 105.886719 105.664062 118.277344 98.488281 C 121.046875 96.886719 121.890625 94.472656 120.585938 92.164062 C 119.355469 89.988281 116.816406 89.390625 114.121094 90.726562 C 110.949219 92.296875 107.804688 93.929688 104.652344 95.542969 C 97.707031 99.097656 90.707031 102.558594 83.847656 106.277344 C 81.453125 107.574219 79.199219 108.082031 76.609375 107.347656 C 73.96875 106.597656 71.304688 105.925781 68.652344 105.214844 C 66.421875 104.617188 64.140625 104.140625 61.988281 103.328125 C 61.324219 103.074219 61.015625 101.886719 60.546875 101.128906 C 61.308594 100.773438 62.042969 100.3125 62.84375 100.105469 C 63.269531 99.992188 63.8125 100.3125 64.300781 100.4375 C 68.980469 101.675781 73.648438 102.96875 78.347656 104.121094 C 80.613281 104.675781 82.457031 103.464844 83 101.339844 C 83.5 99.382812 82.398438 97.496094 80.3125 96.773438 C 79.765625 96.585938 79.195312 96.46875 78.640625 96.304688 C 71.382812 94.144531 64.136719 91.9375 56.855469 89.859375 C 55.523438 89.492188 54.175781 89.425781 52.8125 89.65625 C 48.574219 90.40625 45.148438 92.871094 41.574219 95.246094 C 43.542969 102.578125 45.484375 109.8125 47.398438 116.953125 Z M 45.152344 122.203125 C 44.964844 121.433594 44.902344 121.152344 44.824219 120.875 C 42.433594 111.964844 40.046875 103.050781 37.664062 94.136719 C 37.242188 92.546875 36.296875 92.007812 34.773438 92.390625 C 33.164062 92.792969 31.5625 93.21875 29.972656 93.6875 C 28.589844 94.09375 27.949219 94.933594 28.359375 96.457031 C 30.773438 105.4375 33.171875 114.425781 35.554688 123.414062 C 35.953125 124.902344 36.84375 125.617188 38.449219 125.160156 C 40.046875 124.707031 41.699219 124.417969 43.234375 123.8125 C 44.03125 123.5 44.625 122.664062 45.152344 122.203125 Z M 45.152344 122.203125 " fill-opacity="1" fill-rule="nonzero"/></g><path fill="#ffffff" d="M 89.117188 72.890625 C 85.710938 75.371094 82.441406 77.75 79.171875 80.132812 C 76.742188 81.902344 75.070312 82.15625 73.460938 80.910156 C 71.402344 79.320312 71.800781 77.304688 72.511719 75.207031 C 73.800781 71.386719 75.03125 67.546875 76.324219 63.605469 C 72.859375 61.097656 69.488281 58.617188 66.074219 56.199219 C 64.335938 54.972656 63.148438 53.492188 63.855469 51.28125 C 64.558594 49.085938 66.347656 48.488281 68.492188 48.511719 C 72.179688 48.554688 75.867188 48.472656 79.554688 48.570312 C 80.890625 48.605469 81.453125 48.125 81.820312 46.886719 C 82.871094 43.359375 84.070312 39.875 85.15625 36.359375 C 85.769531 34.386719 86.871094 32.929688 89.058594 32.898438 C 91.363281 32.867188 92.488281 34.394531 93.121094 36.4375 C 94.148438 39.746094 95.328125 43.011719 96.253906 46.347656 C 96.710938 48.011719 97.394531 48.679688 99.21875 48.585938 C 102.679688 48.410156 106.15625 48.558594 109.628906 48.511719 C 111.757812 48.480469 113.570312 49.003906 114.324219 51.195312 C 115.085938 53.402344 113.953125 54.90625 112.207031 56.140625 C 109.199219 58.273438 106.265625 60.507812 103.226562 62.59375 C 102.136719 63.339844 101.9375 64.023438 102.378906 65.261719 C 103.632812 68.800781 104.703125 72.402344 105.914062 75.953125 C 106.597656 77.949219 106.429688 79.714844 104.625 80.964844 C 102.917969 82.144531 101.222656 81.746094 99.617188 80.558594 C 96.1875 78.027344 92.734375 75.53125 89.117188 72.890625 Z M 110.996094 52.675781 L 110.847656 52.136719 C 110.152344 52.09375 109.460938 52.023438 108.769531 52.023438 C 104.863281 52.019531 100.953125 51.957031 97.050781 52.078125 C 95.164062 52.136719 94.167969 51.527344 93.625 49.640625 C 92.464844 45.617188 91.089844 41.65625 89.78125 37.679688 C 89.640625 37.246094 89.347656 36.863281 88.914062 36.070312 C 87.324219 41.019531 85.863281 45.398438 84.523438 49.8125 C 84.019531 51.460938 83.152344 52.125 81.398438 52.078125 C 77.277344 51.964844 73.152344 52.019531 69.027344 52.023438 C 68.449219 52.023438 67.871094 52.125 67.292969 52.179688 C 70.164062 54.816406 73.140625 56.957031 76.097656 59.125 C 81.316406 62.957031 80.566406 61.46875 78.746094 67.421875 C 77.679688 70.917969 76.492188 74.375 75.359375 77.847656 C 76.328125 77.777344 76.917969 77.433594 77.46875 77.035156 C 80.746094 74.65625 84.046875 72.3125 87.269531 69.855469 C 88.585938 68.851562 89.636719 68.867188 90.941406 69.859375 C 94.164062 72.308594 97.464844 74.660156 100.738281 77.039062 C 101.289062 77.4375 101.871094 77.785156 102.910156 78.46875 C 102.578125 77.21875 102.433594 76.535156 102.21875 75.875 C 101.085938 72.371094 99.941406 68.871094 98.789062 65.371094 C 97.765625 62.246094 97.765625 62.246094 100.492188 60.273438 C 103.992188 57.742188 107.496094 55.210938 110.996094 52.675781 Z M 110.996094 52.675781 " fill-opacity="1" fill-rule="nonzero"/><g clip-path="url(#d3a007c928)"><path fill="#ffffff" d="M 90.785156 25.351562 C 90.78125 26.144531 91.003906 27.03125 90.71875 27.707031 C 90.445312 28.367188 89.71875 29.132812 89.078125 29.25 C 88.625 29.332031 87.566406 28.464844 87.507812 27.9375 C 87.304688 26.144531 87.304688 24.347656 87.507812 22.554688 C 87.566406 22.019531 88.628906 21.132812 89.074219 21.21875 C 89.71875 21.34375 90.46875 22.113281 90.71875 22.777344 C 91.003906 23.539062 90.785156 24.484375 90.785156 25.351562 Z M 90.785156 25.351562 " fill-opacity="1" fill-rule="nonzero"/></g><path fill="#ffffff" d="M 57.070312 58.949219 C 56.203125 58.949219 55.273438 59.148438 54.492188 58.890625 C 53.871094 58.683594 53.050781 57.945312 53.015625 57.398438 C 52.976562 56.84375 53.738281 55.777344 54.238281 55.71875 C 56.101562 55.511719 57.964844 55.507812 59.828125 55.707031 C 60.324219 55.757812 61.074219 56.804688 61.050781 57.367188 C 61.03125 57.910156 60.25 58.679688 59.648438 58.882812 C 58.871094 59.148438 57.9375 58.949219 57.070312 58.949219 Z M 57.070312 58.949219 " fill-opacity="1" fill-rule="nonzero"/><g clip-path="url(#cd7293214b)"><path fill="#ffffff" d="M 121.113281 58.972656 C 120.320312 58.972656 119.441406 59.179688 118.753906 58.910156 C 118.089844 58.648438 117.179688 57.898438 117.171875 57.355469 C 117.167969 56.761719 118.015625 55.734375 118.605469 55.644531 C 120.226562 55.402344 121.9375 55.371094 123.554688 55.625 C 124.210938 55.730469 124.714844 56.796875 125.289062 57.425781 C 124.691406 57.941406 124.167969 58.660156 123.476562 58.917969 C 122.777344 59.175781 121.90625 58.976562 121.113281 58.972656 Z M 121.113281 58.972656 " fill-opacity="1" fill-rule="nonzero"/></g><path fill="#ffffff" d="M 70.332031 35.886719 C 69.625 36.828125 69.355469 37.527344 68.871094 37.746094 C 68.382812 37.964844 67.488281 37.933594 67.109375 37.617188 C 65.789062 36.5 64.5625 35.285156 63.4375 33.972656 C 63.109375 33.589844 63.042969 32.683594 63.265625 32.21875 C 63.496094 31.742188 64.539062 31.117188 64.707031 31.242188 C 66.585938 32.671875 68.367188 34.230469 70.332031 35.886719 Z M 70.332031 35.886719 " fill-opacity="1" fill-rule="nonzero"/><path fill="#ffffff" d="M 115.355469 32.777344 C 115.042969 33.382812 114.898438 33.898438 114.574219 34.246094 C 113.542969 35.355469 112.546875 36.554688 111.324219 37.414062 C 110.75 37.816406 109.6875 37.519531 108.847656 37.539062 C 108.832031 36.75 108.492188 35.71875 108.867188 35.222656 C 109.855469 33.90625 111.09375 32.753906 112.355469 31.679688 C 112.75 31.34375 113.613281 31.242188 114.113281 31.425781 C 114.617188 31.613281 114.933594 32.292969 115.355469 32.777344 Z M 115.355469 32.777344 " fill-opacity="1" fill-rule="nonzero"/><path fill="#ffffff" d="M 36.402344 98.246094 C 36.273438 99.933594 35.359375 100.90625 33.773438 100.886719 C 32.179688 100.867188 31.1875 99.820312 31.234375 98.230469 C 31.28125 96.773438 32.171875 95.792969 33.734375 95.773438 C 35.390625 95.75 36.207031 96.714844 36.402344 98.246094 Z M 36.402344 98.246094 " fill-opacity="1" fill-rule="nonzero"/></svg>