<svg xmlns="http://www.w3.org/2000/svg" xmlns:xlink="http://www.w3.org/1999/xlink" width="200" zoomAndPan="magnify" viewBox="0 0 150 149.999998" height="200" preserveAspectRatio="xMidYMid meet" version="1.0"><defs><clipPath id="17550aecae"><path d="M 20.488281 20.488281 L 129.238281 20.488281 L 129.238281 129.238281 L 20.488281 129.238281 Z M 20.488281 20.488281 " clip-rule="nonzero"/></clipPath></defs><g clip-path="url(#17550aecae)"><path fill="#ffffff" d="M 123.449219 98.164062 L 121.652344 98.164062 L 121.652344 54.03125 C 121.652344 50.351562 119.28125 47.21875 115.988281 46.070312 L 115.988281 41.746094 C 115.988281 39.835938 114.433594 38.277344 112.523438 38.277344 L 109.339844 38.277344 L 109.339844 22.191406 C 109.339844 21.25 108.578125 20.488281 107.636719 20.488281 C 106.695312 20.488281 105.933594 21.25 105.933594 22.191406 L 105.933594 38.277344 L 102.753906 38.277344 C 100.839844 38.277344 99.28125 39.832031 99.28125 41.746094 L 99.28125 46.070312 C 95.988281 47.21875 93.621094 50.351562 93.621094 54.03125 L 93.621094 98.164062 L 91.828125 98.164062 C 91.777344 98.164062 91.722656 98.167969 91.671875 98.167969 L 91.671875 89.683594 C 91.671875 85.890625 89.566406 82.441406 86.179688 80.683594 C 85.613281 80.390625 85.304688 79.882812 85.304688 79.25 L 85.304688 77.289062 L 85.964844 77.289062 C 87.941406 77.289062 89.554688 75.675781 89.554688 73.695312 L 89.554688 67.328125 C 89.554688 65.347656 87.945312 63.738281 85.964844 63.738281 L 73.105469 63.738281 C 75.851562 59.292969 77.289062 54.21875 77.289062 48.890625 C 77.289062 33.230469 64.550781 20.492188 48.890625 20.492188 C 33.234375 20.492188 20.492188 33.230469 20.492188 48.890625 C 20.492188 64.550781 33.234375 77.289062 48.890625 77.289062 C 50.832031 77.289062 52.753906 77.09375 54.621094 76.707031 C 55.183594 77.074219 55.855469 77.289062 56.574219 77.289062 L 57.234375 77.289062 L 57.234375 79.25 C 57.234375 79.882812 56.921875 80.390625 56.359375 80.683594 C 52.96875 82.441406 50.867188 85.890625 50.867188 89.683594 L 50.867188 121.863281 C 50.867188 126.078125 54.296875 129.507812 58.511719 129.507812 L 84.027344 129.507812 C 88.242188 129.507812 91.675781 126.078125 91.675781 121.863281 L 91.675781 110.273438 C 91.726562 110.277344 91.777344 110.277344 91.832031 110.277344 L 101.882812 110.277344 L 101.882812 118.503906 L 96.691406 118.503906 C 95.75 118.503906 94.988281 119.265625 94.988281 120.207031 L 94.988281 127.804688 C 94.988281 128.746094 95.75 129.507812 96.691406 129.507812 L 118.589844 129.507812 C 119.527344 129.507812 120.289062 128.746094 120.289062 127.804688 L 120.289062 120.207031 C 120.289062 119.265625 119.527344 118.503906 118.589844 118.503906 L 113.402344 118.503906 L 113.402344 110.277344 L 123.453125 110.277344 C 126.792969 110.277344 129.511719 107.558594 129.511719 104.21875 C 129.511719 100.875 126.792969 98.164062 123.453125 98.164062 Z M 105.28125 68.835938 C 106.894531 69.425781 108.429688 70.4375 109.996094 71.601562 L 109.996094 98.167969 L 105.28125 98.167969 Z M 113.402344 74.1875 C 114.9375 75.320312 116.535156 76.355469 118.246094 77 L 118.246094 98.164062 L 113.402344 98.164062 Z M 102.753906 41.683594 L 112.523438 41.683594 C 112.550781 41.683594 112.585938 41.710938 112.585938 41.75 L 112.585938 45.601562 L 102.683594 45.601562 L 102.683594 41.75 C 102.683594 41.71875 102.71875 41.683594 102.753906 41.683594 Z M 102.054688 49.003906 L 113.21875 49.003906 C 115.992188 49.003906 118.246094 51.257812 118.246094 54.03125 L 118.246094 73.273438 C 116.746094 72.488281 115.246094 71.332031 113.6875 70.132812 C 110.917969 67.996094 107.753906 65.5625 103.949219 65.003906 C 103.859375 64.984375 103.765625 64.972656 103.671875 64.96875 C 101.648438 64.71875 99.445312 65.011719 97.023438 66.160156 L 97.023438 54.03125 C 97.023438 51.261719 99.28125 49.003906 102.050781 49.003906 Z M 97.023438 70.039062 C 98.796875 68.929688 100.394531 68.410156 101.878906 68.316406 L 101.878906 98.167969 L 97.023438 98.167969 Z M 54.265625 92.78125 L 88.265625 92.78125 L 88.265625 118.425781 L 54.265625 118.425781 Z M 86.148438 67.328125 L 86.148438 73.695312 C 86.148438 73.796875 86.0625 73.882812 85.960938 73.882812 L 56.574219 73.882812 C 56.523438 73.882812 56.472656 73.859375 56.441406 73.828125 C 56.4375 73.824219 56.433594 73.820312 56.429688 73.816406 C 56.402344 73.78125 56.378906 73.742188 56.378906 73.695312 L 56.378906 67.324219 C 56.378906 67.226562 56.46875 67.140625 56.574219 67.140625 L 85.964844 67.140625 C 86.0625 67.140625 86.148438 67.226562 86.148438 67.324219 Z M 59.996094 63.738281 L 56.574219 63.738281 C 54.707031 63.738281 53.171875 65.160156 52.992188 66.976562 C 51.652344 67.28125 50.277344 67.4375 48.886719 67.4375 C 38.660156 67.4375 30.339844 59.117188 30.339844 48.886719 C 30.339844 38.660156 38.660156 30.347656 48.886719 30.347656 C 59.117188 30.347656 67.429688 38.664062 67.429688 48.886719 C 67.429688 54.730469 64.660156 60.238281 59.996094 63.738281 Z M 23.894531 48.886719 C 23.894531 35.105469 35.105469 23.894531 48.886719 23.894531 C 62.667969 23.894531 73.882812 35.105469 73.882812 48.886719 C 73.882812 54.308594 72.191406 59.421875 68.988281 63.738281 L 65.042969 63.738281 C 68.726562 59.726562 70.832031 54.433594 70.832031 48.886719 C 70.832031 36.785156 60.988281 26.941406 48.886719 26.941406 C 36.785156 26.941406 26.933594 36.785156 26.933594 48.886719 C 26.933594 60.992188 36.78125 70.839844 48.886719 70.839844 C 50.261719 70.839844 51.628906 70.710938 52.972656 70.457031 L 52.972656 73.546875 C 51.632812 73.769531 50.265625 73.882812 48.886719 73.882812 C 35.105469 73.882812 23.894531 62.667969 23.894531 48.886719 Z M 57.921875 83.703125 C 59.621094 82.824219 60.632812 81.15625 60.632812 79.25 L 60.632812 77.289062 L 81.898438 77.289062 L 81.898438 79.25 C 81.898438 81.15625 82.910156 82.824219 84.609375 83.703125 C 86.769531 84.828125 88.144531 86.980469 88.253906 89.375 L 54.277344 89.375 C 54.386719 86.980469 55.757812 84.828125 57.921875 83.703125 Z M 84.023438 126.105469 L 58.511719 126.105469 C 56.171875 126.105469 54.265625 124.203125 54.265625 121.863281 L 54.265625 121.832031 L 88.265625 121.832031 L 88.265625 121.863281 C 88.265625 124.203125 86.363281 126.105469 84.023438 126.105469 Z M 116.882812 126.105469 L 98.386719 126.105469 L 98.386719 121.910156 L 116.882812 121.910156 Z M 109.996094 118.507812 L 105.28125 118.507812 L 105.28125 110.28125 L 109.996094 110.28125 Z M 123.449219 106.875 L 91.828125 106.875 C 91.773438 106.875 91.722656 106.867188 91.671875 106.867188 L 91.671875 101.578125 C 91.722656 101.574219 91.773438 101.570312 91.828125 101.570312 L 123.449219 101.570312 C 124.914062 101.570312 126.105469 102.757812 126.105469 104.21875 C 126.105469 105.679688 124.914062 106.875 123.449219 106.875 Z M 80.976562 100.476562 L 76.386719 100.476562 L 76.386719 95.894531 C 76.386719 94.957031 75.625 94.195312 74.6875 94.195312 L 67.847656 94.195312 C 66.90625 94.195312 66.144531 94.957031 66.144531 95.894531 L 66.144531 100.476562 L 61.558594 100.476562 C 60.617188 100.476562 59.855469 101.238281 59.855469 102.179688 L 59.855469 109.023438 C 59.855469 109.964844 60.617188 110.726562 61.558594 110.726562 L 66.144531 110.726562 L 66.144531 115.3125 C 66.144531 116.253906 66.90625 117.015625 67.847656 117.015625 L 74.6875 117.015625 C 75.625 117.015625 76.386719 116.253906 76.386719 115.3125 L 76.386719 110.726562 L 80.976562 110.726562 C 81.914062 110.726562 82.675781 109.964844 82.675781 109.023438 L 82.675781 102.179688 C 82.675781 101.238281 81.914062 100.476562 80.976562 100.476562 Z M 79.273438 107.320312 L 74.6875 107.320312 C 73.746094 107.320312 72.984375 108.082031 72.984375 109.023438 L 72.984375 113.609375 L 69.550781 113.609375 L 69.550781 109.023438 C 69.550781 108.082031 68.789062 107.320312 67.847656 107.320312 L 63.261719 107.320312 L 63.261719 103.882812 L 67.847656 103.882812 C 68.789062 103.882812 69.550781 103.121094 69.550781 102.179688 L 69.550781 97.597656 L 72.984375 97.597656 L 72.984375 102.179688 C 72.984375 103.121094 73.746094 103.882812 74.6875 103.882812 L 79.273438 103.882812 Z M 60.046875 40.507812 C 60.035156 40.496094 60.023438 40.488281 60.011719 40.476562 C 57.917969 38.386719 54.511719 38.390625 52.421875 40.480469 L 47.296875 45.605469 L 45.351562 43.664062 C 43.257812 41.574219 39.851562 41.578125 37.761719 43.664062 L 37.640625 43.785156 C 35.550781 45.878906 35.550781 49.28125 37.640625 51.371094 L 43.621094 57.355469 C 44.632812 58.363281 45.960938 58.871094 47.292969 58.871094 C 48.621094 58.871094 49.949219 58.367188 50.964844 57.355469 L 60.128906 48.183594 C 62.214844 46.097656 62.21875 42.707031 60.144531 40.617188 L 60.042969 40.511719 Z M 57.722656 45.777344 L 48.5625 54.945312 C 47.863281 55.640625 46.726562 55.640625 46.03125 54.945312 L 40.050781 48.964844 C 39.285156 48.199219 39.285156 46.957031 40.050781 46.195312 L 40.171875 46.074219 C 40.550781 45.691406 41.054688 45.5 41.558594 45.5 C 42.0625 45.5 42.566406 45.691406 42.949219 46.074219 L 46.09375 49.21875 C 46.757812 49.882812 47.835938 49.882812 48.5 49.21875 L 54.832031 42.886719 C 55.589844 42.128906 56.828125 42.125 57.597656 42.875 L 57.695312 42.976562 C 57.703125 42.988281 57.714844 42.996094 57.722656 43.007812 C 58.488281 43.773438 58.488281 45.015625 57.722656 45.78125 Z M 57.722656 45.777344 " fill-opacity="1" fill-rule="nonzero"/></g></svg>