<svg xmlns="http://www.w3.org/2000/svg" xmlns:xlink="http://www.w3.org/1999/xlink" width="200" zoomAndPan="magnify" viewBox="0 0 150 149.999998" height="200" preserveAspectRatio="xMidYMid meet" version="1.0"><defs><clipPath id="c2b83109f5"><path d="M 20.214844 125 L 129.714844 125 L 129.714844 129 L 20.214844 129 Z M 20.214844 125 " clip-rule="nonzero"/></clipPath></defs><path fill="#ffffff" d="M 122.332031 128.5 L 72.78125 128.5 C 72.011719 128.5 71.367188 127.855469 71.367188 127.023438 L 71.367188 22.976562 C 71.367188 22.140625 72.011719 21.5 72.78125 21.5 L 122.332031 21.5 C 123.101562 21.5 123.808594 22.140625 123.808594 22.976562 L 123.808594 127.023438 C 123.808594 127.855469 123.101562 128.5 122.332031 128.5 Z M 74.261719 125.542969 L 120.851562 125.542969 L 120.851562 24.390625 L 74.261719 24.390625 Z M 74.261719 125.542969 " fill-opacity="1" fill-rule="evenodd"/><path fill="#ffffff" d="M 72.78125 128.5 L 27.667969 128.5 C 26.832031 128.5 26.191406 127.855469 26.191406 127.023438 L 26.191406 61.859375 C 26.191406 61.34375 26.511719 60.894531 26.960938 60.636719 L 72.074219 35.253906 C 72.527344 34.996094 73.105469 34.996094 73.554688 35.253906 C 74.003906 35.507812 74.261719 35.960938 74.261719 36.472656 L 74.261719 127.023438 C 74.261719 127.855469 73.617188 128.5 72.78125 128.5 Z M 29.082031 125.542969 L 71.367188 125.542969 L 71.367188 38.980469 L 29.082031 62.757812 Z M 29.082031 125.542969 " fill-opacity="1" fill-rule="evenodd"/><path fill="#ffffff" d="M 66.035156 118.539062 L 34.480469 118.539062 C 33.644531 118.539062 33.003906 117.894531 33.003906 117.0625 C 33.003906 116.289062 33.644531 115.648438 34.480469 115.648438 L 66.035156 115.648438 C 66.804688 115.648438 67.449219 116.289062 67.449219 117.0625 C 67.449219 117.894531 66.804688 118.539062 66.035156 118.539062 Z M 66.035156 118.539062 " fill-opacity="1" fill-rule="evenodd"/><path fill="#ffffff" d="M 66.035156 108.191406 L 34.480469 108.191406 C 33.644531 108.191406 33.003906 107.550781 33.003906 106.714844 C 33.003906 105.941406 33.644531 105.300781 34.480469 105.300781 L 66.035156 105.300781 C 66.804688 105.300781 67.449219 105.941406 67.449219 106.714844 C 67.449219 107.550781 66.804688 108.191406 66.035156 108.191406 Z M 66.035156 108.191406 " fill-opacity="1" fill-rule="evenodd"/><path fill="#ffffff" d="M 66.035156 97.84375 L 34.480469 97.84375 C 33.644531 97.84375 33.003906 97.203125 33.003906 96.367188 C 33.003906 95.597656 33.644531 94.953125 34.480469 94.953125 L 66.035156 94.953125 C 66.804688 94.953125 67.449219 95.597656 67.449219 96.367188 C 67.449219 97.203125 66.804688 97.84375 66.035156 97.84375 Z M 66.035156 97.84375 " fill-opacity="1" fill-rule="evenodd"/><path fill="#ffffff" d="M 66.035156 87.5 L 34.480469 87.5 C 33.644531 87.5 33.003906 86.855469 33.003906 86.085938 C 33.003906 85.25 33.644531 84.605469 34.480469 84.605469 L 66.035156 84.605469 C 66.804688 84.605469 67.449219 85.25 67.449219 86.085938 C 67.449219 86.855469 66.804688 87.5 66.035156 87.5 Z M 66.035156 87.5 " fill-opacity="1" fill-rule="evenodd"/><path fill="#ffffff" d="M 112.304688 45.214844 L 82.808594 45.214844 C 81.972656 45.214844 81.328125 44.570312 81.328125 43.734375 L 81.328125 34.996094 C 81.328125 34.160156 81.972656 33.515625 82.808594 33.515625 L 112.304688 33.515625 C 113.140625 33.515625 113.78125 34.160156 113.78125 34.996094 L 113.78125 43.734375 C 113.78125 44.570312 113.140625 45.214844 112.304688 45.214844 Z M 112.304688 63.015625 L 82.808594 63.015625 C 81.972656 63.015625 81.328125 62.371094 81.328125 61.535156 L 81.328125 52.796875 C 81.328125 51.960938 81.972656 51.320312 82.808594 51.320312 L 112.304688 51.320312 C 113.140625 51.320312 113.78125 51.960938 113.78125 52.796875 L 113.78125 61.535156 C 113.78125 62.371094 113.140625 63.015625 112.304688 63.015625 Z M 112.304688 80.816406 L 82.808594 80.816406 C 81.972656 80.816406 81.328125 80.171875 81.328125 79.402344 L 81.328125 70.597656 C 81.328125 69.828125 81.972656 69.121094 82.808594 69.121094 L 112.304688 69.121094 C 113.140625 69.121094 113.78125 69.828125 113.78125 70.597656 L 113.78125 79.402344 C 113.78125 80.171875 113.140625 80.816406 112.304688 80.816406 Z M 112.304688 98.679688 L 82.808594 98.679688 C 81.972656 98.679688 81.328125 97.972656 81.328125 97.203125 L 81.328125 88.398438 C 81.328125 87.628906 81.972656 86.984375 82.808594 86.984375 L 112.304688 86.984375 C 113.140625 86.984375 113.78125 87.628906 113.78125 88.398438 L 113.78125 97.203125 C 113.78125 97.972656 113.140625 98.679688 112.304688 98.679688 Z M 112.304688 116.480469 L 82.808594 116.480469 C 81.972656 116.480469 81.328125 115.839844 81.328125 115.003906 L 81.328125 106.265625 C 81.328125 105.429688 81.972656 104.785156 82.808594 104.785156 L 112.304688 104.785156 C 113.140625 104.785156 113.78125 105.429688 113.78125 106.265625 L 113.78125 115.003906 C 113.78125 115.839844 113.140625 116.480469 112.304688 116.480469 Z M 112.304688 116.480469 " fill-opacity="1" fill-rule="evenodd"/><path fill="#ffffff" d="M 56.714844 78.695312 C 56.523438 78.695312 56.265625 78.695312 56.074219 78.566406 L 50.226562 75.738281 L 44.378906 78.566406 C 43.929688 78.824219 43.351562 78.757812 42.898438 78.4375 C 42.449219 78.117188 42.257812 77.601562 42.320312 77.089844 L 43.15625 70.660156 L 38.722656 65.96875 C 38.335938 65.585938 38.207031 65.007812 38.402344 64.492188 C 38.53125 63.976562 38.980469 63.59375 39.492188 63.527344 L 45.855469 62.371094 L 48.941406 56.652344 C 49.199219 56.136719 49.710938 55.882812 50.226562 55.882812 C 50.738281 55.882812 51.253906 56.136719 51.511719 56.652344 L 54.597656 62.371094 L 60.957031 63.527344 C 61.472656 63.59375 61.921875 63.976562 62.113281 64.492188 C 62.242188 65.007812 62.113281 65.585938 61.792969 65.96875 L 57.296875 70.660156 L 58.128906 77.089844 C 58.257812 77.601562 58 78.117188 57.550781 78.4375 C 57.296875 78.628906 57.039062 78.695312 56.714844 78.695312 Z M 56.714844 78.695312 " fill-opacity="1" fill-rule="evenodd"/><path fill="#ffffff" d="M 33.324219 54.597656 L 33.324219 28.570312 C 33.324219 27.734375 33.96875 27.089844 34.800781 27.089844 L 46.820312 27.089844 C 47.65625 27.089844 48.296875 27.734375 48.296875 28.570312 L 48.296875 46.175781 Z M 33.324219 54.597656 " fill-opacity="1" fill-rule="evenodd"/><path fill="#ffffff" d="M 51.640625 44.3125 L 51.640625 30.625 C 51.640625 29.855469 52.28125 29.148438 53.054688 29.148438 L 65.136719 29.148438 C 65.90625 29.148438 66.613281 29.855469 66.613281 30.625 L 66.613281 35.894531 Z M 51.640625 44.3125 " fill-opacity="1" fill-rule="evenodd"/><g clip-path="url(#c2b83109f5)"><path fill="#ffffff" d="M 128.308594 128.5 L 21.628906 128.5 C 20.855469 128.5 20.214844 127.855469 20.214844 127.023438 C 20.214844 126.1875 20.855469 125.542969 21.628906 125.542969 L 128.308594 125.542969 C 129.140625 125.542969 129.785156 126.1875 129.785156 127.023438 C 129.785156 127.855469 129.140625 128.5 128.308594 128.5 Z M 128.308594 128.5 " fill-opacity="1" fill-rule="evenodd"/></g></svg>