<svg xmlns="http://www.w3.org/2000/svg" xmlns:xlink="http://www.w3.org/1999/xlink" width="200" zoomAndPan="magnify" viewBox="0 0 150 149.999998" height="200" preserveAspectRatio="xMidYMid meet" version="1.0"><defs><clipPath id="b9a98d97ae"><path d="M 35.398438 15 L 114.898438 15 L 114.898438 135 L 35.398438 135 Z M 35.398438 15 " clip-rule="nonzero"/></clipPath></defs><g clip-path="url(#b9a98d97ae)"><path fill="#ffffff" d="M 63.792969 29.574219 C 63.878906 29.769531 63.921875 29.96875 63.925781 30.167969 C 64.492188 33.753906 69.308594 33.660156 73.738281 33.574219 L 73.761719 33.574219 L 73.761719 33.570312 L 73.769531 33.570312 C 73.808594 33.570312 73.84375 33.570312 73.878906 33.574219 L 74.570312 33.5625 L 74.578125 33.5625 L 75.414062 33.550781 L 93.117188 33.550781 L 99.070312 20.46875 C 97.359375 20.332031 95.800781 20.507812 94.4375 20.886719 C 92.195312 21.503906 90.496094 22.648438 89.523438 23.800781 C 89.433594 23.90625 89.324219 24.003906 89.203125 24.085938 C 88.515625 24.542969 87.582031 24.351562 87.125 23.660156 C 85.785156 21.648438 84.390625 20.171875 82.976562 19.230469 C 81.769531 18.429688 80.554688 18.027344 79.355469 18.027344 C 78.160156 18.027344 76.941406 18.429688 75.734375 19.230469 C 74.328125 20.167969 72.9375 21.640625 71.597656 23.648438 C 71.519531 23.769531 71.421875 23.878906 71.308594 23.980469 C 70.675781 24.511719 69.726562 24.433594 69.191406 23.800781 C 68.21875 22.648438 66.515625 21.503906 64.277344 20.882812 C 62.914062 20.507812 61.355469 20.332031 59.648438 20.46875 Z M 100.277344 43.988281 C 99.445312 43.988281 98.773438 44.660156 98.773438 45.492188 C 98.773438 46.320312 99.445312 46.992188 100.277344 46.992188 C 102.003906 46.992188 103.101562 47.914062 103.570312 49.089844 C 103.761719 49.570312 103.859375 50.105469 103.859375 50.648438 C 103.859375 51.195312 103.761719 51.730469 103.570312 52.207031 C 103.101562 53.386719 102.007812 54.304688 100.277344 54.304688 C 99.445312 54.304688 98.773438 54.976562 98.773438 55.808594 C 98.773438 56.640625 99.445312 57.3125 100.277344 57.3125 C 102.003906 57.3125 103.101562 58.230469 103.570312 59.410156 C 103.761719 59.890625 103.859375 60.421875 103.859375 60.96875 C 103.859375 61.511719 103.761719 62.046875 103.570312 62.527344 C 103.101562 63.703125 102.007812 64.625 100.277344 64.625 C 99.445312 64.625 98.773438 65.296875 98.773438 66.125 C 98.773438 66.957031 99.445312 67.628906 100.277344 67.628906 C 102.003906 67.628906 103.101562 68.550781 103.570312 69.726562 C 103.761719 70.207031 103.859375 70.742188 103.859375 71.285156 C 103.859375 71.832031 103.761719 72.363281 103.570312 72.84375 C 103.21875 73.726562 102.515625 74.464844 101.460938 74.777344 C 101.332031 74.792969 101.203125 74.820312 101.078125 74.871094 C 100.828125 74.917969 100.5625 74.941406 100.277344 74.941406 C 99.132812 74.941406 97.328125 74.988281 95.25 75.042969 C 84.878906 75.320312 67.105469 75.792969 59.339844 70.789062 L 59.296875 70.753906 C 59.222656 70.695312 59.144531 70.644531 59.058594 70.605469 C 58.289062 70.074219 57.625 69.492188 57.085938 68.839844 C 56.789062 68.480469 56.359375 68.296875 55.929688 68.296875 L 55.929688 68.292969 L 53.5625 68.292969 L 53.5625 38.460938 L 55.929688 38.460938 C 56.679688 38.460938 57.300781 37.910156 57.414062 37.191406 C 57.582031 36.53125 57.9375 35.867188 58.6875 35.058594 C 59.332031 34.359375 60.242188 33.574219 61.523438 32.636719 C 63.386719 36.761719 68.757812 36.667969 73.761719 36.570312 L 73.761719 36.578125 L 73.769531 36.578125 C 73.824219 36.578125 73.875 36.574219 73.929688 36.566406 L 74.621094 36.554688 L 100.21875 36.554688 C 101.949219 36.554688 103.0625 37.515625 103.542969 38.738281 C 103.746094 39.246094 103.847656 39.789062 103.851562 40.324219 C 103.851562 40.859375 103.753906 41.402344 103.554688 41.902344 C 103.089844 43.074219 102.007812 43.988281 100.277344 43.988281 Z M 83.445312 97.082031 C 84.039062 97.660156 84.050781 98.609375 83.472656 99.203125 C 82.898438 99.796875 81.945312 99.808594 81.355469 99.230469 C 81.007812 98.898438 80.550781 98.621094 80.039062 98.425781 L 80.035156 98.421875 L 80.035156 98.425781 C 79.542969 98.234375 79.011719 98.121094 78.488281 98.101562 L 78.410156 98.101562 C 78.367188 98.101562 78.328125 98.101562 78.285156 98.097656 C 78.15625 98.097656 78.023438 98.105469 77.898438 98.121094 C 77.289062 98.183594 76.730469 98.398438 76.34375 98.800781 C 76.15625 98.992188 76.003906 99.234375 75.886719 99.53125 L 75.867188 99.582031 C 75.730469 99.972656 75.738281 100.355469 75.898438 100.691406 C 76.085938 101.089844 76.496094 101.472656 77.128906 101.792969 C 77.761719 102.113281 78.613281 102.335938 79.453125 102.554688 C 80.21875 102.753906 80.980469 102.953125 81.667969 103.230469 C 83.699219 104.050781 84.609375 105.527344 84.664062 107.105469 C 84.695312 108.0625 84.382812 109.03125 83.800781 109.875 C 83.25 110.667969 82.457031 111.359375 81.484375 111.835938 C 81.003906 112.070312 80.480469 112.253906 79.914062 112.371094 L 79.914062 113.453125 C 79.914062 114.285156 79.242188 114.957031 78.410156 114.957031 C 77.582031 114.957031 76.90625 114.285156 76.90625 113.453125 L 76.90625 112.367188 C 75.597656 112.105469 74.191406 111.492188 72.757812 110.417969 C 72.09375 109.921875 71.960938 108.980469 72.457031 108.320312 C 72.953125 107.660156 73.890625 107.523438 74.554688 108.019531 C 75.964844 109.082031 77.28125 109.503906 78.394531 109.515625 L 78.449219 109.515625 C 79.101562 109.515625 79.679688 109.371094 80.167969 109.132812 C 80.675781 108.886719 81.074219 108.546875 81.332031 108.171875 C 81.558594 107.847656 81.675781 107.507812 81.667969 107.199219 C 81.652344 106.765625 81.3125 106.324219 80.550781 106.015625 C 80.015625 105.796875 79.359375 105.628906 78.699219 105.453125 C 77.699219 105.191406 76.679688 104.925781 75.777344 104.46875 C 74.519531 103.835938 73.65625 102.964844 73.183594 101.96875 C 72.671875 100.890625 72.636719 99.703125 73.0625 98.539062 L 73.09375 98.449219 C 73.359375 97.757812 73.734375 97.183594 74.191406 96.710938 C 74.941406 95.9375 75.890625 95.464844 76.90625 95.246094 L 76.90625 94.132812 C 76.90625 93.300781 77.582031 92.628906 78.410156 92.628906 C 79.242188 92.628906 79.914062 93.300781 79.914062 94.132812 L 79.914062 95.273438 C 80.324219 95.359375 80.730469 95.480469 81.113281 95.628906 C 82 95.972656 82.8125 96.46875 83.445312 97.082031 Z M 92.515625 103.792969 C 92.515625 99.898438 90.9375 96.371094 88.386719 93.816406 C 85.832031 91.265625 82.304688 89.683594 78.410156 89.683594 C 74.515625 89.683594 70.988281 91.265625 68.433594 93.816406 C 65.882812 96.371094 64.304688 99.898438 64.304688 103.792969 C 64.304688 107.6875 65.882812 111.214844 68.433594 113.769531 C 70.988281 116.320312 74.515625 117.898438 78.410156 117.898438 C 82.304688 117.898438 85.832031 116.320312 88.386719 113.769531 C 90.9375 111.214844 92.515625 107.6875 92.515625 103.792969 Z M 90.511719 91.691406 C 87.414062 88.59375 83.136719 86.679688 78.410156 86.679688 C 73.683594 86.679688 69.40625 88.59375 66.308594 91.691406 C 63.210938 94.789062 61.296875 99.066406 61.296875 103.792969 C 61.296875 108.519531 63.210938 112.796875 66.308594 115.894531 C 69.40625 118.992188 73.683594 120.90625 78.410156 120.90625 C 83.136719 120.90625 87.414062 118.992188 90.511719 115.894531 C 93.609375 112.796875 95.523438 108.519531 95.523438 103.792969 C 95.523438 99.066406 93.609375 94.789062 90.511719 91.691406 Z M 103.90625 76.964844 C 120.738281 102.054688 115.625 119.097656 102.890625 127.984375 C 95.957031 132.824219 86.738281 135.171875 77.609375 135.023438 C 68.46875 134.878906 59.378906 132.234375 52.714844 127.097656 C 40.144531 117.398438 36.113281 99.066406 56.273438 72.238281 C 55.910156 71.941406 55.570312 71.628906 55.261719 71.300781 L 53.5625 71.300781 L 53.5625 72.734375 C 53.5625 73.460938 53.265625 74.117188 52.785156 74.601562 L 52.777344 74.605469 C 52.296875 75.085938 51.636719 75.382812 50.914062 75.382812 L 38.089844 75.382812 C 37.367188 75.382812 36.707031 75.085938 36.226562 74.605469 L 36.21875 74.601562 C 35.738281 74.117188 35.441406 73.460938 35.441406 72.734375 L 35.441406 34.140625 C 35.441406 33.421875 35.738281 32.757812 36.21875 32.277344 L 36.226562 32.273438 C 36.707031 31.792969 37.367188 31.496094 38.089844 31.496094 L 50.914062 31.496094 C 51.636719 31.496094 52.296875 31.792969 52.78125 32.273438 L 52.785156 32.277344 C 53.265625 32.757812 53.5625 33.421875 53.5625 34.140625 L 53.5625 35.453125 L 54.84375 35.453125 C 55.175781 34.671875 55.6875 33.882812 56.476562 33.027344 C 57.382812 32.046875 58.671875 30.964844 60.527344 29.65625 L 56.082031 19.894531 C 55.738281 19.140625 56.074219 18.246094 56.828125 17.902344 C 56.972656 17.839844 57.117188 17.796875 57.265625 17.78125 C 60.183594 17.191406 62.832031 17.375 65.074219 17.996094 C 67.117188 18.5625 68.835938 19.496094 70.128906 20.546875 C 71.390625 18.910156 72.714844 17.636719 74.078125 16.730469 C 75.792969 15.589844 77.566406 15.019531 79.355469 15.019531 C 81.148438 15.019531 82.921875 15.589844 84.632812 16.730469 C 85.996094 17.636719 87.324219 18.910156 88.585938 20.546875 C 89.878906 19.496094 91.59375 18.5625 93.636719 17.996094 C 95.910156 17.367188 98.601562 17.1875 101.566406 17.804688 C 102.378906 17.972656 102.898438 18.769531 102.730469 19.578125 C 102.699219 19.714844 102.652344 19.84375 102.59375 19.964844 L 96.410156 33.550781 L 100.21875 33.550781 C 103.382812 33.550781 105.433594 35.347656 106.339844 37.632812 C 106.671875 38.476562 106.839844 39.398438 106.84375 40.324219 C 106.847656 41.246094 106.683594 42.167969 106.351562 43.007812 C 105.972656 43.957031 105.394531 44.820312 104.609375 45.496094 C 105.394531 46.175781 105.976562 47.035156 106.355469 47.988281 C 106.695312 48.839844 106.867188 49.75 106.867188 50.648438 C 106.867188 51.546875 106.695312 52.460938 106.359375 53.3125 C 105.976562 54.265625 105.394531 55.128906 104.605469 55.808594 C 105.394531 56.488281 105.976562 57.355469 106.355469 58.308594 C 106.695312 59.160156 106.867188 60.070312 106.867188 60.96875 C 106.867188 61.867188 106.695312 62.78125 106.359375 63.632812 C 105.976562 64.585938 105.394531 65.449219 104.605469 66.128906 C 105.394531 66.808594 105.976562 67.671875 106.359375 68.625 C 106.699219 69.476562 106.867188 70.390625 106.867188 71.289062 C 106.867188 72.1875 106.699219 73.097656 106.359375 73.949219 C 105.871094 75.164062 105.054688 76.238281 103.90625 76.964844 Z M 58.78125 73.894531 C 39.808594 99.0625 43.1875 115.960938 54.550781 124.722656 C 60.6875 129.457031 69.128906 131.894531 77.65625 132.027344 C 86.191406 132.164062 94.769531 130 101.175781 125.527344 C 112.746094 117.453125 117.136719 101.621094 100.9375 77.921875 C 100.722656 77.941406 100.503906 77.949219 100.277344 77.949219 C 98.761719 77.949219 97.160156 77.992188 95.320312 78.042969 C 85.0625 78.316406 67.875 78.769531 58.78125 73.894531 Z M 38.449219 72.375 L 50.554688 72.375 L 50.554688 34.503906 L 38.449219 34.503906 Z M 38.449219 72.375 " fill-opacity="1" fill-rule="evenodd"/></g></svg>