<svg xmlns="http://www.w3.org/2000/svg" xmlns:xlink="http://www.w3.org/1999/xlink" width="200" zoomAndPan="magnify" viewBox="0 0 150 149.999998" height="200" preserveAspectRatio="xMidYMid meet" version="1.0"><defs><clipPath id="0a8c89e07d"><path d="M 9.941406 63 L 139.691406 63 L 139.691406 107.980469 L 9.941406 107.980469 Z M 9.941406 63 " clip-rule="nonzero"/></clipPath><clipPath id="94306c26a7"><path d="M 32 41.980469 L 39 41.980469 L 39 50 L 32 50 Z M 32 41.980469 " clip-rule="nonzero"/></clipPath></defs><g clip-path="url(#0a8c89e07d)"><path fill="#ffffff" d="M 12.011719 108.015625 L 39.441406 108.015625 C 40.5625 108.015625 41.472656 107.109375 41.472656 105.984375 L 41.472656 97.859375 L 63.820312 97.859375 C 64.945312 97.859375 65.855469 96.949219 65.855469 95.828125 L 65.855469 88.714844 L 89.21875 88.714844 C 90.34375 88.714844 91.253906 87.804688 91.253906 86.683594 L 91.253906 78.648438 L 113.71875 78.648438 C 114.839844 78.648438 115.75 77.738281 115.75 76.617188 L 115.75 67.378906 L 137.984375 67.378906 C 139.105469 67.378906 140.015625 66.472656 140.015625 65.347656 C 140.015625 64.226562 139.105469 63.316406 137.984375 63.316406 L 113.71875 63.316406 C 112.597656 63.316406 111.6875 64.226562 111.6875 65.347656 L 111.6875 74.585938 L 89.21875 74.585938 C 88.097656 74.585938 87.1875 75.496094 87.1875 76.617188 L 87.1875 84.652344 L 63.820312 84.652344 C 62.699219 84.652344 61.789062 85.5625 61.789062 86.683594 L 61.789062 93.792969 L 39.441406 93.792969 C 38.316406 93.792969 37.40625 94.703125 37.40625 95.828125 L 37.40625 103.953125 L 12.011719 103.953125 C 10.886719 103.953125 9.976562 104.863281 9.976562 105.984375 C 9.976562 107.109375 10.886719 108.015625 12.011719 108.015625 Z M 12.011719 108.015625 " fill-opacity="1" fill-rule="nonzero"/></g><path fill="#ffffff" d="M 23.449219 68.675781 C 23.691406 68.773438 23.941406 68.820312 24.191406 68.820312 C 24.996094 68.820312 25.757812 68.324219 26.070312 67.511719 L 28.492188 61.253906 L 29.996094 59.578125 C 29.972656 59.71875 29.945312 59.859375 29.917969 59.996094 C 29.917969 59.996094 28.738281 68.132812 29.449219 73.644531 C 29.449219 73.644531 30.054688 77.367188 29.515625 79.367188 C 29.515625 79.367188 27.640625 89.867188 27.09375 92.191406 C 26.867188 93.144531 26.964844 94.300781 27.621094 95.03125 C 28.117188 95.585938 28.742188 95.828125 29.359375 95.828125 C 30.460938 95.828125 31.53125 95.046875 31.792969 93.886719 L 35.039062 80.125 L 35.375 78.886719 C 35.375 78.886719 35.683594 77.074219 35.433594 76.066406 L 35.136719 73.21875 C 35.136719 73.21875 35.050781 72.96875 35.230469 72.835938 C 35.261719 72.808594 35.304688 72.800781 35.34375 72.800781 C 35.46875 72.800781 35.605469 72.894531 35.605469 72.894531 L 40.171875 74.851562 C 40.171875 74.851562 40.597656 75.421875 40.546875 76.507812 C 40.546875 76.507812 40.496094 81.644531 40.496094 81.683594 C 40.519531 82.894531 40.558594 84.363281 41.757812 84.992188 C 42.679688 85.476562 43.992188 85.328125 44.714844 84.53125 C 45.207031 83.984375 45.46875 83.28125 45.476562 82.539062 L 45.886719 75.070312 C 45.96875 73.753906 46.207031 72.65625 44.792969 71.855469 C 44.792969 71.855469 39.746094 68.917969 39.726562 68.910156 C 38.632812 68.449219 38.835938 67.523438 38.855469 66.5 C 38.863281 66.023438 38.886719 65.542969 38.902344 65.066406 C 38.90625 64.949219 38.917969 64.84375 38.917969 64.730469 C 38.917969 64.730469 38.90625 64.316406 39.417969 64.316406 C 39.429688 64.316406 39.441406 64.316406 39.453125 64.316406 C 40.917969 64.316406 44.976562 64.347656 44.996094 64.347656 C 47.003906 64.347656 47.316406 60.289062 44.449219 60.289062 C 44.429688 60.289062 44.410156 60.289062 44.390625 60.289062 C 44.390625 60.289062 39.238281 60.101562 39.21875 60.101562 C 38.90625 60.085938 38.898438 59.789062 38.886719 59.472656 C 38.847656 58.039062 38.761719 56.929688 38.421875 55.515625 C 38.132812 54.316406 37.59375 53.199219 36.601562 52.453125 C 35.835938 51.878906 34.992188 51.417969 34.066406 51.183594 C 33.875 51.136719 33.523438 51.125 33.523438 51.125 C 32.140625 51.125 31.277344 52.199219 31.007812 52.5 C 31.007812 52.5 25.578125 58.402344 25.519531 58.464844 C 25.175781 58.839844 24.9375 59.203125 24.753906 59.683594 L 22.3125 65.992188 C 21.902344 67.054688 22.410156 68.253906 23.449219 68.675781 Z M 23.449219 68.675781 " fill-opacity="1" fill-rule="nonzero"/><g clip-path="url(#94306c26a7)"><path fill="#ffffff" d="M 38.425781 45.535156 C 38.425781 46.007812 38.347656 46.460938 38.191406 46.898438 C 38.039062 47.332031 37.816406 47.71875 37.53125 48.050781 C 37.246094 48.386719 36.914062 48.640625 36.542969 48.820312 C 36.167969 49.003906 35.78125 49.09375 35.375 49.09375 C 34.972656 49.09375 34.582031 49.003906 34.210938 48.820312 C 33.835938 48.640625 33.507812 48.386719 33.222656 48.050781 C 32.933594 47.71875 32.714844 47.332031 32.558594 46.898438 C 32.40625 46.460938 32.328125 46.007812 32.328125 45.535156 C 32.328125 45.066406 32.40625 44.613281 32.558594 44.175781 C 32.714844 43.742188 32.933594 43.355469 33.222656 43.023438 C 33.507812 42.6875 33.835938 42.433594 34.210938 42.253906 C 34.582031 42.070312 34.972656 41.980469 35.375 41.980469 C 35.78125 41.980469 36.167969 42.070312 36.542969 42.253906 C 36.914062 42.433594 37.246094 42.6875 37.53125 43.023438 C 37.816406 43.355469 38.039062 43.742188 38.191406 44.175781 C 38.347656 44.613281 38.425781 45.066406 38.425781 45.535156 Z M 38.425781 45.535156 " fill-opacity="1" fill-rule="nonzero"/></g></svg>