<svg xmlns="http://www.w3.org/2000/svg" xmlns:xlink="http://www.w3.org/1999/xlink" width="200" zoomAndPan="magnify" viewBox="0 0 150 149.999998" height="200" preserveAspectRatio="xMidYMid meet" version="1.0"><defs><clipPath id="ab27870f8f"><path d="M 27.15625 31 L 123 31 L 123 127 L 27.15625 127 Z M 27.15625 31 " clip-rule="nonzero"/></clipPath><clipPath id="4abe1200e0"><path d="M 27.15625 51 L 123 51 L 123 55 L 27.15625 55 Z M 27.15625 51 " clip-rule="nonzero"/></clipPath><clipPath id="453cbc403f"><path d="M 39 22.996094 L 43 22.996094 L 43 43 L 39 43 Z M 39 22.996094 " clip-rule="nonzero"/></clipPath><clipPath id="fd9bda60db"><path d="M 46 22.996094 L 50 22.996094 L 50 43 L 46 43 Z M 46 22.996094 " clip-rule="nonzero"/></clipPath><clipPath id="af9f4fc6b3"><path d="M 70 22.996094 L 74 22.996094 L 74 43 L 70 43 Z M 70 22.996094 " clip-rule="nonzero"/></clipPath><clipPath id="d9a2432534"><path d="M 77 22.996094 L 81 22.996094 L 81 43 L 77 43 Z M 77 22.996094 " clip-rule="nonzero"/></clipPath><clipPath id="736408dd1d"><path d="M 101 22.996094 L 105 22.996094 L 105 43 L 101 43 Z M 101 22.996094 " clip-rule="nonzero"/></clipPath><clipPath id="4cce90cbea"><path d="M 108 22.996094 L 112 22.996094 L 112 43 L 108 43 Z M 108 22.996094 " clip-rule="nonzero"/></clipPath></defs><g clip-path="url(#ab27870f8f)"><path fill="#ffffff" d="M 121.597656 127 L 28.398438 127 C 27.726562 127 27.179688 126.453125 27.179688 125.78125 L 27.179688 32.582031 C 27.179688 31.910156 27.726562 31.363281 28.398438 31.363281 L 121.597656 31.363281 C 122.269531 31.363281 122.816406 31.910156 122.816406 32.582031 L 122.816406 125.78125 C 122.816406 126.453125 122.269531 127 121.597656 127 Z M 29.617188 124.5625 L 120.378906 124.5625 L 120.378906 33.800781 L 29.617188 33.800781 Z M 29.617188 124.5625 " fill-opacity="1" fill-rule="nonzero"/></g><g clip-path="url(#4abe1200e0)"><path fill="#ffffff" d="M 121.597656 54.320312 L 28.398438 54.320312 C 27.726562 54.320312 27.179688 53.773438 27.179688 53.101562 C 27.179688 52.429688 27.726562 51.882812 28.398438 51.882812 L 121.597656 51.882812 C 122.269531 51.882812 122.816406 52.429688 122.816406 53.101562 C 122.816406 53.773438 122.269531 54.320312 121.597656 54.320312 Z M 121.597656 54.320312 " fill-opacity="1" fill-rule="nonzero"/></g><g clip-path="url(#453cbc403f)"><path fill="#ffffff" d="M 41.414062 42.167969 C 40.75 42.167969 40.203125 41.632812 40.195312 40.964844 L 39.964844 24.230469 C 39.953125 23.558594 40.492188 23.003906 41.164062 22.996094 C 41.84375 22.988281 42.390625 23.523438 42.398438 24.199219 L 42.632812 40.933594 C 42.640625 41.605469 42.105469 42.160156 41.429688 42.167969 C 41.425781 42.167969 41.417969 42.167969 41.414062 42.167969 Z M 41.414062 42.167969 " fill-opacity="1" fill-rule="nonzero"/></g><g clip-path="url(#fd9bda60db)"><path fill="#ffffff" d="M 48.386719 42.167969 C 47.722656 42.167969 47.175781 41.632812 47.167969 40.964844 L 46.933594 24.230469 C 46.925781 23.558594 47.464844 23.003906 48.136719 22.996094 C 48.144531 22.996094 48.148438 22.996094 48.15625 22.996094 C 48.820312 22.996094 49.363281 23.53125 49.371094 24.199219 L 49.605469 40.933594 C 49.613281 41.605469 49.078125 42.160156 48.402344 42.167969 C 48.398438 42.167969 48.390625 42.167969 48.386719 42.167969 Z M 48.386719 42.167969 " fill-opacity="1" fill-rule="nonzero"/></g><g clip-path="url(#af9f4fc6b3)"><path fill="#ffffff" d="M 72.324219 42.167969 C 71.660156 42.167969 71.117188 41.632812 71.105469 40.964844 L 70.875 24.230469 C 70.863281 23.558594 71.402344 23.003906 72.074219 22.996094 C 72.746094 22.976562 73.300781 23.523438 73.3125 24.199219 L 73.542969 40.933594 C 73.554688 41.605469 73.015625 42.160156 72.34375 42.167969 C 72.335938 42.167969 72.332031 42.167969 72.324219 42.167969 Z M 72.324219 42.167969 " fill-opacity="1" fill-rule="nonzero"/></g><g clip-path="url(#d9a2432534)"><path fill="#ffffff" d="M 79.296875 42.167969 C 78.632812 42.167969 78.089844 41.632812 78.078125 40.964844 L 77.847656 24.230469 C 77.835938 23.558594 78.375 23.003906 79.046875 22.996094 C 79.71875 22.984375 80.273438 23.523438 80.285156 24.199219 L 80.515625 40.933594 C 80.527344 41.605469 79.988281 42.160156 79.316406 42.167969 C 79.308594 42.167969 79.304688 42.167969 79.296875 42.167969 Z M 79.296875 42.167969 " fill-opacity="1" fill-rule="nonzero"/></g><g clip-path="url(#736408dd1d)"><path fill="#ffffff" d="M 103.003906 42.167969 C 102.339844 42.167969 101.796875 41.632812 101.785156 40.964844 L 101.554688 24.230469 C 101.542969 23.558594 102.082031 23.003906 102.753906 22.996094 C 103.433594 22.984375 103.980469 23.523438 103.992188 24.199219 L 104.222656 40.933594 C 104.234375 41.605469 103.695312 42.160156 103.019531 42.167969 C 103.015625 42.167969 103.011719 42.167969 103.003906 42.167969 Z M 103.003906 42.167969 " fill-opacity="1" fill-rule="nonzero"/></g><g clip-path="url(#4cce90cbea)"><path fill="#ffffff" d="M 109.976562 42.167969 C 109.3125 42.167969 108.769531 41.632812 108.757812 40.964844 L 108.527344 24.230469 C 108.515625 23.558594 109.054688 23.003906 109.726562 22.996094 C 110.394531 22.984375 110.953125 23.523438 110.964844 24.199219 L 111.195312 40.933594 C 111.207031 41.605469 110.667969 42.160156 109.992188 42.167969 C 109.988281 42.167969 109.984375 42.167969 109.976562 42.167969 Z M 109.976562 42.167969 " fill-opacity="1" fill-rule="nonzero"/></g><path fill="#ffffff" d="M 85.921875 109.574219 L 44.515625 109.574219 C 43.839844 109.574219 43.296875 109.03125 43.296875 108.355469 L 43.296875 89.820312 C 43.296875 89.144531 43.839844 88.601562 44.515625 88.601562 C 45.1875 88.601562 45.734375 89.144531 45.734375 89.820312 L 45.734375 107.136719 L 85.921875 107.136719 C 86.59375 107.136719 87.140625 107.683594 87.140625 108.355469 C 87.140625 109.03125 86.59375 109.574219 85.921875 109.574219 Z M 85.921875 109.574219 " fill-opacity="1" fill-rule="nonzero"/><path fill="#ffffff" d="M 93.523438 99.570312 C 92.847656 99.570312 92.304688 99.023438 92.304688 98.351562 L 92.304688 89.820312 C 92.304688 89.144531 92.847656 88.601562 93.523438 88.601562 C 94.195312 88.601562 94.742188 89.144531 94.742188 89.820312 L 94.742188 98.351562 C 94.742188 99.023438 94.195312 99.570312 93.523438 99.570312 Z M 93.523438 99.570312 " fill-opacity="1" fill-rule="nonzero"/><path fill="#ffffff" d="M 89.578125 92.785156 L 75.515625 92.785156 C 74.839844 92.785156 74.296875 92.242188 74.296875 91.566406 C 74.296875 90.894531 74.839844 90.347656 75.515625 90.347656 L 89.578125 90.347656 C 90.730469 90.347656 91.839844 89.855469 92.621094 89 C 93.316406 88.238281 93.695312 87.253906 93.695312 86.222656 L 93.695312 70.777344 L 44.34375 70.777344 L 44.34375 86.222656 C 44.34375 86.507812 44.367188 86.785156 44.421875 87.039062 C 44.570312 87.769531 44.914062 88.445312 45.417969 89 C 46.199219 89.855469 47.308594 90.347656 48.460938 90.347656 L 62.523438 90.347656 C 63.195312 90.347656 63.742188 90.894531 63.742188 91.566406 C 63.742188 92.242188 63.195312 92.785156 62.523438 92.785156 L 48.460938 92.785156 C 46.625 92.785156 44.855469 92.003906 43.613281 90.640625 C 42.8125 89.761719 42.265625 88.683594 42.035156 87.53125 C 41.949219 87.117188 41.902344 86.675781 41.902344 86.226562 L 41.902344 69.558594 C 41.902344 68.886719 42.449219 68.339844 43.121094 68.339844 L 94.914062 68.339844 C 95.589844 68.339844 96.132812 68.886719 96.132812 69.558594 L 96.132812 86.226562 C 96.132812 87.863281 95.527344 89.429688 94.421875 90.640625 C 93.183594 92.003906 91.414062 92.785156 89.578125 92.785156 Z M 89.578125 92.785156 " fill-opacity="1" fill-rule="nonzero"/><path fill="#ffffff" d="M 94.914062 76.027344 L 43.121094 76.027344 C 42.449219 76.027344 41.902344 75.480469 41.902344 74.808594 C 41.902344 74.136719 42.449219 73.589844 43.121094 73.589844 L 94.914062 73.589844 C 95.589844 73.589844 96.132812 74.136719 96.132812 74.808594 C 96.132812 75.480469 95.589844 76.027344 94.914062 76.027344 Z M 94.914062 76.027344 " fill-opacity="1" fill-rule="nonzero"/><path fill="#ffffff" d="M 81.019531 70.777344 C 80.347656 70.777344 79.800781 70.230469 79.800781 69.558594 L 79.800781 66.988281 C 79.800781 65.703125 79.257812 64.46875 78.304688 63.601562 C 77.460938 62.828125 76.363281 62.402344 75.21875 62.402344 L 63.097656 62.402344 C 62.867188 62.402344 62.632812 62.421875 62.402344 62.457031 C 61.5 62.59375 60.667969 62.996094 59.996094 63.617188 C 59.792969 63.800781 59.617188 63.996094 59.457031 64.203125 C 58.917969 64.914062 58.597656 65.75 58.53125 66.636719 C 58.519531 66.753906 58.515625 66.863281 58.515625 66.988281 L 58.515625 69.558594 C 58.515625 70.230469 57.96875 70.777344 57.296875 70.777344 C 56.625 70.777344 56.078125 70.230469 56.078125 69.558594 L 56.078125 66.988281 C 56.078125 66.789062 56.085938 66.605469 56.101562 66.433594 C 56.203125 65.09375 56.691406 63.808594 57.519531 62.730469 C 57.761719 62.40625 58.042969 62.097656 58.351562 61.816406 C 59.375 60.875 60.652344 60.257812 62.03125 60.050781 C 62.382812 59.996094 62.742188 59.964844 63.097656 59.964844 L 75.21875 59.964844 C 76.976562 59.964844 78.65625 60.617188 79.949219 61.804688 C 81.402344 63.128906 82.238281 65.019531 82.238281 66.988281 L 82.238281 69.558594 C 82.238281 70.230469 81.691406 70.777344 81.019531 70.777344 Z M 81.019531 70.777344 " fill-opacity="1" fill-rule="nonzero"/><path fill="#ffffff" d="M 72.6875 96.117188 L 65.351562 96.117188 C 63.121094 96.117188 61.304688 94.300781 61.304688 92.070312 L 61.304688 91.027344 C 61.304688 88.796875 63.121094 86.980469 65.351562 86.980469 L 72.6875 86.980469 C 74.917969 86.980469 76.734375 88.796875 76.734375 91.027344 L 76.734375 92.070312 C 76.734375 94.300781 74.917969 96.117188 72.6875 96.117188 Z M 65.351562 89.417969 C 64.464844 89.417969 63.742188 90.140625 63.742188 91.027344 L 63.742188 92.070312 C 63.742188 92.957031 64.464844 93.679688 65.351562 93.679688 L 72.6875 93.679688 C 73.574219 93.679688 74.296875 92.957031 74.296875 92.070312 L 74.296875 91.027344 C 74.296875 90.140625 73.574219 89.417969 72.6875 89.417969 Z M 65.351562 89.417969 " fill-opacity="1" fill-rule="nonzero"/><path fill="#ffffff" d="M 96.394531 120.125 C 89.945312 120.125 84.699219 114.878906 84.699219 108.429688 C 84.699219 101.980469 89.945312 96.734375 96.394531 96.734375 C 102.84375 96.734375 108.09375 101.980469 108.09375 108.429688 C 108.09375 114.878906 102.84375 120.125 96.394531 120.125 Z M 96.394531 99.171875 C 91.292969 99.171875 87.136719 103.324219 87.136719 108.429688 C 87.136719 113.535156 91.292969 117.6875 96.394531 117.6875 C 101.5 117.6875 105.65625 113.535156 105.65625 108.429688 C 105.65625 103.324219 101.5 99.171875 96.394531 99.171875 Z M 96.394531 99.171875 " fill-opacity="1" fill-rule="nonzero"/><path fill="#ffffff" d="M 92.867188 114.976562 C 92.636719 114.976562 92.402344 114.910156 92.195312 114.773438 C 91.632812 114.402344 91.480469 113.648438 91.851562 113.085938 L 98.90625 102.425781 C 99.277344 101.867188 100.035156 101.710938 100.597656 102.085938 C 101.15625 102.457031 101.3125 103.210938 100.941406 103.773438 L 93.882812 114.429688 C 93.648438 114.785156 93.261719 114.976562 92.867188 114.976562 Z M 92.867188 114.976562 " fill-opacity="1" fill-rule="nonzero"/><path fill="#ffffff" d="M 99.925781 114.976562 C 99.53125 114.976562 99.140625 114.785156 98.90625 114.429688 L 91.851562 103.773438 C 91.480469 103.210938 91.632812 102.457031 92.195312 102.085938 C 92.757812 101.710938 93.511719 101.867188 93.882812 102.425781 L 100.941406 113.085938 C 101.3125 113.648438 101.15625 114.402344 100.597656 114.773438 C 100.390625 114.910156 100.15625 114.976562 99.925781 114.976562 Z M 99.925781 114.976562 " fill-opacity="1" fill-rule="nonzero"/></svg>