<svg xmlns="http://www.w3.org/2000/svg" xmlns:xlink="http://www.w3.org/1999/xlink" width="200" zoomAndPan="magnify" viewBox="0 0 150 149.999998" height="200" preserveAspectRatio="xMidYMid meet" version="1.0"><defs><clipPath id="2a19bce53d"><path d="M 24.257812 24.765625 L 125.507812 24.765625 L 125.507812 125.265625 L 24.257812 125.265625 Z M 24.257812 24.765625 " clip-rule="nonzero"/></clipPath></defs><g clip-path="url(#2a19bce53d)"><path fill="#ffffff" d="M 74.515625 24.757812 C 46.820312 24.757812 24.289062 47.289062 24.289062 74.984375 C 24.289062 102.683594 46.820312 125.214844 74.515625 125.214844 C 91.503906 125.214844 106.503906 116.714844 115.59375 103.769531 L 118.222656 116.699219 C 118.320312 117.1875 118.511719 117.640625 118.789062 118.054688 C 119.070312 118.46875 119.417969 118.8125 119.835938 119.089844 C 120.25 119.367188 120.703125 119.550781 121.195312 119.648438 C 121.6875 119.742188 122.175781 119.742188 122.667969 119.640625 C 123.15625 119.542969 123.609375 119.351562 124.023438 119.074219 C 124.4375 118.792969 124.78125 118.445312 125.058594 118.027344 C 125.335938 117.613281 125.519531 117.160156 125.617188 116.667969 C 125.710938 116.175781 125.707031 115.6875 125.609375 115.199219 L 121.097656 93.046875 C 121.007812 92.609375 120.847656 92.203125 120.613281 91.824219 C 120.382812 91.449219 120.089844 91.121094 119.742188 90.84375 C 119.394531 90.570312 119.011719 90.363281 118.589844 90.222656 C 118.167969 90.082031 117.734375 90.019531 117.289062 90.035156 C 117.074219 90.042969 116.863281 90.066406 116.652344 90.113281 L 94.5 94.625 C 94.25 94.667969 94.007812 94.734375 93.773438 94.824219 C 93.535156 94.914062 93.3125 95.03125 93.097656 95.164062 C 92.886719 95.300781 92.6875 95.457031 92.507812 95.632812 C 92.324219 95.808594 92.164062 96 92.019531 96.210938 C 91.875 96.417969 91.757812 96.640625 91.65625 96.871094 C 91.558594 97.105469 91.484375 97.347656 91.433594 97.59375 C 91.382812 97.84375 91.359375 98.09375 91.359375 98.34375 C 91.359375 98.597656 91.386719 98.847656 91.4375 99.097656 C 91.488281 99.34375 91.5625 99.585938 91.660156 99.816406 C 91.761719 100.050781 91.882812 100.269531 92.023438 100.476562 C 92.167969 100.6875 92.332031 100.878906 92.511719 101.054688 C 92.695312 101.230469 92.894531 101.386719 93.105469 101.519531 C 93.320312 101.65625 93.546875 101.769531 93.78125 101.859375 C 94.019531 101.949219 94.261719 102.015625 94.511719 102.058594 C 94.761719 102.097656 95.011719 102.113281 95.265625 102.105469 C 95.515625 102.097656 95.765625 102.0625 96.011719 102.003906 L 109.609375 99.234375 C 101.910156 110.359375 89.105469 117.679688 74.515625 117.679688 C 50.890625 117.679688 31.824219 98.613281 31.824219 74.984375 C 31.824219 51.359375 50.890625 32.292969 74.515625 32.292969 C 98.144531 32.292969 117.210938 51.359375 117.210938 74.984375 C 117.203125 75.488281 117.296875 75.976562 117.484375 76.441406 C 117.671875 76.910156 117.941406 77.324219 118.296875 77.683594 C 118.648438 78.042969 119.058594 78.320312 119.523438 78.515625 C 119.988281 78.707031 120.472656 78.804688 120.980469 78.804688 C 121.484375 78.804688 121.96875 78.707031 122.433594 78.515625 C 122.898438 78.320312 123.308594 78.042969 123.660156 77.683594 C 124.015625 77.324219 124.285156 76.910156 124.476562 76.441406 C 124.664062 75.976562 124.753906 75.488281 124.746094 74.984375 C 124.746094 47.289062 102.214844 24.757812 74.515625 24.757812 Z M 73.203125 44.800781 C 72.703125 44.808594 72.226562 44.910156 71.769531 45.109375 C 71.308594 45.304688 70.90625 45.582031 70.558594 45.941406 C 70.210938 46.296875 69.945312 46.707031 69.761719 47.171875 C 69.578125 47.636719 69.488281 48.117188 69.496094 48.617188 L 69.496094 76.242188 C 69.496094 76.742188 69.589844 77.222656 69.78125 77.683594 C 69.972656 78.144531 70.246094 78.550781 70.597656 78.90625 C 70.953125 79.257812 71.359375 79.53125 71.820312 79.722656 C 72.28125 79.914062 72.761719 80.007812 73.261719 80.007812 L 95.863281 80.007812 C 96.367188 80.015625 96.855469 79.925781 97.324219 79.738281 C 97.789062 79.546875 98.203125 79.277344 98.5625 78.921875 C 98.921875 78.570312 99.199219 78.160156 99.394531 77.695312 C 99.589844 77.230469 99.683594 76.746094 99.683594 76.242188 C 99.683594 75.738281 99.589844 75.253906 99.394531 74.785156 C 99.199219 74.320312 98.921875 73.914062 98.5625 73.558594 C 98.203125 73.203125 97.789062 72.933594 97.324219 72.746094 C 96.855469 72.558594 96.367188 72.464844 95.863281 72.472656 L 77.027344 72.472656 L 77.027344 48.617188 C 77.03125 48.363281 77.011719 48.113281 76.964844 47.867188 C 76.917969 47.617188 76.847656 47.378906 76.75 47.144531 C 76.65625 46.910156 76.539062 46.691406 76.398438 46.480469 C 76.257812 46.269531 76.101562 46.078125 75.921875 45.898438 C 75.742188 45.722656 75.550781 45.5625 75.339844 45.421875 C 75.128906 45.285156 74.90625 45.167969 74.675781 45.074219 C 74.441406 44.980469 74.199219 44.910156 73.953125 44.863281 C 73.703125 44.816406 73.453125 44.796875 73.203125 44.800781 Z M 73.203125 44.800781 " fill-opacity="1" fill-rule="nonzero"/></g></svg>