<svg xmlns="http://www.w3.org/2000/svg" xmlns:xlink="http://www.w3.org/1999/xlink" width="200" zoomAndPan="magnify" viewBox="0 0 150 149.999998" height="200" preserveAspectRatio="xMidYMid meet" version="1.0"><defs><clipPath id="b5b102cf51"><path d="M 15 28.199219 L 135 28.199219 L 135 121.949219 L 15 121.949219 Z M 15 28.199219 " clip-rule="nonzero"/></clipPath></defs><g clip-path="url(#b5b102cf51)"><path fill="#ffffff" d="M 41.546875 104.9375 C 41.59375 105.761719 40.964844 106.464844 40.140625 106.511719 C 40.113281 106.511719 40.082031 106.511719 40.054688 106.511719 C 39.269531 106.511719 38.609375 105.898438 38.5625 105.101562 L 36.53125 68.820312 C 36.484375 68 37.117188 67.292969 37.941406 67.246094 C 38.765625 67.195312 39.46875 67.832031 39.515625 68.65625 L 41.546875 104.933594 Z M 69.722656 67.25 C 68.902344 67.207031 68.195312 67.835938 68.148438 68.660156 L 66.117188 104.941406 C 66.070312 105.761719 66.703125 106.46875 67.527344 106.515625 C 67.554688 106.515625 67.582031 106.515625 67.609375 106.515625 C 68.398438 106.515625 69.058594 105.898438 69.101562 105.105469 L 71.132812 68.824219 C 71.179688 68 70.546875 67.296875 69.722656 67.25 Z M 53.832031 67.25 C 53.007812 67.25 52.339844 67.917969 52.339844 68.742188 L 52.339844 105.023438 C 52.339844 105.84375 53.007812 106.515625 53.832031 106.515625 C 54.65625 106.515625 55.324219 105.84375 55.324219 105.023438 L 55.324219 68.742188 C 55.324219 67.917969 54.65625 67.25 53.832031 67.25 Z M 134.96875 96.03125 L 134.113281 113.46875 C 133.941406 116.980469 131.03125 119.71875 127.554688 119.71875 C 127.449219 119.71875 127.339844 119.71875 127.230469 119.710938 L 109.792969 118.855469 C 106.390625 118.6875 103.757812 115.785156 103.925781 112.382812 C 104.003906 110.742188 104.722656 109.226562 105.949219 108.113281 C 107.171875 107.003906 108.753906 106.441406 110.394531 106.515625 L 113.917969 106.6875 L 104.335938 96.113281 L 90.984375 97.617188 C 90.589844 97.664062 90.191406 97.546875 89.878906 97.296875 L 84.152344 92.675781 L 82.125 109.78125 C 81.3125 116.640625 75.492188 121.808594 68.589844 121.808594 L 39.070312 121.808594 C 32.167969 121.808594 26.351562 116.640625 25.535156 109.78125 L 19.03125 54.9375 L 16.515625 54.9375 C 15.691406 54.9375 15.019531 54.269531 15.019531 53.445312 L 15.019531 47.28125 C 15.019531 42.214844 19.144531 38.089844 24.214844 38.089844 L 40.464844 38.089844 L 40.464844 34.609375 C 40.464844 31.078125 43.335938 28.207031 46.867188 28.207031 L 60.792969 28.207031 C 64.324219 28.207031 67.195312 31.078125 67.195312 34.609375 L 67.195312 38.089844 L 83.445312 38.089844 C 88.515625 38.089844 92.640625 42.214844 92.640625 47.28125 L 92.640625 53.445312 C 92.640625 54.269531 91.96875 54.9375 91.144531 54.9375 L 88.628906 54.9375 L 85.757812 79.15625 L 93.859375 85.699219 L 108.152344 84.089844 C 108.625 84.035156 109.101562 84.214844 109.425781 84.570312 L 122.460938 98.949219 L 122.632812 95.425781 C 122.800781 92.023438 125.699219 89.398438 129.101562 89.558594 C 130.746094 89.640625 132.261719 90.359375 133.371094 91.582031 C 134.480469 92.808594 135.046875 94.386719 134.96875 96.027344 Z M 43.453125 38.09375 L 64.210938 38.09375 L 64.210938 34.617188 C 64.210938 32.730469 62.675781 31.199219 60.792969 31.199219 L 46.867188 31.199219 C 44.984375 31.199219 43.453125 32.730469 43.453125 34.617188 Z M 18.011719 51.953125 L 89.652344 51.953125 L 89.652344 47.285156 C 89.652344 43.863281 86.867188 41.078125 83.445312 41.078125 L 24.21875 41.078125 C 20.796875 41.078125 18.011719 43.863281 18.011719 47.285156 Z M 79.160156 109.433594 L 85.621094 54.941406 L 22.042969 54.941406 L 28.503906 109.433594 C 29.136719 114.789062 33.679688 118.824219 39.070312 118.824219 L 68.589844 118.824219 C 73.980469 118.824219 78.523438 114.789062 79.160156 109.433594 Z M 131.984375 95.886719 C 132.027344 95.039062 131.734375 94.226562 131.160156 93.589844 C 130.582031 92.957031 129.800781 92.585938 128.957031 92.542969 C 127.195312 92.457031 125.699219 93.816406 125.613281 95.574219 L 125.265625 102.699219 C 125.234375 103.300781 124.84375 103.828125 124.277344 104.03125 C 123.710938 104.234375 123.074219 104.074219 122.667969 103.628906 L 107.726562 87.144531 L 93.574219 88.734375 C 93.175781 88.78125 92.777344 88.664062 92.46875 88.414062 L 85.339844 82.664062 L 84.570312 89.175781 L 91.269531 94.585938 L 104.761719 93.066406 C 105.238281 93.011719 105.710938 93.191406 106.035156 93.546875 L 118.554688 107.359375 C 118.960938 107.804688 119.058594 108.453125 118.800781 109 C 118.542969 109.542969 117.980469 109.878906 117.375 109.851562 L 110.253906 109.503906 C 109.410156 109.460938 108.59375 109.753906 107.960938 110.328125 C 107.324219 110.90625 106.953125 111.6875 106.910156 112.53125 C 106.824219 114.289062 108.183594 115.789062 109.941406 115.875 L 127.378906 116.730469 C 129.351562 116.828125 131.035156 115.300781 131.132812 113.328125 L 131.988281 95.890625 Z M 131.984375 95.886719 " fill-opacity="1" fill-rule="nonzero"/></g></svg>